<ttFont>
    <TTGlyph name=".notdef" xMin="102" yMin="0" xMax="1038" yMax="1516">
      <contour>
        <pt x="102" y="1516" on="1"/>
        <pt x="1038" y="1516" on="1"/>
        <pt x="1038" y="0" on="1"/>
        <pt x="102" y="0" on="1"/>
      </contour>
      <contour>
        <pt x="205" y="102" on="1"/>
        <pt x="936" y="102" on="1"/>
        <pt x="936" y="1413" on="1"/>
        <pt x="205" y="1413" on="1"/>
      </contour>
    </TTGlyph>
    <TTGlyph name="A" xMin="27" yMin="0" xMax="1468" yMax="1516">
      <contour>
        <pt x="893" y="274" on="1"/>
        <pt x="1044" y="274" on="1"/>
        <pt x="976" y="492" on="1"/>
        <pt x="510" y="492" on="1"/>
        <pt x="442" y="274" on="1"/>
        <pt x="602" y="274" on="1"/>
        <pt x="602" y="0" on="1"/>
        <pt x="27" y="0" on="1"/>
        <pt x="27" y="274" on="1"/>
        <pt x="140" y="274" on="1"/>
        <pt x="553" y="1516" on="1"/>
        <pt x="954" y="1516" on="1"/>
        <pt x="1358" y="274" on="1"/>
        <pt x="1468" y="274" on="1"/>
        <pt x="1468" y="0" on="1"/>
        <pt x="893" y="0" on="1"/>
      </contour>
      <contour>
        <pt x="589" y="748" on="1"/>
        <pt x="895" y="748" on="1"/>
        <pt x="741" y="1241" on="1"/>
      </contour>
    </TTGlyph>
    <TTGlyph name="AE" xMin="-34" yMin="0" xMax="2032" yMax="1516">
      <contour>
        <pt x="-34" y="274" on="1"/>
        <pt x="92" y="274" on="1"/>
        <pt x="883" y="1516" on="1"/>
        <pt x="2032" y="1516" on="1"/>
        <pt x="2032" y="999" on="1"/>
        <pt x="1706" y="999" on="1"/>
        <pt x="1706" y="1214" on="1"/>
        <pt x="1336" y="1214" on="1"/>
        <pt x="1336" y="909" on="1"/>
        <pt x="1626" y="909" on="1"/>
        <pt x="1626" y="635" on="1"/>
        <pt x="1336" y="635" on="1"/>
        <pt x="1336" y="274" on="1"/>
        <pt x="1706" y="274" on="1"/>
        <pt x="1706" y="543" on="1"/>
        <pt x="2032" y="543" on="1"/>
        <pt x="2032" y="0" on="1"/>
        <pt x="883" y="0" on="1"/>
        <pt x="883" y="274" on="1"/>
        <pt x="1004" y="274" on="1"/>
        <pt x="1004" y="412" on="1"/>
        <pt x="507" y="412" on="1"/>
        <pt x="424" y="274" on="1"/>
        <pt x="540" y="274" on="1"/>
        <pt x="540" y="0" on="1"/>
        <pt x="-34" y="0" on="1"/>
      </contour>
      <contour>
        <pt x="671" y="686" on="1"/>
        <pt x="1004" y="686" on="1"/>
        <pt x="1004" y="1254" on="1"/>
      </contour>
    </TTGlyph>
    <TTGlyph name="Aacute" xMin="27" yMin="0" xMax="1468" yMax="1968">
      <component glyphName="A" x="0" y="0" flags="0x204"/>
      <component glyphName="acute" x="596" y="479" flags="0x4"/>
    </TTGlyph>
    <TTGlyph name="Abreve" xMin="27" yMin="0" xMax="1468" yMax="1960">
      <component glyphName="A" x="0" y="0" flags="0x204"/>
      <component glyphName="breve" x="260" y="479" flags="0x4"/>
    </TTGlyph>
    <TTGlyph name="Acircumflex" xMin="27" yMin="0" xMax="1468" yMax="1980">
      <component glyphName="A" x="0" y="0" flags="0x204"/>
      <component glyphName="circumflex" x="297" y="479" flags="0x4"/>
    </TTGlyph>
    <TTGlyph name="Adieresis" xMin="27" yMin="0" xMax="1468" yMax="1999">
      <component glyphName="A" x="0" y="0" flags="0x204"/>
      <component glyphName="dieresis" x="276" y="477" flags="0x4"/>
    </TTGlyph>
    <TTGlyph name="Agrave" xMin="27" yMin="0" xMax="1468" yMax="1968">
      <component glyphName="A" x="0" y="0" flags="0x204"/>
      <component glyphName="grave" x="197" y="479" flags="0x4"/>
    </TTGlyph>
    <TTGlyph name="Amacron" xMin="27" yMin="0" xMax="1468" yMax="1870">
      <component glyphName="A" x="0" y="0" flags="0x204"/>
      <component glyphName="macron" x="317" y="479" flags="0x4"/>
    </TTGlyph>
    <TTGlyph name="Aogonek" xMin="27" yMin="-485" xMax="1468" yMax="1516">
      <contour>
        <pt x="27" y="274" on="1"/>
        <pt x="139" y="274" on="1"/>
        <pt x="553" y="1516" on="1"/>
        <pt x="954" y="1516" on="1"/>
        <pt x="1358" y="274" on="1"/>
        <pt x="1468" y="274" on="1"/>
        <pt x="1468" y="0" on="1"/>
        <pt x="1290" y="0" on="1"/>
        <pt x="1245" y="0" on="0"/>
        <pt x="1174" y="-27" on="0"/>
        <pt x="1122" y="-72" on="0"/>
        <pt x="1096" y="-131" on="0"/>
        <pt x="1096" y="-164" on="1"/>
        <pt x="1096" y="-223" on="0"/>
        <pt x="1186" y="-281" on="0"/>
        <pt x="1245" y="-281" on="1"/>
        <pt x="1272" y="-281" on="0"/>
        <pt x="1327" y="-268" on="0"/>
        <pt x="1348" y="-258" on="1"/>
        <pt x="1397" y="-444" on="1"/>
        <pt x="1374" y="-457" on="0"/>
        <pt x="1266" y="-485" on="0"/>
        <pt x="1219" y="-485" on="1"/>
        <pt x="1122" y="-485" on="0"/>
        <pt x="979" y="-442" on="0"/>
        <pt x="883" y="-369" on="0"/>
        <pt x="836" y="-266" on="0"/>
        <pt x="836" y="-207" on="1"/>
        <pt x="836" y="-139" on="0"/>
        <pt x="891" y="-35" on="0"/>
        <pt x="928" y="-10" on="1"/>
        <pt x="928" y="274" on="1"/>
        <pt x="1044" y="274" on="1"/>
        <pt x="975" y="492" on="1"/>
        <pt x="510" y="492" on="1"/>
        <pt x="442" y="274" on="1"/>
        <pt x="602" y="274" on="1"/>
        <pt x="602" y="0" on="1"/>
        <pt x="27" y="0" on="1"/>
      </contour>
      <contour>
        <pt x="588" y="748" on="1"/>
        <pt x="895" y="748" on="1"/>
        <pt x="741" y="1241" on="1"/>
      </contour>
    </TTGlyph>
    <TTGlyph name="Aring" xMin="27" yMin="0" xMax="1468" yMax="2025">
      <contour>
        <pt x="893" y="274" on="1"/>
        <pt x="1044" y="274" on="1"/>
        <pt x="975" y="492" on="1"/>
        <pt x="510" y="492" on="1"/>
        <pt x="442" y="274" on="1"/>
        <pt x="602" y="274" on="1"/>
        <pt x="602" y="0" on="1"/>
        <pt x="27" y="0" on="1"/>
        <pt x="27" y="274" on="1"/>
        <pt x="139" y="274" on="1"/>
        <pt x="537" y="1466" on="1"/>
        <pt x="485" y="1511" on="0"/>
        <pt x="426" y="1636" on="0"/>
        <pt x="426" y="1708" on="1"/>
        <pt x="426" y="1774" on="0"/>
        <pt x="477" y="1888" on="0"/>
        <pt x="563" y="1974" on="0"/>
        <pt x="678" y="2025" on="0"/>
        <pt x="743" y="2025" on="1"/>
        <pt x="809" y="2025" on="0"/>
        <pt x="924" y="1974" on="0"/>
        <pt x="1010" y="1888" on="0"/>
        <pt x="1061" y="1774" on="0"/>
        <pt x="1061" y="1708" on="1"/>
        <pt x="1061" y="1642" on="0"/>
        <pt x="1010" y="1524" on="0"/>
        <pt x="965" y="1481" on="1"/>
        <pt x="1358" y="274" on="1"/>
        <pt x="1468" y="274" on="1"/>
        <pt x="1468" y="0" on="1"/>
        <pt x="893" y="0" on="1"/>
      </contour>
      <contour>
        <pt x="588" y="748" on="1"/>
        <pt x="895" y="748" on="1"/>
        <pt x="741" y="1241" on="1"/>
      </contour>
      <contour>
        <pt x="618" y="1708" on="1"/>
        <pt x="618" y="1655" on="0"/>
        <pt x="690" y="1583" on="0"/>
        <pt x="743" y="1583" on="1"/>
        <pt x="797" y="1583" on="0"/>
        <pt x="866" y="1655" on="0"/>
        <pt x="866" y="1708" on="1"/>
        <pt x="866" y="1761" on="0"/>
        <pt x="797" y="1831" on="0"/>
        <pt x="743" y="1831" on="1"/>
        <pt x="690" y="1831" on="0"/>
        <pt x="618" y="1761" on="0"/>
        <pt x="618" y="1708" on="1"/>
      </contour>
    </TTGlyph>
    <TTGlyph name="Atilde" xMin="27" yMin="0" xMax="1468" yMax="1958">
      <component glyphName="A" x="0" y="0" flags="0x204"/>
      <component glyphName="tilde" x="276" y="479" flags="0x4"/>
    </TTGlyph>
    <TTGlyph name="B" xMin="113" yMin="0" xMax="1333" yMax="1518">
      <contour>
        <pt x="113" y="274" on="1"/>
        <pt x="268" y="274" on="1"/>
        <pt x="268" y="1241" on="1"/>
        <pt x="113" y="1241" on="1"/>
        <pt x="113" y="1518" on="1"/>
        <pt x="852" y="1516" on="1"/>
        <pt x="955" y="1516" on="0"/>
        <pt x="1126" y="1443" on="0"/>
        <pt x="1250" y="1318" on="0"/>
        <pt x="1319" y="1151" on="0"/>
        <pt x="1319" y="1057" on="1"/>
        <pt x="1319" y="947" on="0"/>
        <pt x="1242" y="803" on="0"/>
        <pt x="1171" y="759" on="1"/>
        <pt x="1246" y="711" on="0"/>
        <pt x="1333" y="570" on="0"/>
        <pt x="1333" y="469" on="1"/>
        <pt x="1333" y="366" on="0"/>
        <pt x="1262" y="194" on="0"/>
        <pt x="1139" y="69" on="0"/>
        <pt x="971" y="0" on="0"/>
        <pt x="874" y="0" on="1"/>
        <pt x="113" y="0" on="1"/>
      </contour>
      <contour>
        <pt x="600" y="627" on="1"/>
        <pt x="600" y="274" on="1"/>
        <pt x="852" y="274" on="1"/>
        <pt x="881" y="274" on="0"/>
        <pt x="932" y="304" on="0"/>
        <pt x="969" y="353" on="0"/>
        <pt x="991" y="418" on="0"/>
        <pt x="991" y="453" on="1"/>
        <pt x="991" y="490" on="0"/>
        <pt x="969" y="553" on="0"/>
        <pt x="931" y="600" on="0"/>
        <pt x="880" y="627" on="0"/>
        <pt x="852" y="627" on="1"/>
      </contour>
      <contour>
        <pt x="600" y="1241" on="1"/>
        <pt x="600" y="901" on="1"/>
        <pt x="838" y="901" on="1"/>
        <pt x="866" y="901" on="0"/>
        <pt x="916" y="929" on="0"/>
        <pt x="953" y="976" on="0"/>
        <pt x="975" y="1035" on="0"/>
        <pt x="975" y="1067" on="1"/>
        <pt x="975" y="1098" on="0"/>
        <pt x="953" y="1160" on="0"/>
        <pt x="916" y="1210" on="0"/>
        <pt x="866" y="1241" on="0"/>
        <pt x="838" y="1241" on="1"/>
      </contour>
    </TTGlyph>
    <TTGlyph name="C" xMin="66" yMin="-27" xMax="1452" yMax="1544">
      <contour>
        <pt x="1106" y="1055" on="1"/>
        <pt x="1050" y="1135" on="0"/>
        <pt x="960" y="1202" on="0"/>
        <pt x="856" y="1231" on="0"/>
        <pt x="799" y="1231" on="1"/>
        <pt x="715" y="1231" on="0"/>
        <pt x="571" y="1156" on="0"/>
        <pt x="466" y="1027" on="0"/>
        <pt x="406" y="856" on="0"/>
        <pt x="406" y="760" on="1"/>
        <pt x="406" y="663" on="0"/>
        <pt x="465" y="492" on="0"/>
        <pt x="569" y="364" on="0"/>
        <pt x="713" y="289" on="0"/>
        <pt x="799" y="289" on="1"/>
        <pt x="859" y="289" on="0"/>
        <pt x="963" y="328" on="0"/>
        <pt x="1048" y="392" on="0"/>
        <pt x="1112" y="475" on="0"/>
        <pt x="1130" y="520" on="1"/>
        <pt x="1452" y="430" on="1"/>
        <pt x="1421" y="332" on="0"/>
        <pt x="1301" y="165" on="0"/>
        <pt x="1132" y="43" on="0"/>
        <pt x="921" y="-27" on="0"/>
        <pt x="799" y="-27" on="1"/>
        <pt x="696" y="-27" on="0"/>
        <pt x="508" y="29" on="0"/>
        <pt x="345" y="131" on="0"/>
        <pt x="212" y="275" on="0"/>
        <pt x="118" y="450" on="0"/>
        <pt x="66" y="651" on="0"/>
        <pt x="66" y="760" on="1"/>
        <pt x="66" y="923" on="0"/>
        <pt x="180" y="1208" on="0"/>
        <pt x="378" y="1421" on="0"/>
        <pt x="645" y="1544" on="0"/>
        <pt x="799" y="1544" on="1"/>
        <pt x="922" y="1544" on="0"/>
        <pt x="1090" y="1483" on="0"/>
        <pt x="1191" y="1393" on="1"/>
        <pt x="1415" y="1393" on="1"/>
        <pt x="1415" y="1055" on="1"/>
      </contour>
    </TTGlyph>
    <TTGlyph name="Cacute" xMin="66" yMin="-27" xMax="2204" yMax="2447">
      <component glyphName="C" x="0" y="0" flags="0x204"/>
      <component glyphName="acute" x="649" y="479" flags="0x4"/>
    </TTGlyph>
    <TTGlyph name="Ccaron" xMin="66" yMin="-27" xMax="1452" yMax="1941">
      <component glyphName="C" x="0" y="0" flags="0x204"/>
      <component glyphName="caron" x="317" y="479" flags="0x4"/>
    </TTGlyph>
    <TTGlyph name="Ccedilla" xMin="66" yMin="-455" xMax="1452" yMax="1544">
      <component glyphName="C" x="0" y="0" flags="0x204"/>
      <component glyphName="cedilla" x="293" y="0" flags="0x4"/>
    </TTGlyph>
    <TTGlyph name="D" xMin="82" yMin="0" xMax="1407" yMax="1516">
      <contour>
        <pt x="82" y="1516" on="1"/>
        <pt x="664" y="1516" on="1"/>
        <pt x="768" y="1516" on="0"/>
        <pt x="959" y="1462" on="0"/>
        <pt x="1124" y="1364" on="0"/>
        <pt x="1259" y="1227" on="0"/>
        <pt x="1355" y="1059" on="0"/>
        <pt x="1407" y="865" on="0"/>
        <pt x="1407" y="760" on="1"/>
        <pt x="1407" y="655" on="0"/>
        <pt x="1355" y="461" on="0"/>
        <pt x="1259" y="292" on="0"/>
        <pt x="1124" y="153" on="0"/>
        <pt x="959" y="54" on="0"/>
        <pt x="768" y="0" on="0"/>
        <pt x="664" y="0" on="1"/>
        <pt x="82" y="0" on="1"/>
        <pt x="82" y="274" on="1"/>
        <pt x="203" y="274" on="1"/>
        <pt x="203" y="1241" on="1"/>
        <pt x="82" y="1241" on="1"/>
      </contour>
      <contour>
        <pt x="535" y="1241" on="1"/>
        <pt x="535" y="274" on="1"/>
        <pt x="662" y="274" on="1"/>
        <pt x="743" y="274" on="0"/>
        <pt x="887" y="350" on="0"/>
        <pt x="993" y="481" on="0"/>
        <pt x="1055" y="658" on="0"/>
        <pt x="1055" y="760" on="1"/>
        <pt x="1055" y="861" on="0"/>
        <pt x="993" y="1037" on="0"/>
        <pt x="887" y="1167" on="0"/>
        <pt x="743" y="1241" on="0"/>
        <pt x="662" y="1241" on="1"/>
      </contour>
    </TTGlyph>
    <TTGlyph name="D_E" xMin="82" yMin="0" xMax="2001" yMax="1516">
      <contour>
        <pt x="825" y="0" on="1"/>
        <pt x="670" y="0" on="0"/>
        <pt x="397" y="119" on="0"/>
        <pt x="197" y="326" on="0"/>
        <pt x="82" y="602" on="0"/>
        <pt x="82" y="760" on="1"/>
        <pt x="82" y="918" on="0"/>
        <pt x="197" y="1192" on="0"/>
        <pt x="397" y="1397" on="0"/>
        <pt x="670" y="1516" on="0"/>
        <pt x="825" y="1516" on="1"/>
        <pt x="2001" y="1516" on="1"/>
        <pt x="2001" y="999" on="1"/>
        <pt x="1675" y="999" on="1"/>
        <pt x="1675" y="1239" on="1"/>
        <pt x="1286" y="1239" on="1"/>
        <pt x="1286" y="915" on="1"/>
        <pt x="1587" y="915" on="1"/>
        <pt x="1587" y="625" on="1"/>
        <pt x="1286" y="625" on="1"/>
        <pt x="1286" y="274" on="1"/>
        <pt x="1675" y="274" on="1"/>
        <pt x="1675" y="543" on="1"/>
        <pt x="2001" y="543" on="1"/>
        <pt x="2001" y="0" on="1"/>
      </contour>
      <contour>
        <pt x="434" y="657" on="0"/>
        <pt x="496" y="481" on="0"/>
        <pt x="602" y="350" on="0"/>
        <pt x="745" y="274" on="0"/>
        <pt x="827" y="274" on="1"/>
        <pt x="954" y="274" on="1"/>
        <pt x="954" y="1241" on="1"/>
        <pt x="827" y="1241" on="1"/>
        <pt x="745" y="1241" on="0"/>
        <pt x="602" y="1167" on="0"/>
        <pt x="496" y="1038" on="0"/>
        <pt x="434" y="860" on="0"/>
        <pt x="434" y="760" on="1"/>
      </contour>
    </TTGlyph>
    <TTGlyph name="Dcaron" xMin="82" yMin="0" xMax="1566" yMax="2338">
      <component glyphName="D" x="0" y="0" flags="0x204"/>
      <component glyphName="caron" x="238" y="397" flags="0x4"/>
    </TTGlyph>
    <TTGlyph name="Dcroat" xMin="65" yMin="0" xMax="1407" yMax="1516">
      <component glyphName="Eth" x="0" y="0" flags="0x204"/>
    </TTGlyph>
    <TTGlyph name="E" xMin="113" yMin="0" xMax="1319" yMax="1516">
      <contour>
        <pt x="113" y="1516" on="1"/>
        <pt x="1319" y="1516" on="1"/>
        <pt x="1319" y="999" on="1"/>
        <pt x="993" y="999" on="1"/>
        <pt x="993" y="1214" on="1"/>
        <pt x="604" y="1214" on="1"/>
        <pt x="604" y="915" on="1"/>
        <pt x="905" y="915" on="1"/>
        <pt x="905" y="625" on="1"/>
        <pt x="604" y="625" on="1"/>
        <pt x="604" y="274" on="1"/>
        <pt x="993" y="274" on="1"/>
        <pt x="993" y="543" on="1"/>
        <pt x="1319" y="543" on="1"/>
        <pt x="1319" y="0" on="1"/>
        <pt x="113" y="0" on="1"/>
        <pt x="113" y="274" on="1"/>
        <pt x="272" y="274" on="1"/>
        <pt x="272" y="1214" on="1"/>
        <pt x="113" y="1214" on="1"/>
      </contour>
    </TTGlyph>
    <TTGlyph name="Eacute" xMin="113" yMin="0" xMax="3273" yMax="2926">
      <component glyphName="E" x="0" y="0" flags="0x204"/>
      <component glyphName="acute" x="598" y="479" flags="0x4"/>
    </TTGlyph>
    <TTGlyph name="Ecaron" xMin="113" yMin="0" xMax="1832" yMax="2817">
      <component glyphName="E" x="0" y="0" flags="0x204"/>
      <component glyphName="caron" x="266" y="479" flags="0x4"/>
    </TTGlyph>
    <TTGlyph name="Ecircumflex" xMin="113" yMin="0" xMax="1546" yMax="2459">
      <component glyphName="E" x="0" y="0" flags="0x204"/>
      <component glyphName="circumflex" x="299" y="479" flags="0x4"/>
    </TTGlyph>
    <TTGlyph name="Edieresis" xMin="113" yMin="0" xMax="1493" yMax="2475">
      <component glyphName="E" x="0" y="0" flags="0x204"/>
      <component glyphName="dieresis" x="279" y="477" flags="0x4"/>
    </TTGlyph>
    <TTGlyph name="Edotaccent" xMin="113" yMin="0" xMax="1319" yMax="2027">
      <component glyphName="E" x="0" y="0" flags="0x204"/>
      <component glyphName="dotaccent" x="473" y="479" flags="0x4"/>
    </TTGlyph>
    <TTGlyph name="Egrave" xMin="113" yMin="0" xMax="1319" yMax="2447">
      <component glyphName="E" x="0" y="0" flags="0x204"/>
      <component glyphName="grave" x="199" y="479" flags="0x4"/>
    </TTGlyph>
    <TTGlyph name="Emacron" xMin="113" yMin="0" xMax="1504" yMax="2349">
      <component glyphName="E" x="0" y="0" flags="0x204"/>
      <component glyphName="macron" x="319" y="479" flags="0x4"/>
    </TTGlyph>
    <TTGlyph name="Eogonek" xMin="113" yMin="-471" xMax="1319" yMax="1516">
      <contour>
        <pt x="113" y="1516" on="1"/>
        <pt x="1319" y="1516" on="1"/>
        <pt x="1319" y="999" on="1"/>
        <pt x="993" y="999" on="1"/>
        <pt x="993" y="1214" on="1"/>
        <pt x="604" y="1214" on="1"/>
        <pt x="604" y="915" on="1"/>
        <pt x="905" y="915" on="1"/>
        <pt x="905" y="625" on="1"/>
        <pt x="604" y="625" on="1"/>
        <pt x="604" y="274" on="1"/>
        <pt x="993" y="274" on="1"/>
        <pt x="993" y="543" on="1"/>
        <pt x="1319" y="543" on="1"/>
        <pt x="1319" y="0" on="1"/>
        <pt x="1296" y="0" on="1"/>
        <pt x="1194" y="-53" on="0"/>
        <pt x="1085" y="-147" on="0"/>
        <pt x="1085" y="-215" on="1"/>
        <pt x="1085" y="-254" on="0"/>
        <pt x="1135" y="-283" on="0"/>
        <pt x="1157" y="-283" on="1"/>
        <pt x="1196" y="-283" on="0"/>
        <pt x="1249" y="-270" on="0"/>
        <pt x="1270" y="-260" on="1"/>
        <pt x="1319" y="-430" on="1"/>
        <pt x="1296" y="-442" on="0"/>
        <pt x="1194" y="-471" on="0"/>
        <pt x="1141" y="-471" on="1"/>
        <pt x="1079" y="-471" on="0"/>
        <pt x="975" y="-442" on="0"/>
        <pt x="895" y="-389" on="0"/>
        <pt x="850" y="-311" on="0"/>
        <pt x="850" y="-260" on="1"/>
        <pt x="850" y="-174" on="0"/>
        <pt x="934" y="-45" on="0"/>
        <pt x="997" y="0" on="1"/>
        <pt x="113" y="0" on="1"/>
        <pt x="113" y="274" on="1"/>
        <pt x="272" y="274" on="1"/>
        <pt x="272" y="1214" on="1"/>
        <pt x="113" y="1214" on="1"/>
      </contour>
    </TTGlyph>
    <TTGlyph name="Eth" xMin="65" yMin="0" xMax="1407" yMax="1516">
      <contour>
        <pt x="82" y="1516" on="1"/>
        <pt x="664" y="1516" on="1"/>
        <pt x="768" y="1516" on="0"/>
        <pt x="959" y="1462" on="0"/>
        <pt x="1124" y="1364" on="0"/>
        <pt x="1259" y="1227" on="0"/>
        <pt x="1355" y="1059" on="0"/>
        <pt x="1407" y="865" on="0"/>
        <pt x="1407" y="760" on="1"/>
        <pt x="1407" y="655" on="0"/>
        <pt x="1355" y="461" on="0"/>
        <pt x="1259" y="292" on="0"/>
        <pt x="1124" y="153" on="0"/>
        <pt x="959" y="54" on="0"/>
        <pt x="768" y="0" on="0"/>
        <pt x="664" y="0" on="1"/>
        <pt x="82" y="0" on="1"/>
        <pt x="82" y="274" on="1"/>
        <pt x="203" y="274" on="1"/>
        <pt x="203" y="621" on="1"/>
        <pt x="65" y="621" on="1"/>
        <pt x="65" y="895" on="1"/>
        <pt x="203" y="895" on="1"/>
        <pt x="203" y="1241" on="1"/>
        <pt x="82" y="1241" on="1"/>
      </contour>
      <contour>
        <pt x="535" y="621" on="1"/>
        <pt x="535" y="274" on="1"/>
        <pt x="662" y="274" on="1"/>
        <pt x="743" y="274" on="0"/>
        <pt x="887" y="350" on="0"/>
        <pt x="993" y="481" on="0"/>
        <pt x="1055" y="658" on="0"/>
        <pt x="1055" y="760" on="1"/>
        <pt x="1055" y="861" on="0"/>
        <pt x="993" y="1037" on="0"/>
        <pt x="887" y="1167" on="0"/>
        <pt x="743" y="1241" on="0"/>
        <pt x="662" y="1241" on="1"/>
        <pt x="535" y="1241" on="1"/>
        <pt x="535" y="895" on="1"/>
        <pt x="692" y="895" on="1"/>
        <pt x="692" y="621" on="1"/>
      </contour>
    </TTGlyph>
    <TTGlyph name="Euro" xMin="66" yMin="-27" xMax="1452" yMax="1544">
      <contour>
        <pt x="1106" y="1055" on="1"/>
        <pt x="1065" y="1126" on="0"/>
        <pt x="903" y="1231" on="0"/>
        <pt x="799" y="1231" on="1"/>
        <pt x="750" y="1231" on="0"/>
        <pt x="659" y="1204" on="0"/>
        <pt x="580" y="1155" on="0"/>
        <pt x="510" y="1087" on="0"/>
        <pt x="483" y="1044" on="1"/>
        <pt x="954" y="1044" on="1"/>
        <pt x="807" y="760" on="1"/>
        <pt x="406" y="760" on="1"/>
        <pt x="406" y="743" on="0"/>
        <pt x="406" y="715" on="0"/>
        <pt x="408" y="698" on="1"/>
        <pt x="901" y="698" on="1"/>
        <pt x="754" y="414" on="1"/>
        <pt x="528" y="414" on="1"/>
        <pt x="580" y="354" on="0"/>
        <pt x="717" y="289" on="0"/>
        <pt x="799" y="289" on="1"/>
        <pt x="858" y="289" on="0"/>
        <pt x="963" y="328" on="0"/>
        <pt x="1049" y="391" on="0"/>
        <pt x="1112" y="475" on="0"/>
        <pt x="1130" y="520" on="1"/>
        <pt x="1452" y="430" on="1"/>
        <pt x="1421" y="332" on="0"/>
        <pt x="1300" y="166" on="0"/>
        <pt x="1133" y="43" on="0"/>
        <pt x="922" y="-27" on="0"/>
        <pt x="799" y="-27" on="1"/>
        <pt x="645" y="-27" on="0"/>
        <pt x="377" y="96" on="0"/>
        <pt x="180" y="309" on="0"/>
        <pt x="66" y="596" on="0"/>
        <pt x="66" y="760" on="1"/>
        <pt x="66" y="922" on="0"/>
        <pt x="180" y="1208" on="0"/>
        <pt x="377" y="1421" on="0"/>
        <pt x="645" y="1544" on="0"/>
        <pt x="799" y="1544" on="1"/>
        <pt x="858" y="1544" on="0"/>
        <pt x="981" y="1522" on="0"/>
        <pt x="1094" y="1481" on="0"/>
        <pt x="1198" y="1425" on="0"/>
        <pt x="1239" y="1393" on="1"/>
        <pt x="1415" y="1393" on="1"/>
        <pt x="1415" y="1055" on="1"/>
      </contour>
    </TTGlyph>
    <TTGlyph name="F" xMin="113" yMin="0" xMax="1286" yMax="1516">
      <contour>
        <pt x="113" y="1516" on="1"/>
        <pt x="1286" y="1516" on="1"/>
        <pt x="1286" y="999" on="1"/>
        <pt x="961" y="999" on="1"/>
        <pt x="961" y="1212" on="1"/>
        <pt x="602" y="1212" on="1"/>
        <pt x="602" y="893" on="1"/>
        <pt x="913" y="893" on="1"/>
        <pt x="913" y="602" on="1"/>
        <pt x="602" y="602" on="1"/>
        <pt x="602" y="274" on="1"/>
        <pt x="762" y="274" on="1"/>
        <pt x="762" y="0" on="1"/>
        <pt x="113" y="0" on="1"/>
        <pt x="113" y="274" on="1"/>
        <pt x="270" y="274" on="1"/>
        <pt x="270" y="1212" on="1"/>
        <pt x="113" y="1212" on="1"/>
      </contour>
    </TTGlyph>
    <TTGlyph name="G" xMin="66" yMin="-13" xMax="1511" yMax="1542">
      <contour>
        <pt x="1212" y="0" on="1"/>
        <pt x="1212" y="260" on="1"/>
        <pt x="1150" y="151" on="0"/>
        <pt x="1032" y="49" on="0"/>
        <pt x="883" y="-13" on="0"/>
        <pt x="758" y="-12" on="1"/>
        <pt x="696" y="-11" on="0"/>
        <pt x="572" y="16" on="0"/>
        <pt x="456" y="65" on="0"/>
        <pt x="345" y="134" on="0"/>
        <pt x="300" y="179" on="1"/>
        <pt x="189" y="291" on="0"/>
        <pt x="66" y="586" on="0"/>
        <pt x="66" y="760" on="1"/>
        <pt x="66" y="867" on="0"/>
        <pt x="118" y="1067" on="0"/>
        <pt x="212" y="1241" on="0"/>
        <pt x="345" y="1384" on="0"/>
        <pt x="508" y="1486" on="0"/>
        <pt x="696" y="1542" on="0"/>
        <pt x="799" y="1542" on="1"/>
        <pt x="917" y="1542" on="0"/>
        <pt x="1091" y="1479" on="0"/>
        <pt x="1191" y="1393" on="1"/>
        <pt x="1415" y="1393" on="1"/>
        <pt x="1415" y="1055" on="1"/>
        <pt x="1106" y="1055" on="1"/>
        <pt x="1060" y="1126" on="0"/>
        <pt x="979" y="1190" on="0"/>
        <pt x="884" y="1232" on="0"/>
        <pt x="799" y="1232" on="1"/>
        <pt x="715" y="1232" on="0"/>
        <pt x="571" y="1156" on="0"/>
        <pt x="466" y="1027" on="0"/>
        <pt x="406" y="852" on="0"/>
        <pt x="406" y="760" on="1"/>
        <pt x="406" y="669" on="0"/>
        <pt x="460" y="505" on="0"/>
        <pt x="570" y="374" on="0"/>
        <pt x="716" y="304" on="0"/>
        <pt x="799" y="304" on="1"/>
        <pt x="905" y="304" on="0"/>
        <pt x="1063" y="428" on="0"/>
        <pt x="1098" y="535" on="1"/>
        <pt x="809" y="535" on="1"/>
        <pt x="809" y="809" on="1"/>
        <pt x="1511" y="809" on="1"/>
        <pt x="1511" y="0" on="1"/>
      </contour>
    </TTGlyph>
    <TTGlyph name="Gamma" xMin="113" yMin="0" xMax="1298" yMax="1516">
      <component glyphName="uni0413" x="0" y="0" flags="0x204"/>
    </TTGlyph>
    <TTGlyph name="Gbreve" xMin="66" yMin="-13" xMax="1559" yMax="2439">
      <component glyphName="G" x="0" y="0" flags="0x204"/>
      <component glyphName="breve" x="336" y="479" flags="0x4"/>
    </TTGlyph>
    <TTGlyph name="Gcommaaccent" xMin="66" yMin="-471" xMax="1511" yMax="1542">
      <component glyphName="G" x="0" y="0" flags="0x204"/>
      <component glyphName="commabelow" x="592" y="0" flags="0x4"/>
    </TTGlyph>
    <TTGlyph name="H" xMin="113" yMin="0" xMax="1778" yMax="1516">
      <contour>
        <pt x="1128" y="1516" on="1"/>
        <pt x="1778" y="1516" on="1"/>
        <pt x="1778" y="1241" on="1"/>
        <pt x="1618" y="1241" on="1"/>
        <pt x="1618" y="274" on="1"/>
        <pt x="1778" y="274" on="1"/>
        <pt x="1778" y="0" on="1"/>
        <pt x="1128" y="0" on="1"/>
        <pt x="1128" y="274" on="1"/>
        <pt x="1286" y="274" on="1"/>
        <pt x="1286" y="662" on="1"/>
        <pt x="602" y="662" on="1"/>
        <pt x="602" y="274" on="1"/>
        <pt x="762" y="274" on="1"/>
        <pt x="762" y="0" on="1"/>
        <pt x="113" y="0" on="1"/>
        <pt x="113" y="274" on="1"/>
        <pt x="270" y="274" on="1"/>
        <pt x="270" y="1241" on="1"/>
        <pt x="113" y="1241" on="1"/>
        <pt x="113" y="1516" on="1"/>
        <pt x="762" y="1516" on="1"/>
        <pt x="762" y="1241" on="1"/>
        <pt x="602" y="1241" on="1"/>
        <pt x="602" y="926" on="1"/>
        <pt x="1286" y="926" on="1"/>
        <pt x="1286" y="1241" on="1"/>
        <pt x="1128" y="1241" on="1"/>
      </contour>
    </TTGlyph>
    <TTGlyph name="I" xMin="113" yMin="0" xMax="762" yMax="1516">
      <contour>
        <pt x="113" y="1516" on="1"/>
        <pt x="762" y="1516" on="1"/>
        <pt x="762" y="1242" on="1"/>
        <pt x="602" y="1242" on="1"/>
        <pt x="602" y="274" on="1"/>
        <pt x="762" y="274" on="1"/>
        <pt x="762" y="0" on="1"/>
        <pt x="113" y="0" on="1"/>
        <pt x="113" y="274" on="1"/>
        <pt x="270" y="274" on="1"/>
        <pt x="270" y="1242" on="1"/>
        <pt x="113" y="1242" on="1"/>
      </contour>
    </TTGlyph>
    <TTGlyph name="Iacute" xMin="113" yMin="0" xMax="3998" yMax="3405">
      <component glyphName="I" x="0" y="0" flags="0x4"/>
      <component glyphName="acute" x="287" y="479" flags="0x4"/>
    </TTGlyph>
    <TTGlyph name="Icircumflex" xMin="113" yMin="0" xMax="1674" yMax="2938">
      <component glyphName="I" x="0" y="0" flags="0x4"/>
      <component glyphName="circumflex" x="-11" y="479" flags="0x4"/>
    </TTGlyph>
    <TTGlyph name="Idieresis" xMin="83" yMin="0" xMax="777" yMax="1980">
      <component glyphName="I" x="0" y="0" flags="0x4"/>
      <component glyphName="dieresis.i" x="-32" y="477" flags="0x4"/>
    </TTGlyph>
    <TTGlyph name="Idotaccent" xMin="113" yMin="0" xMax="3614" yMax="3831">
      <component glyphName="I" x="0" y="0" flags="0x4"/>
      <component glyphName="dotaccent" x="162" y="479" flags="0x4"/>
    </TTGlyph>
    <TTGlyph name="Igrave" xMin="113" yMin="0" xMax="991" yMax="2926">
      <component glyphName="I" x="0" y="0" flags="0x4"/>
      <component glyphName="grave" x="-112" y="479" flags="0x4"/>
    </TTGlyph>
    <TTGlyph name="Imacron" xMin="113" yMin="0" xMax="1672" yMax="2828">
      <component glyphName="I" x="0" y="0" flags="0x4"/>
      <component glyphName="macron" x="8" y="479" flags="0x4"/>
    </TTGlyph>
    <TTGlyph name="Iogonek" xMin="119" yMin="-471" xMax="795" yMax="1516">
      <contour>
        <pt x="119" y="1516" on="1"/>
        <pt x="795" y="1516" on="1"/>
        <pt x="795" y="1241" on="1"/>
        <pt x="602" y="1241" on="1"/>
        <pt x="602" y="274" on="1"/>
        <pt x="795" y="274" on="1"/>
        <pt x="795" y="0" on="1"/>
        <pt x="770" y="0" on="1"/>
        <pt x="731" y="0" on="0"/>
        <pt x="645" y="-29" on="0"/>
        <pt x="571" y="-82" on="0"/>
        <pt x="522" y="-154" on="0"/>
        <pt x="522" y="-199" on="1"/>
        <pt x="522" y="-246" on="0"/>
        <pt x="582" y="-283" on="0"/>
        <pt x="610" y="-283" on="1"/>
        <pt x="641" y="-283" on="0"/>
        <pt x="692" y="-270" on="0"/>
        <pt x="713" y="-260" on="1"/>
        <pt x="762" y="-430" on="1"/>
        <pt x="739" y="-442" on="0"/>
        <pt x="637" y="-471" on="0"/>
        <pt x="584" y="-471" on="1"/>
        <pt x="453" y="-471" on="0"/>
        <pt x="293" y="-362" on="0"/>
        <pt x="293" y="-260" on="1"/>
        <pt x="293" y="-174" on="0"/>
        <pt x="377" y="-45" on="0"/>
        <pt x="440" y="0" on="1"/>
        <pt x="119" y="0" on="1"/>
        <pt x="119" y="274" on="1"/>
        <pt x="270" y="274" on="1"/>
        <pt x="270" y="1241" on="1"/>
        <pt x="119" y="1241" on="1"/>
      </contour>
    </TTGlyph>
    <TTGlyph name="J" xMin="10" yMin="-238" xMax="655" yMax="1516">
      <contour>
        <pt x="82" y="1516" on="1"/>
        <pt x="655" y="1516" on="1"/>
        <pt x="655" y="1212" on="1"/>
        <pt x="549" y="1212" on="1"/>
        <pt x="549" y="172" on="1"/>
        <pt x="527" y="91" on="0"/>
        <pt x="443" y="-44" on="0"/>
        <pt x="362" y="-154" on="0"/>
        <pt x="289" y="-238" on="1"/>
        <pt x="10" y="-223" on="1"/>
        <pt x="69" y="-133" on="0"/>
        <pt x="136" y="-16" on="0"/>
        <pt x="204" y="125" on="0"/>
        <pt x="223" y="205" on="1"/>
        <pt x="223" y="1212" on="1"/>
        <pt x="82" y="1212" on="1"/>
      </contour>
    </TTGlyph>
    <TTGlyph name="K" xMin="113" yMin="0" xMax="1604" yMax="1516">
      <contour>
        <pt x="113" y="1516" on="1"/>
        <pt x="762" y="1516" on="1"/>
        <pt x="762" y="1241" on="1"/>
        <pt x="602" y="1241" on="1"/>
        <pt x="602" y="800" on="1"/>
        <pt x="1087" y="1223" on="1"/>
        <pt x="1087" y="1516" on="1"/>
        <pt x="1604" y="1516" on="1"/>
        <pt x="1604" y="1221" on="1"/>
        <pt x="1491" y="1221" on="1"/>
        <pt x="986" y="787" on="1"/>
        <pt x="1470" y="297" on="1"/>
        <pt x="1593" y="297" on="1"/>
        <pt x="1593" y="0" on="1"/>
        <pt x="1090" y="0" on="1"/>
        <pt x="1090" y="297" on="1"/>
        <pt x="602" y="785" on="1"/>
        <pt x="602" y="274" on="1"/>
        <pt x="762" y="274" on="1"/>
        <pt x="762" y="0" on="1"/>
        <pt x="113" y="0" on="1"/>
        <pt x="113" y="274" on="1"/>
        <pt x="270" y="274" on="1"/>
        <pt x="270" y="1241" on="1"/>
        <pt x="113" y="1241" on="1"/>
      </contour>
    </TTGlyph>
    <TTGlyph name="Kcommaaccent" xMin="113" yMin="-471" xMax="1620" yMax="1516">
      <component glyphName="K" x="0" y="0" flags="0x204"/>
      <component glyphName="commabelow" x="600" y="0" flags="0x4"/>
    </TTGlyph>
    <TTGlyph name="L" xMin="113" yMin="0" xMax="1325" yMax="1516">
      <contour>
        <pt x="113" y="1516" on="1"/>
        <pt x="762" y="1516" on="1"/>
        <pt x="762" y="1241" on="1"/>
        <pt x="602" y="1241" on="1"/>
        <pt x="602" y="274" on="1"/>
        <pt x="932" y="274" on="1"/>
        <pt x="945" y="274" on="0"/>
        <pt x="970" y="289" on="0"/>
        <pt x="989" y="313" on="0"/>
        <pt x="1001" y="341" on="0"/>
        <pt x="1001" y="354" on="1"/>
        <pt x="1001" y="557" on="1"/>
        <pt x="1325" y="557" on="1"/>
        <pt x="1325" y="0" on="1"/>
        <pt x="113" y="0" on="1"/>
        <pt x="113" y="274" on="1"/>
        <pt x="270" y="274" on="1"/>
        <pt x="270" y="1241" on="1"/>
        <pt x="113" y="1241" on="1"/>
      </contour>
    </TTGlyph>
    <TTGlyph name="Lacute" xMin="113" yMin="0" xMax="4551" yMax="3802">
      <component glyphName="L" x="0" y="0" flags="0x204"/>
      <component glyphName="acute" x="281" y="397" flags="0x4"/>
    </TTGlyph>
    <TTGlyph name="Lcaron" xMin="113" yMin="0" xMax="2540" yMax="1547">
      <component glyphName="L" x="0" y="0" flags="0x4"/>
      <component glyphName="quotesingle" x="977" y="-46" flags="0x4"/>
    </TTGlyph>
    <TTGlyph name="Lcommaaccent" xMin="113" yMin="-471" xMax="2564" yMax="1516">
      <component glyphName="L" x="0" y="0" flags="0x204"/>
      <component glyphName="commabelow" x="446" y="0" flags="0x4"/>
    </TTGlyph>
    <TTGlyph name="Lslash" xMin="111" yMin="0" xMax="1325" yMax="1516">
      <contour>
        <pt x="113" y="1516" on="1"/>
        <pt x="762" y="1516" on="1"/>
        <pt x="762" y="1241" on="1"/>
        <pt x="602" y="1241" on="1"/>
        <pt x="602" y="967" on="1"/>
        <pt x="1092" y="1198" on="1"/>
        <pt x="1092" y="883" on="1"/>
        <pt x="602" y="651" on="1"/>
        <pt x="602" y="274" on="1"/>
        <pt x="932" y="274" on="1"/>
        <pt x="958" y="274" on="0"/>
        <pt x="1001" y="328" on="0"/>
        <pt x="1001" y="354" on="1"/>
        <pt x="1001" y="557" on="1"/>
        <pt x="1325" y="557" on="1"/>
        <pt x="1325" y="0" on="1"/>
        <pt x="113" y="0" on="1"/>
        <pt x="113" y="274" on="1"/>
        <pt x="270" y="274" on="1"/>
        <pt x="270" y="496" on="1"/>
        <pt x="111" y="420" on="1"/>
        <pt x="111" y="735" on="1"/>
        <pt x="270" y="811" on="1"/>
        <pt x="270" y="1241" on="1"/>
        <pt x="113" y="1241" on="1"/>
      </contour>
    </TTGlyph>
    <TTGlyph name="M" xMin="113" yMin="0" xMax="2232" yMax="1516">
      <contour>
        <pt x="113" y="274" on="1"/>
        <pt x="254" y="274" on="1"/>
        <pt x="254" y="1241" on="1"/>
        <pt x="113" y="1241" on="1"/>
        <pt x="113" y="1516" on="1"/>
        <pt x="737" y="1516" on="1"/>
        <pt x="1184" y="422" on="1"/>
        <pt x="1599" y="1516" on="1"/>
        <pt x="2232" y="1516" on="1"/>
        <pt x="2232" y="1241" on="1"/>
        <pt x="2091" y="1241" on="1"/>
        <pt x="2091" y="274" on="1"/>
        <pt x="2230" y="274" on="1"/>
        <pt x="2230" y="0" on="1"/>
        <pt x="1663" y="0" on="1"/>
        <pt x="1663" y="274" on="1"/>
        <pt x="1767" y="274" on="1"/>
        <pt x="1767" y="1146" on="1"/>
        <pt x="1313" y="18" on="1"/>
        <pt x="1032" y="18" on="1"/>
        <pt x="570" y="1116" on="1"/>
        <pt x="570" y="274" on="1"/>
        <pt x="683" y="274" on="1"/>
        <pt x="683" y="0" on="1"/>
        <pt x="113" y="0" on="1"/>
      </contour>
    </TTGlyph>
    <TTGlyph name="N" xMin="113" yMin="0" xMax="1647" yMax="1516">
      <contour>
        <pt x="1071" y="1516" on="1"/>
        <pt x="1647" y="1516" on="1"/>
        <pt x="1647" y="1241" on="1"/>
        <pt x="1524" y="1241" on="1"/>
        <pt x="1524" y="0" on="1"/>
        <pt x="1192" y="0" on="1"/>
        <pt x="561" y="980" on="1"/>
        <pt x="561" y="274" on="1"/>
        <pt x="688" y="274" on="1"/>
        <pt x="688" y="0" on="1"/>
        <pt x="113" y="0" on="1"/>
        <pt x="113" y="274" on="1"/>
        <pt x="238" y="274" on="1"/>
        <pt x="238" y="1241" on="1"/>
        <pt x="115" y="1241" on="1"/>
        <pt x="115" y="1516" on="1"/>
        <pt x="573" y="1516" on="1"/>
        <pt x="1200" y="523" on="1"/>
        <pt x="1200" y="1241" on="1"/>
        <pt x="1071" y="1241" on="1"/>
      </contour>
    </TTGlyph>
    <TTGlyph name="Nacute" xMin="113" yMin="0" xMax="5420" yMax="4732">
      <component glyphName="N" x="0" y="0" flags="0x204"/>
      <component glyphName="acute" x="711" y="479" flags="0x4"/>
    </TTGlyph>
    <TTGlyph name="Ncaron" xMin="113" yMin="0" xMax="2317" yMax="3296">
      <component glyphName="N" x="0" y="0" flags="0x204"/>
      <component glyphName="caron" x="379" y="479" flags="0x4"/>
    </TTGlyph>
    <TTGlyph name="Ncommaaccent" xMin="113" yMin="-471" xMax="3351" yMax="1516">
      <component glyphName="N" x="0" y="0" flags="0x204"/>
      <component glyphName="commabelow" x="623" y="0" flags="0x4"/>
    </TTGlyph>
    <TTGlyph name="Ntilde" xMin="113" yMin="0" xMax="1647" yMax="2437">
      <component glyphName="N" x="0" y="0" flags="0x204"/>
      <component glyphName="tilde" x="391" y="479" flags="0x4"/>
    </TTGlyph>
    <TTGlyph name="O" xMin="66" yMin="-27" xMax="1534" yMax="1544">
      <contour>
        <pt x="799" y="-27" on="1"/>
        <pt x="696" y="-27" on="0"/>
        <pt x="508" y="29" on="0"/>
        <pt x="345" y="131" on="0"/>
        <pt x="212" y="274" on="0"/>
        <pt x="118" y="449" on="0"/>
        <pt x="66" y="649" on="0"/>
        <pt x="66" y="758" on="1"/>
        <pt x="66" y="867" on="0"/>
        <pt x="118" y="1068" on="0"/>
        <pt x="212" y="1243" on="0"/>
        <pt x="345" y="1386" on="0"/>
        <pt x="508" y="1488" on="0"/>
        <pt x="696" y="1544" on="0"/>
        <pt x="799" y="1544" on="1"/>
        <pt x="902" y="1544" on="0"/>
        <pt x="1091" y="1488" on="0"/>
        <pt x="1254" y="1386" on="0"/>
        <pt x="1387" y="1243" on="0"/>
        <pt x="1482" y="1068" on="0"/>
        <pt x="1534" y="867" on="0"/>
        <pt x="1534" y="758" on="1"/>
        <pt x="1534" y="650" on="0"/>
        <pt x="1482" y="449" on="0"/>
        <pt x="1387" y="274" on="0"/>
        <pt x="1254" y="131" on="0"/>
        <pt x="1091" y="29" on="0"/>
        <pt x="902" y="-27" on="0"/>
      </contour>
      <contour>
        <pt x="799" y="287" on="1"/>
        <pt x="886" y="287" on="0"/>
        <pt x="1031" y="362" on="0"/>
        <pt x="1135" y="491" on="0"/>
        <pt x="1192" y="662" on="0"/>
        <pt x="1192" y="758" on="1"/>
        <pt x="1192" y="855" on="0"/>
        <pt x="1134" y="1027" on="0"/>
        <pt x="1029" y="1156" on="0"/>
        <pt x="885" y="1231" on="0"/>
        <pt x="799" y="1231" on="1"/>
        <pt x="713" y="1231" on="0"/>
        <pt x="569" y="1156" on="0"/>
        <pt x="465" y="1027" on="0"/>
        <pt x="406" y="855" on="0"/>
        <pt x="406" y="758" on="1"/>
        <pt x="406" y="662" on="0"/>
        <pt x="465" y="491" on="0"/>
        <pt x="569" y="362" on="0"/>
        <pt x="713" y="287" on="0"/>
      </contour>
    </TTGlyph>
    <TTGlyph name="OE" xMin="66" yMin="-27" xMax="2253" yMax="1544">
      <contour>
        <pt x="799" y="-27" on="1"/>
        <pt x="645" y="-27" on="0"/>
        <pt x="377" y="96" on="0"/>
        <pt x="180" y="309" on="0"/>
        <pt x="66" y="594" on="0"/>
        <pt x="66" y="758" on="1"/>
        <pt x="66" y="922" on="0"/>
        <pt x="180" y="1208" on="0"/>
        <pt x="377" y="1421" on="0"/>
        <pt x="645" y="1544" on="0"/>
        <pt x="799" y="1544" on="1"/>
        <pt x="911" y="1544" on="0"/>
        <pt x="1116" y="1477" on="0"/>
        <pt x="1204" y="1415" on="1"/>
        <pt x="1204" y="1516" on="1"/>
        <pt x="2253" y="1516" on="1"/>
        <pt x="2253" y="999" on="1"/>
        <pt x="1927" y="999" on="1"/>
        <pt x="1927" y="1214" on="1"/>
        <pt x="1538" y="1214" on="1"/>
        <pt x="1538" y="915" on="1"/>
        <pt x="1839" y="915" on="1"/>
        <pt x="1839" y="625" on="1"/>
        <pt x="1538" y="625" on="1"/>
        <pt x="1538" y="274" on="1"/>
        <pt x="1927" y="274" on="1"/>
        <pt x="1927" y="543" on="1"/>
        <pt x="2253" y="543" on="1"/>
        <pt x="2253" y="0" on="1"/>
        <pt x="1204" y="0" on="1"/>
        <pt x="1204" y="100" on="1"/>
        <pt x="1116" y="41" on="0"/>
        <pt x="911" y="-27" on="0"/>
        <pt x="799" y="-27" on="1"/>
      </contour>
      <contour>
        <pt x="799" y="287" on="1"/>
        <pt x="887" y="287" on="0"/>
        <pt x="1030" y="362" on="0"/>
        <pt x="1135" y="492" on="0"/>
        <pt x="1192" y="662" on="0"/>
        <pt x="1192" y="758" on="1"/>
        <pt x="1192" y="854" on="0"/>
        <pt x="1133" y="1026" on="0"/>
        <pt x="1028" y="1155" on="0"/>
        <pt x="885" y="1231" on="0"/>
        <pt x="799" y="1231" on="1"/>
        <pt x="713" y="1231" on="0"/>
        <pt x="569" y="1155" on="0"/>
        <pt x="465" y="1026" on="0"/>
        <pt x="406" y="854" on="0"/>
        <pt x="406" y="758" on="1"/>
        <pt x="406" y="662" on="0"/>
        <pt x="465" y="492" on="0"/>
        <pt x="569" y="362" on="0"/>
        <pt x="713" y="287" on="0"/>
        <pt x="799" y="287" on="1"/>
      </contour>
    </TTGlyph>
    <TTGlyph name="Oacute" xMin="66" yMin="-27" xMax="6659" yMax="5211">
      <component glyphName="O" x="0" y="0" flags="0x4"/>
      <component glyphName="acute" x="649" y="479" flags="0x4"/>
    </TTGlyph>
    <TTGlyph name="Ocircumflex" xMin="66" yMin="-27" xMax="2024" yMax="3417">
      <component glyphName="O" x="0" y="0" flags="0x4"/>
      <component glyphName="circumflex" x="350" y="479" flags="0x4"/>
    </TTGlyph>
    <TTGlyph name="Odieresis" xMin="66" yMin="-27" xMax="1942" yMax="2951">
      <component glyphName="O" x="0" y="0" flags="0x4"/>
      <component glyphName="dieresis" x="330" y="477" flags="0x4"/>
    </TTGlyph>
    <TTGlyph name="Ograve" xMin="66" yMin="-27" xMax="1534" yMax="3405">
      <component glyphName="O" x="0" y="0" flags="0x4"/>
      <component glyphName="grave" x="250" y="479" flags="0x4"/>
    </TTGlyph>
    <TTGlyph name="Ohm" xMin="106" yMin="0" xMax="1831" yMax="1548">
      <component glyphName="uni2126" x="0" y="0" flags="0x204"/>
    </TTGlyph>
    <TTGlyph name="Ohungarumlaut" xMin="66" yMin="-27" xMax="1534" yMax="1990">
      <component glyphName="O" x="0" y="0" flags="0x4"/>
      <component glyphName="hungarumlaut" x="193" y="479" flags="0x4"/>
    </TTGlyph>
    <TTGlyph name="Omacron" xMin="66" yMin="-27" xMax="1997" yMax="3307">
      <component glyphName="O" x="0" y="0" flags="0x4"/>
      <component glyphName="macron" x="371" y="479" flags="0x4"/>
    </TTGlyph>
    <TTGlyph name="Oslash" xMin="55" yMin="-34" xMax="1562" yMax="1604">
      <contour>
        <pt x="256" y="229" on="1"/>
        <pt x="166" y="334" on="0"/>
        <pt x="66" y="604" on="0"/>
        <pt x="66" y="758" on="1"/>
        <pt x="66" y="867" on="0"/>
        <pt x="118" y="1068" on="0"/>
        <pt x="212" y="1243" on="0"/>
        <pt x="345" y="1386" on="0"/>
        <pt x="508" y="1488" on="0"/>
        <pt x="696" y="1544" on="0"/>
        <pt x="799" y="1544" on="1"/>
        <pt x="904" y="1544" on="0"/>
        <pt x="1093" y="1486" on="0"/>
        <pt x="1176" y="1434" on="1"/>
        <pt x="1306" y="1604" on="1"/>
        <pt x="1562" y="1604" on="1"/>
        <pt x="1332" y="1301" on="1"/>
        <pt x="1426" y="1195" on="0"/>
        <pt x="1534" y="917" on="0"/>
        <pt x="1534" y="758" on="1"/>
        <pt x="1534" y="650" on="0"/>
        <pt x="1482" y="449" on="0"/>
        <pt x="1387" y="274" on="0"/>
        <pt x="1254" y="131" on="0"/>
        <pt x="1091" y="29" on="0"/>
        <pt x="902" y="-27" on="0"/>
        <pt x="799" y="-27" on="1"/>
        <pt x="691" y="-27" on="0"/>
        <pt x="496" y="34" on="0"/>
        <pt x="411" y="90" on="1"/>
        <pt x="317" y="-34" on="1"/>
        <pt x="55" y="-34" on="1"/>
      </contour>
      <contour>
        <pt x="799" y="287" on="1"/>
        <pt x="886" y="287" on="0"/>
        <pt x="1031" y="362" on="0"/>
        <pt x="1135" y="491" on="0"/>
        <pt x="1192" y="662" on="0"/>
        <pt x="1192" y="758" on="1"/>
        <pt x="1192" y="833" on="0"/>
        <pt x="1156" y="970" on="0"/>
        <pt x="1124" y="1028" on="1"/>
        <pt x="605" y="345" on="1"/>
        <pt x="647" y="317" on="0"/>
        <pt x="745" y="287" on="0"/>
      </contour>
      <contour>
        <pt x="406" y="758" on="1"/>
        <pt x="406" y="688" on="0"/>
        <pt x="437" y="559" on="0"/>
        <pt x="466" y="504" on="1"/>
        <pt x="982" y="1179" on="1"/>
        <pt x="941" y="1204" on="0"/>
        <pt x="850" y="1231" on="0"/>
        <pt x="799" y="1231" on="1"/>
        <pt x="713" y="1231" on="0"/>
        <pt x="569" y="1156" on="0"/>
        <pt x="465" y="1027" on="0"/>
        <pt x="406" y="855" on="0"/>
      </contour>
    </TTGlyph>
    <TTGlyph name="Otilde" xMin="66" yMin="-27" xMax="2312" yMax="2916">
      <component glyphName="O" x="0" y="0" flags="0x4"/>
      <component glyphName="tilde" x="330" y="479" flags="0x4"/>
    </TTGlyph>
    <TTGlyph name="P" xMin="113" yMin="0" xMax="1348" yMax="1516">
      <contour>
        <pt x="113" y="1516" on="1"/>
        <pt x="813" y="1516" on="1"/>
        <pt x="930" y="1516" on="0"/>
        <pt x="1126" y="1443" on="0"/>
        <pt x="1268" y="1319" on="0"/>
        <pt x="1348" y="1157" on="0"/>
        <pt x="1348" y="1069" on="1"/>
        <pt x="1348" y="963" on="0"/>
        <pt x="1285" y="778" on="0"/>
        <pt x="1153" y="642" on="0"/>
        <pt x="951" y="563" on="0"/>
        <pt x="813" y="563" on="1"/>
        <pt x="602" y="563" on="1"/>
        <pt x="602" y="274" on="1"/>
        <pt x="741" y="274" on="1"/>
        <pt x="741" y="0" on="1"/>
        <pt x="113" y="0" on="1"/>
        <pt x="113" y="274" on="1"/>
        <pt x="270" y="274" on="1"/>
        <pt x="270" y="1241" on="1"/>
        <pt x="113" y="1241" on="1"/>
      </contour>
      <contour>
        <pt x="602" y="1241" on="1"/>
        <pt x="602" y="834" on="1"/>
        <pt x="739" y="834" on="1"/>
        <pt x="853" y="834" on="0"/>
        <pt x="987" y="930" on="0"/>
        <pt x="987" y="1034" on="1"/>
        <pt x="987" y="1131" on="0"/>
        <pt x="861" y="1241" on="0"/>
        <pt x="739" y="1241" on="1"/>
      </contour>
    </TTGlyph>
    <TTGlyph name="Pi" xMin="113" yMin="0" xMax="1716" yMax="1516">
      <component glyphName="uni041F" x="0" y="0" flags="0x4"/>
    </TTGlyph>
    <TTGlyph name="Q" xMin="66" yMin="-395" xMax="1573" yMax="1544">
      <contour>
        <pt x="659" y="-12" on="1"/>
        <pt x="531" y="14" on="0"/>
        <pt x="314" y="153" on="0"/>
        <pt x="155" y="357" on="0"/>
        <pt x="66" y="614" on="0"/>
        <pt x="66" y="758" on="1"/>
        <pt x="66" y="867" on="0"/>
        <pt x="118" y="1068" on="0"/>
        <pt x="212" y="1243" on="0"/>
        <pt x="345" y="1386" on="0"/>
        <pt x="508" y="1488" on="0"/>
        <pt x="696" y="1544" on="0"/>
        <pt x="799" y="1544" on="1"/>
        <pt x="902" y="1544" on="0"/>
        <pt x="1091" y="1488" on="0"/>
        <pt x="1254" y="1386" on="0"/>
        <pt x="1387" y="1243" on="0"/>
        <pt x="1482" y="1068" on="0"/>
        <pt x="1534" y="867" on="0"/>
        <pt x="1534" y="758" on="1"/>
        <pt x="1534" y="612" on="0"/>
        <pt x="1442" y="352" on="0"/>
        <pt x="1279" y="146" on="0"/>
        <pt x="1055" y="8" on="0"/>
        <pt x="924" y="-15" on="1"/>
        <pt x="955" y="-28" on="0"/>
        <pt x="1016" y="-59" on="0"/>
        <pt x="1078" y="-86" on="0"/>
        <pt x="1139" y="-105" on="0"/>
        <pt x="1171" y="-106" on="1"/>
        <pt x="1202" y="-106" on="0"/>
        <pt x="1261" y="-90" on="0"/>
        <pt x="1309" y="-56" on="0"/>
        <pt x="1344" y="-2" on="0"/>
        <pt x="1350" y="37" on="1"/>
        <pt x="1573" y="-74" on="1"/>
        <pt x="1564" y="-147" on="0"/>
        <pt x="1499" y="-265" on="0"/>
        <pt x="1397" y="-349" on="0"/>
        <pt x="1267" y="-395" on="0"/>
        <pt x="1194" y="-395" on="1"/>
        <pt x="1135" y="-395" on="0"/>
        <pt x="1016" y="-350" on="0"/>
        <pt x="905" y="-297" on="0"/>
        <pt x="807" y="-252" on="0"/>
        <pt x="770" y="-252" on="1"/>
        <pt x="754" y="-252" on="0"/>
        <pt x="729" y="-251" on="0"/>
        <pt x="705" y="-252" on="0"/>
        <pt x="676" y="-257" on="0"/>
        <pt x="657" y="-264" on="1"/>
      </contour>
      <contour>
        <pt x="799" y="287" on="1"/>
        <pt x="886" y="287" on="0"/>
        <pt x="1031" y="362" on="0"/>
        <pt x="1135" y="491" on="0"/>
        <pt x="1192" y="662" on="0"/>
        <pt x="1192" y="758" on="1"/>
        <pt x="1192" y="855" on="0"/>
        <pt x="1134" y="1027" on="0"/>
        <pt x="1029" y="1156" on="0"/>
        <pt x="885" y="1231" on="0"/>
        <pt x="799" y="1231" on="1"/>
        <pt x="713" y="1231" on="0"/>
        <pt x="569" y="1156" on="0"/>
        <pt x="465" y="1027" on="0"/>
        <pt x="406" y="855" on="0"/>
        <pt x="406" y="758" on="1"/>
        <pt x="406" y="662" on="0"/>
        <pt x="465" y="491" on="0"/>
        <pt x="569" y="362" on="0"/>
        <pt x="713" y="287" on="0"/>
      </contour>
    </TTGlyph>
    <TTGlyph name="R" xMin="113" yMin="0" xMax="1489" yMax="1516">
      <contour>
        <pt x="113" y="1516" on="1"/>
        <pt x="915" y="1516" on="1"/>
        <pt x="1032" y="1516" on="0"/>
        <pt x="1216" y="1446" on="0"/>
        <pt x="1342" y="1329" on="0"/>
        <pt x="1409" y="1174" on="0"/>
        <pt x="1409" y="1090" on="1"/>
        <pt x="1409" y="1013" on="0"/>
        <pt x="1376" y="897" on="0"/>
        <pt x="1313" y="807" on="0"/>
        <pt x="1221" y="738" on="0"/>
        <pt x="1162" y="710" on="1"/>
        <pt x="1213" y="684" on="0"/>
        <pt x="1291" y="577" on="0"/>
        <pt x="1311" y="492" on="1"/>
        <pt x="1362" y="295" on="1"/>
        <pt x="1487" y="295" on="1"/>
        <pt x="1489" y="0" on="1"/>
        <pt x="1049" y="0" on="1"/>
        <pt x="989" y="360" on="1"/>
        <pt x="980" y="424" on="0"/>
        <pt x="943" y="517" on="0"/>
        <pt x="881" y="576" on="0"/>
        <pt x="792" y="604" on="0"/>
        <pt x="731" y="604" on="1"/>
        <pt x="602" y="604" on="1"/>
        <pt x="602" y="274" on="1"/>
        <pt x="741" y="274" on="1"/>
        <pt x="741" y="0" on="1"/>
        <pt x="113" y="0" on="1"/>
        <pt x="113" y="274" on="1"/>
        <pt x="270" y="274" on="1"/>
        <pt x="270" y="1241" on="1"/>
        <pt x="113" y="1241" on="1"/>
      </contour>
      <contour>
        <pt x="602" y="1241" on="1"/>
        <pt x="602" y="874" on="1"/>
        <pt x="801" y="874" on="1"/>
        <pt x="858" y="874" on="0"/>
        <pt x="949" y="895" on="0"/>
        <pt x="1014" y="940" on="0"/>
        <pt x="1049" y="1008" on="0"/>
        <pt x="1049" y="1055" on="1"/>
        <pt x="1049" y="1143" on="0"/>
        <pt x="923" y="1241" on="0"/>
        <pt x="801" y="1241" on="1"/>
      </contour>
    </TTGlyph>
    <TTGlyph name="Racute" xMin="113" yMin="0" xMax="7734" yMax="5692">
      <component glyphName="R" x="0" y="0" flags="0x204"/>
      <component glyphName="acute" x="608" y="481" flags="0x4"/>
    </TTGlyph>
    <TTGlyph name="Rcaron" xMin="113" yMin="0" xMax="2872" yMax="3777">
      <component glyphName="R" x="0" y="0" flags="0x204"/>
      <component glyphName="caron" x="276" y="481" flags="0x4"/>
    </TTGlyph>
    <TTGlyph name="Rcommaaccent" xMin="113" yMin="-471" xMax="4394" yMax="1516">
      <component glyphName="R" x="0" y="0" flags="0x204"/>
      <component glyphName="commabelow" x="539" y="0" flags="0x4"/>
    </TTGlyph>
    <TTGlyph name="S" xMin="41" yMin="-31" xMax="1204" yMax="1561">
      <contour>
        <pt x="842" y="1089" on="1"/>
        <pt x="837" y="1124" on="0"/>
        <pt x="798" y="1186" on="0"/>
        <pt x="737" y="1231" on="0"/>
        <pt x="660" y="1257" on="0"/>
        <pt x="618" y="1257" on="1"/>
        <pt x="580" y="1257" on="0"/>
        <pt x="514" y="1241" on="0"/>
        <pt x="465" y="1208" on="0"/>
        <pt x="436" y="1156" on="0"/>
        <pt x="436" y="1120" on="1"/>
        <pt x="436" y="1075" on="0"/>
        <pt x="475" y="1022" on="0"/>
        <pt x="536" y="988" on="0"/>
        <pt x="610" y="968" on="0"/>
        <pt x="645" y="956" on="1"/>
        <pt x="920" y="864" on="1"/>
        <pt x="977" y="844" on="0"/>
        <pt x="1077" y="774" on="0"/>
        <pt x="1150" y="674" on="0"/>
        <pt x="1192" y="544" on="0"/>
        <pt x="1192" y="463" on="1"/>
        <pt x="1192" y="353" on="0"/>
        <pt x="1111" y="171" on="0"/>
        <pt x="965" y="41" on="0"/>
        <pt x="761" y="-31" on="0"/>
        <pt x="637" y="-31" on="1"/>
        <pt x="550" y="-31" on="0"/>
        <pt x="395" y="8" on="0"/>
        <pt x="267" y="82" on="0"/>
        <pt x="171" y="185" on="0"/>
        <pt x="144" y="250" on="1"/>
        <pt x="41" y="250" on="1"/>
        <pt x="41" y="551" on="1"/>
        <pt x="403" y="551" on="1"/>
        <pt x="403" y="489" on="1"/>
        <pt x="403" y="444" on="0"/>
        <pt x="432" y="368" on="0"/>
        <pt x="490" y="312" on="0"/>
        <pt x="578" y="281" on="0"/>
        <pt x="637" y="281" on="1"/>
        <pt x="727" y="281" on="0"/>
        <pt x="821" y="364" on="0"/>
        <pt x="821" y="438" on="1"/>
        <pt x="821" y="476" on="0"/>
        <pt x="788" y="527" on="0"/>
        <pt x="736" y="562" on="0"/>
        <pt x="672" y="586" on="0"/>
        <pt x="641" y="596" on="1"/>
        <pt x="412" y="670" on="1"/>
        <pt x="347" y="690" on="0"/>
        <pt x="226" y="762" on="0"/>
        <pt x="133" y="870" on="0"/>
        <pt x="78" y="1015" on="0"/>
        <pt x="78" y="1108" on="1"/>
        <pt x="78" y="1216" on="0"/>
        <pt x="158" y="1385" on="0"/>
        <pt x="302" y="1501" on="0"/>
        <pt x="500" y="1561" on="0"/>
        <pt x="618" y="1561" on="1"/>
        <pt x="711" y="1561" on="0"/>
        <pt x="869" y="1518" on="0"/>
        <pt x="994" y="1446" on="0"/>
        <pt x="1081" y="1353" on="0"/>
        <pt x="1104" y="1303" on="1"/>
        <pt x="1204" y="1303" on="1"/>
        <pt x="1204" y="1001" on="1"/>
        <pt x="842" y="1001" on="1"/>
      </contour>
    </TTGlyph>
    <TTGlyph name="Sacute" xMin="41" yMin="-31" xMax="8615" yMax="6171">
      <component glyphName="S" x="0" y="0" flags="0x204"/>
      <component glyphName="acute" x="475" y="479" flags="0x4"/>
    </TTGlyph>
    <TTGlyph name="Scaron" xMin="41" yMin="-31" xMax="3089" yMax="4256">
      <component glyphName="S" x="0" y="0" flags="0x204"/>
      <component glyphName="caron" x="143" y="479" flags="0x4"/>
    </TTGlyph>
    <TTGlyph name="Scedilla" xMin="41" yMin="-455" xMax="1204" yMax="1561">
      <component glyphName="S" x="0" y="0" flags="0x204"/>
      <component glyphName="cedilla" x="147" y="0" flags="0x4"/>
    </TTGlyph>
    <TTGlyph name="Scommaaccent" xMin="41" yMin="-471" xMax="4982" yMax="1561">
      <component glyphName="S" x="0" y="0" flags="0x204"/>
      <component glyphName="commabelow" x="395" y="0" flags="0x4"/>
    </TTGlyph>
    <TTGlyph name="T" xMin="20" yMin="0" xMax="1399" yMax="1516">
      <contour>
        <pt x="373" y="274" on="1"/>
        <pt x="530" y="274" on="1"/>
        <pt x="530" y="1251" on="1"/>
        <pt x="346" y="1251" on="1"/>
        <pt x="346" y="1055" on="1"/>
        <pt x="20" y="1055" on="1"/>
        <pt x="20" y="1516" on="1"/>
        <pt x="1399" y="1516" on="1"/>
        <pt x="1399" y="1055" on="1"/>
        <pt x="1071" y="1055" on="1"/>
        <pt x="1071" y="1251" on="1"/>
        <pt x="862" y="1251" on="1"/>
        <pt x="862" y="274" on="1"/>
        <pt x="1022" y="274" on="1"/>
        <pt x="1022" y="0" on="1"/>
        <pt x="373" y="0" on="1"/>
      </contour>
    </TTGlyph>
    <TTGlyph name="Tcaron" xMin="20" yMin="0" xMax="3326" yMax="4735">
      <component glyphName="T" x="0" y="0" flags="0x4"/>
      <component glyphName="caron" x="225" y="479" flags="0x4"/>
    </TTGlyph>
    <TTGlyph name="Tcommaaccent" xMin="20" yMin="-471" xMax="5789" yMax="1516">
      <component glyphName="T" x="0" y="0" flags="0x4"/>
      <component glyphName="commabelow" x="483" y="0" flags="0x4"/>
    </TTGlyph>
    <TTGlyph name="Thorn" xMin="112" yMin="0" xMax="1348" yMax="1516">
      <contour>
        <pt x="112" y="1516" on="1"/>
        <pt x="761" y="1516" on="1"/>
        <pt x="761" y="1241" on="1"/>
        <pt x="603" y="1241" on="1"/>
        <pt x="603" y="1194" on="1"/>
        <pt x="813" y="1194" on="1"/>
        <pt x="930" y="1194" on="0"/>
        <pt x="1126" y="1127" on="0"/>
        <pt x="1268" y="1009" on="0"/>
        <pt x="1348" y="849" on="0"/>
        <pt x="1348" y="756" on="1"/>
        <pt x="1348" y="671" on="0"/>
        <pt x="1285" y="515" on="0"/>
        <pt x="1153" y="395" on="0"/>
        <pt x="951" y="324" on="0"/>
        <pt x="813" y="324" on="1"/>
        <pt x="603" y="324" on="1"/>
        <pt x="603" y="274" on="1"/>
        <pt x="761" y="274" on="1"/>
        <pt x="761" y="0" on="1"/>
        <pt x="112" y="0" on="1"/>
        <pt x="112" y="274" on="1"/>
        <pt x="271" y="274" on="1"/>
        <pt x="271" y="1241" on="1"/>
        <pt x="112" y="1241" on="1"/>
      </contour>
      <contour>
        <pt x="603" y="920" on="1"/>
        <pt x="603" y="594" on="1"/>
        <pt x="739" y="594" on="1"/>
        <pt x="853" y="594" on="0"/>
        <pt x="987" y="671" on="0"/>
        <pt x="987" y="754" on="1"/>
        <pt x="987" y="832" on="0"/>
        <pt x="861" y="920" on="0"/>
        <pt x="739" y="920" on="1"/>
      </contour>
    </TTGlyph>
    <TTGlyph name="U" xMin="51" yMin="-20" xMax="1491" yMax="1516">
      <contour>
        <pt x="51" y="1516" on="1"/>
        <pt x="659" y="1516" on="1"/>
        <pt x="659" y="1241" on="1"/>
        <pt x="520" y="1241" on="1"/>
        <pt x="520" y="612" on="1"/>
        <pt x="520" y="526" on="0"/>
        <pt x="559" y="406" on="0"/>
        <pt x="629" y="330" on="0"/>
        <pt x="725" y="295" on="0"/>
        <pt x="782" y="295" on="1"/>
        <pt x="841" y="295" on="0"/>
        <pt x="938" y="325" on="0"/>
        <pt x="1007" y="398" on="0"/>
        <pt x="1044" y="520" on="0"/>
        <pt x="1044" y="612" on="1"/>
        <pt x="1044" y="1241" on="1"/>
        <pt x="883" y="1241" on="1"/>
        <pt x="883" y="1516" on="1"/>
        <pt x="1491" y="1516" on="1"/>
        <pt x="1491" y="1241" on="1"/>
        <pt x="1370" y="1241" on="1"/>
        <pt x="1370" y="651" on="1"/>
        <pt x="1370" y="491" on="0"/>
        <pt x="1278" y="242" on="0"/>
        <pt x="1117" y="70" on="0"/>
        <pt x="900" y="-20" on="0"/>
        <pt x="776" y="-20" on="1"/>
        <pt x="653" y="-20" on="0"/>
        <pt x="439" y="69" on="0"/>
        <pt x="280" y="238" on="0"/>
        <pt x="188" y="480" on="0"/>
        <pt x="188" y="633" on="1"/>
        <pt x="188" y="1241" on="1"/>
        <pt x="51" y="1241" on="1"/>
      </contour>
    </TTGlyph>
    <TTGlyph name="Uacute" xMin="51" yMin="-20" xMax="9592" yMax="6650">
      <component glyphName="U" x="0" y="0" flags="0x204"/>
      <component glyphName="acute" x="633" y="479" flags="0x4"/>
    </TTGlyph>
    <TTGlyph name="Ucircumflex" xMin="51" yMin="-20" xMax="2526" yMax="3896">
      <component glyphName="U" x="0" y="0" flags="0x204"/>
      <component glyphName="circumflex" x="334" y="479" flags="0x4"/>
    </TTGlyph>
    <TTGlyph name="Udieresis" xMin="51" yMin="-20" xMax="2402" yMax="3427">
      <component glyphName="U" x="0" y="0" flags="0x204"/>
      <component glyphName="dieresis" x="313" y="477" flags="0x4"/>
    </TTGlyph>
    <TTGlyph name="Ugrave" xMin="51" yMin="-20" xMax="1491" yMax="3884">
      <component glyphName="U" x="0" y="0" flags="0x204"/>
      <component glyphName="grave" x="233" y="479" flags="0x4"/>
    </TTGlyph>
    <TTGlyph name="Uhungarumlaut" xMin="51" yMin="-20" xMax="1546" yMax="2469">
      <component glyphName="U" x="0" y="0" flags="0x204"/>
      <component glyphName="hungarumlaut" x="176" y="479" flags="0x4"/>
    </TTGlyph>
    <TTGlyph name="Umacron" xMin="51" yMin="-20" xMax="2539" yMax="3786">
      <component glyphName="U" x="0" y="0" flags="0x204"/>
      <component glyphName="macron" x="354" y="479" flags="0x4"/>
    </TTGlyph>
    <TTGlyph name="Uogonek" xMin="51" yMin="-471" xMax="1491" yMax="1516">
      <contour>
        <pt x="883" y="1516" on="1"/>
        <pt x="1491" y="1516" on="1"/>
        <pt x="1491" y="1241" on="1"/>
        <pt x="1370" y="1241" on="1"/>
        <pt x="1370" y="651" on="1"/>
        <pt x="1370" y="465" on="0"/>
        <pt x="1249" y="193" on="0"/>
        <pt x="1145" y="106" on="1"/>
        <pt x="1108" y="70" on="0"/>
        <pt x="1047" y="2" on="0"/>
        <pt x="1001" y="-68" on="0"/>
        <pt x="977" y="-147" on="0"/>
        <pt x="977" y="-195" on="1"/>
        <pt x="977" y="-242" on="0"/>
        <pt x="1038" y="-283" on="0"/>
        <pt x="1075" y="-283" on="1"/>
        <pt x="1114" y="-283" on="0"/>
        <pt x="1176" y="-260" on="0"/>
        <pt x="1196" y="-250" on="1"/>
        <pt x="1245" y="-416" on="1"/>
        <pt x="1219" y="-434" on="0"/>
        <pt x="1108" y="-471" on="0"/>
        <pt x="1038" y="-471" on="1"/>
        <pt x="985" y="-471" on="0"/>
        <pt x="879" y="-449" on="0"/>
        <pt x="795" y="-393" on="0"/>
        <pt x="741" y="-305" on="0"/>
        <pt x="741" y="-238" on="1"/>
        <pt x="741" y="-178" on="0"/>
        <pt x="786" y="-68" on="0"/>
        <pt x="823" y="-18" on="1"/>
        <pt x="811" y="-18" on="0"/>
        <pt x="788" y="-20" on="0"/>
        <pt x="776" y="-20" on="1"/>
        <pt x="653" y="-20" on="0"/>
        <pt x="438" y="70" on="0"/>
        <pt x="281" y="238" on="0"/>
        <pt x="188" y="479" on="0"/>
        <pt x="188" y="633" on="1"/>
        <pt x="188" y="1241" on="1"/>
        <pt x="51" y="1241" on="1"/>
        <pt x="51" y="1516" on="1"/>
        <pt x="659" y="1516" on="1"/>
        <pt x="659" y="1241" on="1"/>
        <pt x="520" y="1241" on="1"/>
        <pt x="520" y="612" on="1"/>
        <pt x="520" y="526" on="0"/>
        <pt x="559" y="406" on="0"/>
        <pt x="629" y="330" on="0"/>
        <pt x="725" y="295" on="0"/>
        <pt x="782" y="295" on="1"/>
        <pt x="842" y="295" on="0"/>
        <pt x="938" y="326" on="0"/>
        <pt x="1008" y="397" on="0"/>
        <pt x="1044" y="520" on="0"/>
        <pt x="1044" y="612" on="1"/>
        <pt x="1044" y="1241" on="1"/>
        <pt x="883" y="1241" on="1"/>
      </contour>
    </TTGlyph>
    <TTGlyph name="Uring" xMin="51" yMin="-20" xMax="1491" yMax="2028">
      <contour>
        <pt x="51" y="1516" on="1"/>
        <pt x="522" y="1516" on="1"/>
        <pt x="522" y="1241" on="1"/>
        <pt x="520" y="1241" on="1"/>
        <pt x="520" y="612" on="1"/>
        <pt x="520" y="526" on="0"/>
        <pt x="559" y="406" on="0"/>
        <pt x="629" y="330" on="0"/>
        <pt x="725" y="295" on="0"/>
        <pt x="782" y="295" on="1"/>
        <pt x="842" y="295" on="0"/>
        <pt x="938" y="326" on="0"/>
        <pt x="1008" y="397" on="0"/>
        <pt x="1044" y="520" on="0"/>
        <pt x="1044" y="612" on="1"/>
        <pt x="1044" y="1241" on="1"/>
        <pt x="1046" y="1241" on="1"/>
        <pt x="1046" y="1516" on="1"/>
        <pt x="1491" y="1516" on="1"/>
        <pt x="1491" y="1241" on="1"/>
        <pt x="1370" y="1241" on="1"/>
        <pt x="1370" y="651" on="1"/>
        <pt x="1370" y="492" on="0"/>
        <pt x="1278" y="242" on="0"/>
        <pt x="1118" y="70" on="0"/>
        <pt x="901" y="-20" on="0"/>
        <pt x="776" y="-20" on="1"/>
        <pt x="653" y="-20" on="0"/>
        <pt x="438" y="70" on="0"/>
        <pt x="281" y="238" on="0"/>
        <pt x="188" y="479" on="0"/>
        <pt x="188" y="633" on="1"/>
        <pt x="188" y="1241" on="1"/>
        <pt x="51" y="1241" on="1"/>
      </contour>
      <contour>
        <pt x="785" y="2028" on="1"/>
        <pt x="848" y="2028" on="0"/>
        <pt x="956" y="1980" on="0"/>
        <pt x="1038" y="1897" on="0"/>
        <pt x="1087" y="1789" on="0"/>
        <pt x="1087" y="1726" on="1"/>
        <pt x="1087" y="1664" on="0"/>
        <pt x="1038" y="1555" on="0"/>
        <pt x="956" y="1473" on="0"/>
        <pt x="848" y="1425" on="0"/>
        <pt x="785" y="1425" on="1"/>
        <pt x="723" y="1425" on="0"/>
        <pt x="614" y="1473" on="0"/>
        <pt x="532" y="1555" on="0"/>
        <pt x="484" y="1664" on="0"/>
        <pt x="484" y="1726" on="1"/>
        <pt x="484" y="1789" on="0"/>
        <pt x="532" y="1897" on="0"/>
        <pt x="614" y="1980" on="0"/>
        <pt x="723" y="2028" on="0"/>
      </contour>
      <contour>
        <pt x="660" y="1726" on="1"/>
        <pt x="660" y="1673" on="0"/>
        <pt x="732" y="1601" on="0"/>
        <pt x="785" y="1601" on="1"/>
        <pt x="838" y="1601" on="0"/>
        <pt x="908" y="1673" on="0"/>
        <pt x="908" y="1726" on="1"/>
        <pt x="908" y="1780" on="0"/>
        <pt x="838" y="1849" on="0"/>
        <pt x="785" y="1849" on="1"/>
        <pt x="732" y="1849" on="0"/>
        <pt x="660" y="1780" on="0"/>
      </contour>
    </TTGlyph>
    <TTGlyph name="V" xMin="20" yMin="0" xMax="1509" yMax="1516">
      <contour>
        <pt x="860" y="1516" on="1"/>
        <pt x="1509" y="1516" on="1"/>
        <pt x="1509" y="1241" on="1"/>
        <pt x="1374" y="1241" on="1"/>
        <pt x="969" y="0" on="1"/>
        <pt x="559" y="0" on="1"/>
        <pt x="166" y="1241" on="1"/>
        <pt x="20" y="1241" on="1"/>
        <pt x="20" y="1516" on="1"/>
        <pt x="670" y="1516" on="1"/>
        <pt x="670" y="1241" on="1"/>
        <pt x="508" y="1241" on="1"/>
        <pt x="772" y="381" on="1"/>
        <pt x="1035" y="1241" on="1"/>
        <pt x="860" y="1241" on="1"/>
      </contour>
    </TTGlyph>
    <TTGlyph name="W" xMin="20" yMin="0" xMax="2337" yMax="1516">
      <contour>
        <pt x="1688" y="1516" on="1"/>
        <pt x="2337" y="1516" on="1"/>
        <pt x="2337" y="1241" on="1"/>
        <pt x="2200" y="1241" on="1"/>
        <pt x="1851" y="0" on="1"/>
        <pt x="1419" y="0" on="1"/>
        <pt x="1190" y="946" on="1"/>
        <pt x="956" y="0" on="1"/>
        <pt x="528" y="0" on="1"/>
        <pt x="173" y="1241" on="1"/>
        <pt x="20" y="1241" on="1"/>
        <pt x="20" y="1516" on="1"/>
        <pt x="670" y="1516" on="1"/>
        <pt x="670" y="1241" on="1"/>
        <pt x="512" y="1241" on="1"/>
        <pt x="735" y="424" on="1"/>
        <pt x="1004" y="1513" on="1"/>
        <pt x="1376" y="1513" on="1"/>
        <pt x="1640" y="424" on="1"/>
        <pt x="1864" y="1241" on="1"/>
        <pt x="1688" y="1241" on="1"/>
      </contour>
    </TTGlyph>
    <TTGlyph name="X" xMin="53" yMin="0" xMax="1521" yMax="1516">
      <contour>
        <pt x="878" y="1516" on="1"/>
        <pt x="1521" y="1516" on="1"/>
        <pt x="1521" y="1241" on="1"/>
        <pt x="1456" y="1241" on="1"/>
        <pt x="1000" y="754" on="1"/>
        <pt x="1454" y="274" on="1"/>
        <pt x="1517" y="274" on="1"/>
        <pt x="1517" y="0" on="1"/>
        <pt x="874" y="0" on="1"/>
        <pt x="874" y="274" on="1"/>
        <pt x="1032" y="274" on="1"/>
        <pt x="792" y="532" on="1"/>
        <pt x="550" y="274" on="1"/>
        <pt x="696" y="274" on="1"/>
        <pt x="696" y="0" on="1"/>
        <pt x="53" y="0" on="1"/>
        <pt x="53" y="274" on="1"/>
        <pt x="134" y="274" on="1"/>
        <pt x="583" y="754" on="1"/>
        <pt x="128" y="1241" on="1"/>
        <pt x="57" y="1241" on="1"/>
        <pt x="57" y="1516" on="1"/>
        <pt x="700" y="1516" on="1"/>
        <pt x="700" y="1241" on="1"/>
        <pt x="542" y="1241" on="1"/>
        <pt x="791" y="976" on="1"/>
        <pt x="1036" y="1241" on="1"/>
        <pt x="878" y="1241" on="1"/>
      </contour>
    </TTGlyph>
    <TTGlyph name="Y" xMin="47" yMin="0" xMax="1491" yMax="1516">
      <contour>
        <pt x="47" y="1516" on="1"/>
        <pt x="696" y="1516" on="1"/>
        <pt x="696" y="1241" on="1"/>
        <pt x="569" y="1241" on="1"/>
        <pt x="772" y="893" on="1"/>
        <pt x="987" y="1241" on="1"/>
        <pt x="842" y="1241" on="1"/>
        <pt x="842" y="1516" on="1"/>
        <pt x="1491" y="1516" on="1"/>
        <pt x="1491" y="1241" on="1"/>
        <pt x="1379" y="1241" on="1"/>
        <pt x="928" y="629" on="1"/>
        <pt x="928" y="274" on="1"/>
        <pt x="1112" y="274" on="1"/>
        <pt x="1112" y="0" on="1"/>
        <pt x="436" y="0" on="1"/>
        <pt x="436" y="274" on="1"/>
        <pt x="604" y="274" on="1"/>
        <pt x="604" y="633" on="1"/>
        <pt x="180" y="1241" on="1"/>
        <pt x="47" y="1241" on="1"/>
      </contour>
    </TTGlyph>
    <TTGlyph name="Yacute" xMin="47" yMin="0" xMax="10733" yMax="7129">
      <component glyphName="Y" x="0" y="0" flags="0x204"/>
      <component glyphName="acute" x="643" y="479" flags="0x4"/>
    </TTGlyph>
    <TTGlyph name="Ydieresis" xMin="47" yMin="0" xMax="2904" yMax="3903">
      <component glyphName="Y" x="0" y="0" flags="0x204"/>
      <component glyphName="dieresis" x="324" y="477" flags="0x4"/>
    </TTGlyph>
    <TTGlyph name="Z" xMin="61" yMin="0" xMax="1214" yMax="1516">
      <contour>
        <pt x="1214" y="1202" on="1"/>
        <pt x="459" y="297" on="1"/>
        <pt x="887" y="297" on="1"/>
        <pt x="887" y="532" on="1"/>
        <pt x="1212" y="532" on="1"/>
        <pt x="1212" y="0" on="1"/>
        <pt x="61" y="0" on="1"/>
        <pt x="61" y="313" on="1"/>
        <pt x="798" y="1219" on="1"/>
        <pt x="389" y="1219" on="1"/>
        <pt x="389" y="979" on="1"/>
        <pt x="63" y="979" on="1"/>
        <pt x="63" y="1516" on="1"/>
        <pt x="1214" y="1516" on="1"/>
      </contour>
    </TTGlyph>
    <TTGlyph name="Zacute" xMin="61" yMin="0" xMax="11736" yMax="7608">
      <component glyphName="Z" x="0" y="0" flags="0x204"/>
      <component glyphName="acute" x="528" y="479" flags="0x4"/>
    </TTGlyph>
    <TTGlyph name="Zcaron" xMin="61" yMin="0" xMax="3523" yMax="5214">
      <component glyphName="Z" x="0" y="0" flags="0x204"/>
      <component glyphName="caron" x="197" y="479" flags="0x4"/>
    </TTGlyph>
    <TTGlyph name="Zdotaccent" xMin="61" yMin="0" xMax="1635" yMax="2506">
      <component glyphName="Z" x="0" y="0" flags="0x204"/>
      <component glyphName="dotaccent" x="403" y="479" flags="0x4"/>
    </TTGlyph>
    <TTGlyph name="a" xMin="72" yMin="-25" xMax="1149" yMax="1059">
      <contour>
        <pt x="717" y="56" on="1"/>
        <pt x="682" y="34" on="0"/>
        <pt x="624" y="3" on="0"/>
        <pt x="566" y="-16" on="0"/>
        <pt x="504" y="-25" on="0"/>
        <pt x="467" y="-25" on="1"/>
        <pt x="374" y="-25" on="0"/>
        <pt x="227" y="26" on="0"/>
        <pt x="126" y="115" on="0"/>
        <pt x="72" y="236" on="0"/>
        <pt x="72" y="307" on="1"/>
        <pt x="72" y="379" on="0"/>
        <pt x="127" y="501" on="0"/>
        <pt x="231" y="588" on="0"/>
        <pt x="382" y="637" on="0"/>
        <pt x="479" y="637" on="1"/>
        <pt x="550" y="637" on="0"/>
        <pt x="667" y="622" on="0"/>
        <pt x="717" y="611" on="1"/>
        <pt x="717" y="643" on="1"/>
        <pt x="717" y="682" on="0"/>
        <pt x="687" y="739" on="0"/>
        <pt x="633" y="776" on="0"/>
        <pt x="557" y="793" on="0"/>
        <pt x="512" y="793" on="1"/>
        <pt x="418" y="793" on="0"/>
        <pt x="275" y="756" on="0"/>
        <pt x="209" y="721" on="1"/>
        <pt x="113" y="915" on="1"/>
        <pt x="215" y="985" on="0"/>
        <pt x="438" y="1059" on="0"/>
        <pt x="563" y="1059" on="1"/>
        <pt x="660" y="1059" on="0"/>
        <pt x="825" y="1016" on="0"/>
        <pt x="943" y="919" on="0"/>
        <pt x="1010" y="763" on="0"/>
        <pt x="1010" y="651" on="1"/>
        <pt x="1010" y="274" on="1"/>
        <pt x="1149" y="274" on="1"/>
        <pt x="1149" y="0" on="1"/>
        <pt x="717" y="0" on="1"/>
      </contour>
      <contour>
        <pt x="489" y="211" on="1"/>
        <pt x="560" y="211" on="0"/>
        <pt x="676" y="257" on="0"/>
        <pt x="717" y="290" on="1"/>
        <pt x="717" y="422" on="1"/>
        <pt x="477" y="422" on="1"/>
        <pt x="454" y="422" on="0"/>
        <pt x="410" y="408" on="0"/>
        <pt x="375" y="382" on="0"/>
        <pt x="354" y="344" on="0"/>
        <pt x="354" y="319" on="1"/>
        <pt x="354" y="273" on="0"/>
        <pt x="421" y="211" on="0"/>
      </contour>
    </TTGlyph>
    <TTGlyph name="aacute" xMin="72" yMin="-25" xMax="1555" yMax="1968">
      <component glyphName="a" x="0" y="0" flags="0x204"/>
      <component glyphName="acute" x="377" y="0" flags="0x4"/>
    </TTGlyph>
    <TTGlyph name="abreve" xMin="72" yMin="-25" xMax="1223" yMax="1960">
      <component glyphName="a" x="0" y="0" flags="0x204"/>
      <component glyphName="breve" x="41" y="0" flags="0x4"/>
    </TTGlyph>
    <TTGlyph name="acircumflex" xMin="72" yMin="-25" xMax="1247" yMax="1980">
      <component glyphName="a" x="0" y="0" flags="0x204"/>
      <component glyphName="circumflex" x="78" y="0" flags="0x4"/>
    </TTGlyph>
    <TTGlyph name="acute" xMin="41" yMin="1178" xMax="582" yMax="1489">
      <contour>
        <pt x="256" y="1489" on="1"/>
        <pt x="582" y="1489" on="1"/>
        <pt x="582" y="1464" on="1"/>
        <pt x="276" y="1178" on="1"/>
        <pt x="41" y="1178" on="1"/>
      </contour>
    </TTGlyph>
    <TTGlyph name="adieresis" xMin="72" yMin="-25" xMax="1214" yMax="1998">
      <component glyphName="a" x="0" y="0" flags="0x204"/>
      <component glyphName="dieresis" x="57" y="-1" flags="0x4"/>
    </TTGlyph>
    <TTGlyph name="ae" xMin="72" yMin="-27" xMax="1771" yMax="1081">
      <contour>
        <pt x="711" y="643" on="1"/>
        <pt x="711" y="722" on="0"/>
        <pt x="603" y="793" on="0"/>
        <pt x="512" y="793" on="1"/>
        <pt x="418" y="793" on="0"/>
        <pt x="275" y="756" on="0"/>
        <pt x="209" y="721" on="1"/>
        <pt x="113" y="915" on="1"/>
        <pt x="215" y="985" on="0"/>
        <pt x="438" y="1059" on="0"/>
        <pt x="563" y="1059" on="1"/>
        <pt x="660" y="1059" on="0"/>
        <pt x="822" y="1016" on="0"/>
        <pt x="894" y="954" on="1"/>
        <pt x="954" y="1005" on="0"/>
        <pt x="1031" y="1038" on="1"/>
        <pt x="1131" y="1081" on="0"/>
        <pt x="1253" y="1081" on="1"/>
        <pt x="1375" y="1081" on="0"/>
        <pt x="1564" y="1000" on="0"/>
        <pt x="1694" y="857" on="0"/>
        <pt x="1764" y="664" on="0"/>
        <pt x="1770" y="528" on="0"/>
        <pt x="1771" y="479" on="0"/>
        <pt x="1769" y="453" on="1"/>
        <pt x="1006" y="453" on="1"/>
        <pt x="1009" y="422" on="1"/>
        <pt x="1020" y="377" on="0"/>
        <pt x="1073" y="309" on="0"/>
        <pt x="1145" y="263" on="0"/>
        <pt x="1233" y="240" on="0"/>
        <pt x="1278" y="240" on="1"/>
        <pt x="1323" y="240" on="0"/>
        <pt x="1404" y="251" on="0"/>
        <pt x="1480" y="270" on="0"/>
        <pt x="1552" y="295" on="0"/>
        <pt x="1589" y="309" on="1"/>
        <pt x="1699" y="104" on="1"/>
        <pt x="1642" y="69" on="0"/>
        <pt x="1547" y="20" on="0"/>
        <pt x="1451" y="-12" on="0"/>
        <pt x="1343" y="-27" on="0"/>
        <pt x="1271" y="-27" on="1"/>
        <pt x="1136" y="-27" on="0"/>
        <pt x="926" y="62" on="0"/>
        <pt x="855" y="137" on="1"/>
        <pt x="827" y="109" on="0"/>
        <pt x="755" y="52" on="0"/>
        <pt x="658" y="4" on="0"/>
        <pt x="539" y="-25" on="0"/>
        <pt x="467" y="-25" on="1"/>
        <pt x="374" y="-25" on="0"/>
        <pt x="227" y="26" on="0"/>
        <pt x="126" y="115" on="0"/>
        <pt x="72" y="236" on="0"/>
        <pt x="72" y="307" on="1"/>
        <pt x="72" y="379" on="0"/>
        <pt x="127" y="501" on="0"/>
        <pt x="231" y="588" on="0"/>
        <pt x="382" y="637" on="0"/>
        <pt x="479" y="637" on="1"/>
        <pt x="555" y="637" on="0"/>
        <pt x="617" y="629" on="1"/>
        <pt x="667" y="622" on="0"/>
        <pt x="711" y="613" on="1"/>
      </contour>
      <contour>
        <pt x="432" y="415" on="1"/>
        <pt x="410" y="408" on="0"/>
        <pt x="375" y="382" on="0"/>
        <pt x="354" y="344" on="0"/>
        <pt x="354" y="319" on="1"/>
        <pt x="354" y="273" on="0"/>
        <pt x="421" y="211" on="0"/>
        <pt x="489" y="211" on="1"/>
        <pt x="582" y="211" on="0"/>
        <pt x="648" y="241" on="1"/>
        <pt x="703" y="267" on="0"/>
        <pt x="749" y="305" on="1"/>
        <pt x="747" y="310" on="0"/>
        <pt x="745" y="316" on="1"/>
        <pt x="726" y="367" on="0"/>
        <pt x="717" y="422" on="1"/>
        <pt x="477" y="422" on="1"/>
        <pt x="454" y="422" on="0"/>
      </contour>
      <contour>
        <pt x="1245" y="831" on="1"/>
        <pt x="1189" y="831" on="0"/>
        <pt x="1110" y="804" on="0"/>
        <pt x="1056" y="757" on="0"/>
        <pt x="1024" y="697" on="0"/>
        <pt x="1015" y="664" on="1"/>
        <pt x="1448" y="664" on="1"/>
        <pt x="1441" y="698" on="0"/>
        <pt x="1415" y="758" on="0"/>
        <pt x="1369" y="804" on="0"/>
        <pt x="1298" y="831" on="0"/>
      </contour>
    </TTGlyph>
    <TTGlyph name="agrave" xMin="72" yMin="-25" xMax="1149" yMax="1968">
      <component glyphName="a" x="0" y="0" flags="0x204"/>
      <component glyphName="grave" x="-22" y="0" flags="0x4"/>
    </TTGlyph>
    <TTGlyph name="amacron" xMin="72" yMin="-25" xMax="1185" yMax="1870">
      <component glyphName="a" x="0" y="0" flags="0x204"/>
      <component glyphName="macron" x="98" y="0" flags="0x4"/>
    </TTGlyph>
    <TTGlyph name="ampersand" xMin="90" yMin="-49" xMax="1427" yMax="1599">
      <contour>
        <pt x="1196" y="-49" on="1"/>
        <pt x="995" y="157" on="1"/>
        <pt x="913" y="79" on="0"/>
        <pt x="706" y="-14" on="0"/>
        <pt x="578" y="-14" on="1"/>
        <pt x="476" y="-14" on="0"/>
        <pt x="298" y="58" on="0"/>
        <pt x="166" y="184" on="0"/>
        <pt x="90" y="356" on="0"/>
        <pt x="90" y="455" on="1"/>
        <pt x="90" y="582" on="0"/>
        <pt x="208" y="778" on="0"/>
        <pt x="313" y="852" on="1"/>
        <pt x="314" y="852" on="0"/>
        <pt x="316" y="854" on="1"/>
        <pt x="297" y="874" on="1"/>
        <pt x="235" y="940" on="0"/>
        <pt x="168" y="1094" on="0"/>
        <pt x="168" y="1190" on="1"/>
        <pt x="168" y="1272" on="0"/>
        <pt x="234" y="1420" on="0"/>
        <pt x="351" y="1533" on="0"/>
        <pt x="508" y="1599" on="0"/>
        <pt x="600" y="1599" on="1"/>
        <pt x="697" y="1599" on="0"/>
        <pt x="855" y="1531" on="0"/>
        <pt x="967" y="1418" on="0"/>
        <pt x="1028" y="1271" on="0"/>
        <pt x="1028" y="1192" on="1"/>
        <pt x="1028" y="1136" on="0"/>
        <pt x="999" y="1032" on="0"/>
        <pt x="948" y="942" on="0"/>
        <pt x="880" y="867" on="0"/>
        <pt x="842" y="840" on="1"/>
        <pt x="825" y="828" on="0"/>
        <pt x="793" y="805" on="0"/>
        <pt x="776" y="794" on="1"/>
        <pt x="940" y="632" on="1"/>
        <pt x="954" y="677" on="0"/>
        <pt x="973" y="760" on="0"/>
        <pt x="979" y="797" on="1"/>
        <pt x="1278" y="797" on="1"/>
        <pt x="1271" y="700" on="0"/>
        <pt x="1218" y="499" on="0"/>
        <pt x="1172" y="404" on="1"/>
        <pt x="1427" y="154" on="1"/>
      </contour>
      <contour>
        <pt x="406" y="461" on="1"/>
        <pt x="406" y="428" on="0"/>
        <pt x="432" y="367" on="0"/>
        <pt x="479" y="319" on="0"/>
        <pt x="545" y="291" on="0"/>
        <pt x="586" y="291" on="1"/>
        <pt x="649" y="291" on="0"/>
        <pt x="748" y="334" on="0"/>
        <pt x="788" y="370" on="1"/>
        <pt x="526" y="638" on="1"/>
        <pt x="499" y="621" on="0"/>
        <pt x="454" y="585" on="0"/>
        <pt x="423" y="543" on="0"/>
        <pt x="406" y="492" on="0"/>
      </contour>
      <contour>
        <pt x="674" y="1063" on="1"/>
        <pt x="706" y="1086" on="0"/>
        <pt x="733" y="1149" on="0"/>
        <pt x="733" y="1192" on="1"/>
        <pt x="733" y="1219" on="0"/>
        <pt x="712" y="1267" on="0"/>
        <pt x="675" y="1304" on="0"/>
        <pt x="627" y="1325" on="0"/>
        <pt x="600" y="1325" on="1"/>
        <pt x="568" y="1325" on="0"/>
        <pt x="516" y="1305" on="0"/>
        <pt x="478" y="1269" on="0"/>
        <pt x="457" y="1220" on="0"/>
        <pt x="457" y="1192" on="1"/>
        <pt x="457" y="1152" on="0"/>
        <pt x="486" y="1077" on="0"/>
        <pt x="512" y="1053" on="1"/>
        <pt x="568" y="998" on="1"/>
        <pt x="599" y="1015" on="0"/>
        <pt x="653" y="1047" on="0"/>
      </contour>
    </TTGlyph>
    <TTGlyph name="aogonek" xMin="72" yMin="-485" xMax="1147" yMax="1059">
      <contour>
        <pt x="1098" y="0" on="1"/>
        <pt x="1032" y="0" on="0"/>
        <pt x="938" y="-37" on="0"/>
        <pt x="879" y="-96" on="0"/>
        <pt x="850" y="-168" on="0"/>
        <pt x="850" y="-203" on="1"/>
        <pt x="850" y="-256" on="0"/>
        <pt x="909" y="-301" on="0"/>
        <pt x="950" y="-301" on="1"/>
        <pt x="983" y="-301" on="0"/>
        <pt x="1034" y="-289" on="0"/>
        <pt x="1055" y="-279" on="1"/>
        <pt x="1104" y="-444" on="1"/>
        <pt x="1094" y="-451" on="0"/>
        <pt x="1053" y="-465" on="0"/>
        <pt x="1001" y="-477" on="0"/>
        <pt x="948" y="-485" on="0"/>
        <pt x="926" y="-485" on="1"/>
        <pt x="864" y="-485" on="0"/>
        <pt x="762" y="-457" on="0"/>
        <pt x="688" y="-397" on="0"/>
        <pt x="645" y="-303" on="0"/>
        <pt x="645" y="-238" on="1"/>
        <pt x="645" y="-199" on="0"/>
        <pt x="666" y="-129" on="0"/>
        <pt x="702" y="-70" on="0"/>
        <pt x="756" y="-18" on="0"/>
        <pt x="788" y="0" on="1"/>
        <pt x="788" y="0" on="1"/>
        <pt x="788" y="92" on="1"/>
        <pt x="731" y="47" on="0"/>
        <pt x="565" y="-25" on="0"/>
        <pt x="467" y="-25" on="1"/>
        <pt x="375" y="-25" on="0"/>
        <pt x="227" y="27" on="0"/>
        <pt x="125" y="115" on="0"/>
        <pt x="72" y="236" on="0"/>
        <pt x="72" y="307" on="1"/>
        <pt x="72" y="379" on="0"/>
        <pt x="127" y="500" on="0"/>
        <pt x="231" y="588" on="0"/>
        <pt x="383" y="637" on="0"/>
        <pt x="479" y="637" on="1"/>
        <pt x="502" y="637" on="0"/>
        <pt x="545" y="635" on="0"/>
        <pt x="567" y="633" on="1"/>
        <pt x="608" y="629" on="0"/>
        <pt x="682" y="618" on="0"/>
        <pt x="717" y="610" on="1"/>
        <pt x="717" y="643" on="1"/>
        <pt x="717" y="721" on="0"/>
        <pt x="604" y="793" on="0"/>
        <pt x="512" y="793" on="1"/>
        <pt x="418" y="793" on="0"/>
        <pt x="274" y="756" on="0"/>
        <pt x="209" y="721" on="1"/>
        <pt x="113" y="915" on="1"/>
        <pt x="215" y="985" on="0"/>
        <pt x="438" y="1059" on="0"/>
        <pt x="563" y="1059" on="1"/>
        <pt x="662" y="1059" on="0"/>
        <pt x="825" y="1016" on="0"/>
        <pt x="944" y="920" on="0"/>
        <pt x="1010" y="764" on="0"/>
        <pt x="1010" y="651" on="1"/>
        <pt x="1010" y="557" on="0"/>
        <pt x="1010" y="369" on="0"/>
        <pt x="1010" y="274" on="1"/>
        <pt x="1147" y="274" on="1"/>
        <pt x="1147" y="0" on="1"/>
      </contour>
      <contour>
        <pt x="489" y="211" on="1"/>
        <pt x="559" y="211" on="0"/>
        <pt x="676" y="256" on="0"/>
        <pt x="717" y="289" on="1"/>
        <pt x="717" y="422" on="1"/>
        <pt x="524" y="422" on="1"/>
        <pt x="496" y="422" on="0"/>
        <pt x="436" y="416" on="0"/>
        <pt x="387" y="395" on="0"/>
        <pt x="354" y="354" on="0"/>
        <pt x="354" y="319" on="1"/>
        <pt x="354" y="272" on="0"/>
        <pt x="422" y="211" on="0"/>
        <pt x="489" y="211" on="1"/>
      </contour>
    </TTGlyph>
    <TTGlyph name="apostrophe" xMin="-4" yMin="1051" xMax="399" yMax="1493">
      <contour>
        <pt x="111" y="1493" on="1"/>
        <pt x="399" y="1389" on="1"/>
        <pt x="203" y="1051" on="1"/>
        <pt x="-4" y="1122" on="1"/>
      </contour>
    </TTGlyph>
    <TTGlyph name="approxequal" xMin="-15" yMin="279" xMax="930" yMax="935">
      <component glyphName="asciitilde" x="0" y="-167" flags="0x204"/>
      <component glyphName="asciitilde" x="-7" y="262" flags="0x4"/>
    </TTGlyph>
    <TTGlyph name="aring" xMin="72" yMin="-25" xMax="1149" yMax="1736">
      <component glyphName="a" x="0" y="0" flags="0x204"/>
      <component glyphName="ring" x="-81" y="0" flags="0x4"/>
    </TTGlyph>
    <TTGlyph name="asciicircum" xMin="52" yMin="723" xMax="1175" yMax="1513">
      <contour>
        <pt x="771" y="1513" on="1"/>
        <pt x="1175" y="723" on="1"/>
        <pt x="879" y="723" on="1"/>
        <pt x="616" y="1251" on="1"/>
        <pt x="342" y="723" on="1"/>
        <pt x="52" y="723" on="1"/>
        <pt x="468" y="1513" on="1"/>
      </contour>
    </TTGlyph>
    <TTGlyph name="asciitilde" xMin="-8" yMin="446" xMax="930" yMax="840">
      <contour>
        <pt x="-8" y="512" on="1"/>
        <pt x="-8" y="542" on="0"/>
        <pt x="2" y="614" on="0"/>
        <pt x="25" y="687" on="0"/>
        <pt x="65" y="755" on="0"/>
        <pt x="125" y="808" on="0"/>
        <pt x="209" y="840" on="0"/>
        <pt x="264" y="840" on="1"/>
        <pt x="288" y="840" on="0"/>
        <pt x="351" y="818" on="0"/>
        <pt x="421" y="786" on="0"/>
        <pt x="495" y="748" on="0"/>
        <pt x="564" y="716" on="0"/>
        <pt x="623" y="696" on="0"/>
        <pt x="645" y="696" on="1"/>
        <pt x="692" y="696" on="0"/>
        <pt x="737" y="751" on="0"/>
        <pt x="745" y="811" on="1"/>
        <pt x="930" y="770" on="1"/>
        <pt x="930" y="725" on="0"/>
        <pt x="905" y="614" on="0"/>
        <pt x="839" y="516" on="0"/>
        <pt x="725" y="446" on="0"/>
        <pt x="635" y="446" on="1"/>
        <pt x="580" y="446" on="0"/>
        <pt x="474" y="493" on="0"/>
        <pt x="377" y="546" on="0"/>
        <pt x="293" y="590" on="0"/>
        <pt x="260" y="590" on="1"/>
        <pt x="241" y="590" on="0"/>
        <pt x="207" y="579" on="0"/>
        <pt x="181" y="552" on="0"/>
        <pt x="165" y="508" on="0"/>
        <pt x="164" y="475" on="1"/>
      </contour>
    </TTGlyph>
    <TTGlyph name="asterisk" xMin="61" yMin="774" xMax="946" yMax="1616">
      <contour>
        <pt x="629" y="1364" on="1"/>
        <pt x="868" y="1442" on="1"/>
        <pt x="946" y="1204" on="1"/>
        <pt x="705" y="1127" on="1"/>
        <pt x="854" y="922" on="1"/>
        <pt x="651" y="774" on="1"/>
        <pt x="503" y="980" on="1"/>
        <pt x="356" y="774" on="1"/>
        <pt x="154" y="922" on="1"/>
        <pt x="302" y="1127" on="1"/>
        <pt x="61" y="1204" on="1"/>
        <pt x="139" y="1442" on="1"/>
        <pt x="379" y="1364" on="1"/>
        <pt x="379" y="1616" on="1"/>
        <pt x="629" y="1616" on="1"/>
      </contour>
    </TTGlyph>
    <TTGlyph name="at" xMin="188" yMin="-463" xMax="2103" yMax="1448">
      <contour>
        <pt x="1608" y="956" on="1"/>
        <pt x="1608" y="309" on="1"/>
        <pt x="1608" y="266" on="0"/>
        <pt x="1641" y="211" on="0"/>
        <pt x="1675" y="211" on="1"/>
        <pt x="1724" y="211" on="0"/>
        <pt x="1788" y="271" on="0"/>
        <pt x="1825" y="367" on="0"/>
        <pt x="1839" y="484" on="0"/>
        <pt x="1839" y="541" on="1"/>
        <pt x="1839" y="627" on="0"/>
        <pt x="1790" y="789" on="0"/>
        <pt x="1700" y="932" on="0"/>
        <pt x="1574" y="1051" on="0"/>
        <pt x="1420" y="1137" on="0"/>
        <pt x="1242" y="1184" on="0"/>
        <pt x="1145" y="1184" on="1"/>
        <pt x="1049" y="1184" on="0"/>
        <pt x="873" y="1135" on="0"/>
        <pt x="719" y="1045" on="0"/>
        <pt x="594" y="918" on="0"/>
        <pt x="504" y="765" on="0"/>
        <pt x="455" y="589" on="0"/>
        <pt x="455" y="494" on="1"/>
        <pt x="455" y="350" on="0"/>
        <pt x="563" y="98" on="0"/>
        <pt x="750" y="-90" on="0"/>
        <pt x="1001" y="-199" on="0"/>
        <pt x="1145" y="-199" on="1"/>
        <pt x="1244" y="-199" on="0"/>
        <pt x="1440" y="-136" on="0"/>
        <pt x="1534" y="-80" on="1"/>
        <pt x="1671" y="-307" on="1"/>
        <pt x="1547" y="-382" on="0"/>
        <pt x="1279" y="-463" on="0"/>
        <pt x="1145" y="-463" on="1"/>
        <pt x="1013" y="-463" on="0"/>
        <pt x="768" y="-395" on="0"/>
        <pt x="555" y="-271" on="0"/>
        <pt x="381" y="-96" on="0"/>
        <pt x="256" y="116" on="0"/>
        <pt x="188" y="361" on="0"/>
        <pt x="188" y="494" on="1"/>
        <pt x="188" y="626" on="0"/>
        <pt x="256" y="870" on="0"/>
        <pt x="381" y="1082" on="0"/>
        <pt x="555" y="1256" on="0"/>
        <pt x="768" y="1380" on="0"/>
        <pt x="1013" y="1448" on="0"/>
        <pt x="1145" y="1448" on="1"/>
        <pt x="1278" y="1448" on="0"/>
        <pt x="1524" y="1382" on="0"/>
        <pt x="1737" y="1263" on="0"/>
        <pt x="1911" y="1096" on="0"/>
        <pt x="2035" y="895" on="0"/>
        <pt x="2103" y="666" on="0"/>
        <pt x="2103" y="543" on="1"/>
        <pt x="2103" y="441" on="0"/>
        <pt x="2043" y="241" on="0"/>
        <pt x="1926" y="81" on="0"/>
        <pt x="1753" y="-18" on="0"/>
        <pt x="1640" y="-18" on="1"/>
        <pt x="1560" y="-18" on="0"/>
        <pt x="1440" y="38" on="0"/>
        <pt x="1399" y="89" on="1"/>
        <pt x="1342" y="40" on="0"/>
        <pt x="1198" y="-16" on="0"/>
        <pt x="1130" y="-16" on="1"/>
        <pt x="1020" y="-16" on="0"/>
        <pt x="834" y="64" on="0"/>
        <pt x="699" y="200" on="0"/>
        <pt x="623" y="379" on="0"/>
        <pt x="623" y="479" on="1"/>
        <pt x="623" y="576" on="0"/>
        <pt x="695" y="754" on="0"/>
        <pt x="824" y="889" on="0"/>
        <pt x="1003" y="969" on="0"/>
        <pt x="1110" y="969" on="1"/>
        <pt x="1169" y="969" on="0"/>
        <pt x="1273" y="945" on="0"/>
        <pt x="1321" y="925" on="1"/>
        <pt x="1321" y="956" on="1"/>
      </contour>
      <contour>
        <pt x="1130" y="276" on="1"/>
        <pt x="1190" y="276" on="0"/>
        <pt x="1291" y="339" on="0"/>
        <pt x="1321" y="396" on="1"/>
        <pt x="1321" y="555" on="1"/>
        <pt x="1308" y="584" on="0"/>
        <pt x="1269" y="632" on="0"/>
        <pt x="1220" y="667" on="0"/>
        <pt x="1163" y="686" on="0"/>
        <pt x="1133" y="686" on="1"/>
        <pt x="1091" y="686" on="0"/>
        <pt x="1015" y="654" on="0"/>
        <pt x="959" y="598" on="0"/>
        <pt x="926" y="522" on="0"/>
        <pt x="926" y="479" on="1"/>
        <pt x="926" y="434" on="0"/>
        <pt x="958" y="359" on="0"/>
        <pt x="1014" y="305" on="0"/>
        <pt x="1088" y="276" on="0"/>
      </contour>
    </TTGlyph>
    <TTGlyph name="atilde" xMin="72" yMin="-25" xMax="1220" yMax="1958">
      <component glyphName="a" x="0" y="0" flags="0x204"/>
      <component glyphName="tilde" x="57" y="0" flags="0x4"/>
    </TTGlyph>
    <TTGlyph name="b" xMin="29" yMin="-18" xMax="1243" yMax="1556">
      <contour>
        <pt x="29" y="1556" on="1"/>
        <pt x="481" y="1556" on="1"/>
        <pt x="481" y="1013" on="1"/>
        <pt x="535" y="1039" on="0"/>
        <pt x="649" y="1067" on="0"/>
        <pt x="709" y="1067" on="1"/>
        <pt x="824" y="1067" on="0"/>
        <pt x="1020" y="981" on="0"/>
        <pt x="1162" y="833" on="0"/>
        <pt x="1243" y="635" on="0"/>
        <pt x="1243" y="524" on="1"/>
        <pt x="1243" y="412" on="0"/>
        <pt x="1164" y="214" on="0"/>
        <pt x="1022" y="67" on="0"/>
        <pt x="826" y="-18" on="0"/>
        <pt x="709" y="-18" on="1"/>
        <pt x="646" y="-18" on="0"/>
        <pt x="532" y="6" on="0"/>
        <pt x="481" y="28" on="1"/>
        <pt x="481" y="0" on="1"/>
        <pt x="174" y="0" on="1"/>
        <pt x="174" y="1282" on="1"/>
        <pt x="29" y="1282" on="1"/>
      </contour>
      <contour>
        <pt x="688" y="791" on="1"/>
        <pt x="622" y="791" on="0"/>
        <pt x="517" y="731" on="0"/>
        <pt x="481" y="675" on="1"/>
        <pt x="481" y="365" on="1"/>
        <pt x="513" y="317" on="0"/>
        <pt x="620" y="258" on="0"/>
        <pt x="686" y="258" on="1"/>
        <pt x="737" y="258" on="0"/>
        <pt x="829" y="295" on="0"/>
        <pt x="898" y="364" on="0"/>
        <pt x="938" y="461" on="0"/>
        <pt x="938" y="522" on="1"/>
        <pt x="938" y="584" on="0"/>
        <pt x="898" y="684" on="0"/>
        <pt x="830" y="754" on="0"/>
        <pt x="739" y="791" on="0"/>
      </contour>
    </TTGlyph>
    <TTGlyph name="backslash" xMin="6" yMin="-293" xMax="813" yMax="1384">
      <contour>
        <pt x="6" y="1384" on="1"/>
        <pt x="242" y="1384" on="1"/>
        <pt x="813" y="-293" on="1"/>
        <pt x="571" y="-293" on="1"/>
      </contour>
    </TTGlyph>
    <TTGlyph name="bar" xMin="123" yMin="-270" xMax="375" yMax="1729">
      <contour>
        <pt x="123" y="1729" on="1"/>
        <pt x="375" y="1729" on="1"/>
        <pt x="375" y="-270" on="1"/>
        <pt x="123" y="-270" on="1"/>
      </contour>
    </TTGlyph>
    <TTGlyph name="braceleft" xMin="102" yMin="-367" xMax="836" yMax="1772">
      <contour>
        <pt x="102" y="797" on="1"/>
        <pt x="137" y="803" on="0"/>
        <pt x="200" y="805" on="0"/>
        <pt x="253" y="813" on="0"/>
        <pt x="295" y="833" on="0"/>
        <pt x="324" y="880" on="0"/>
        <pt x="340" y="959" on="0"/>
        <pt x="340" y="1022" on="1"/>
        <pt x="340" y="1423" on="1"/>
        <pt x="340" y="1520" on="0"/>
        <pt x="378" y="1654" on="0"/>
        <pt x="454" y="1736" on="0"/>
        <pt x="566" y="1772" on="0"/>
        <pt x="641" y="1772" on="1"/>
        <pt x="688" y="1772" on="0"/>
        <pt x="760" y="1769" on="0"/>
        <pt x="785" y="1767" on="1"/>
        <pt x="814" y="1765" on="0"/>
        <pt x="836" y="1763" on="1"/>
        <pt x="836" y="1456" on="1"/>
        <pt x="789" y="1454" on="0"/>
        <pt x="732" y="1439" on="0"/>
        <pt x="700" y="1405" on="0"/>
        <pt x="690" y="1347" on="0"/>
        <pt x="690" y="1303" on="1"/>
        <pt x="690" y="893" on="1"/>
        <pt x="690" y="860" on="0"/>
        <pt x="681" y="805" on="0"/>
        <pt x="657" y="759" on="0"/>
        <pt x="613" y="720" on="0"/>
        <pt x="578" y="704" on="1"/>
        <pt x="614" y="689" on="0"/>
        <pt x="658" y="646" on="0"/>
        <pt x="682" y="594" on="0"/>
        <pt x="690" y="535" on="0"/>
        <pt x="690" y="504" on="1"/>
        <pt x="690" y="133" on="1"/>
        <pt x="690" y="82" on="0"/>
        <pt x="700" y="19" on="0"/>
        <pt x="732" y="-15" on="0"/>
        <pt x="789" y="-29" on="0"/>
        <pt x="836" y="-31" on="1"/>
        <pt x="836" y="-358" on="1"/>
        <pt x="814" y="-361" on="0"/>
        <pt x="785" y="-363" on="1"/>
        <pt x="760" y="-365" on="0"/>
        <pt x="688" y="-367" on="0"/>
        <pt x="641" y="-367" on="1"/>
        <pt x="566" y="-367" on="0"/>
        <pt x="454" y="-331" on="0"/>
        <pt x="378" y="-249" on="0"/>
        <pt x="340" y="-116" on="0"/>
        <pt x="340" y="-18" on="1"/>
        <pt x="340" y="457" on="1"/>
        <pt x="333" y="519" on="0"/>
        <pt x="291" y="576" on="0"/>
        <pt x="227" y="598" on="0"/>
        <pt x="147" y="599" on="0"/>
        <pt x="102" y="606" on="1"/>
      </contour>
    </TTGlyph>
    <TTGlyph name="braceright" xMin="61" yMin="-367" xMax="795" yMax="1772">
      <contour>
        <pt x="61" y="-358" on="1"/>
        <pt x="61" y="-31" on="1"/>
        <pt x="108" y="-29" on="0"/>
        <pt x="165" y="-15" on="0"/>
        <pt x="197" y="19" on="0"/>
        <pt x="207" y="82" on="0"/>
        <pt x="207" y="133" on="1"/>
        <pt x="207" y="504" on="1"/>
        <pt x="207" y="535" on="0"/>
        <pt x="215" y="594" on="0"/>
        <pt x="239" y="646" on="0"/>
        <pt x="283" y="689" on="0"/>
        <pt x="319" y="704" on="1"/>
        <pt x="284" y="720" on="0"/>
        <pt x="240" y="759" on="0"/>
        <pt x="216" y="805" on="0"/>
        <pt x="207" y="860" on="0"/>
        <pt x="207" y="893" on="1"/>
        <pt x="207" y="1303" on="1"/>
        <pt x="207" y="1347" on="0"/>
        <pt x="197" y="1405" on="0"/>
        <pt x="165" y="1439" on="0"/>
        <pt x="108" y="1454" on="0"/>
        <pt x="61" y="1456" on="1"/>
        <pt x="61" y="1763" on="1"/>
        <pt x="83" y="1765" on="0"/>
        <pt x="112" y="1767" on="1"/>
        <pt x="137" y="1769" on="0"/>
        <pt x="208" y="1772" on="0"/>
        <pt x="256" y="1772" on="1"/>
        <pt x="318" y="1772" on="0"/>
        <pt x="417" y="1747" on="0"/>
        <pt x="491" y="1692" on="0"/>
        <pt x="538" y="1604" on="0"/>
        <pt x="549" y="1540" on="1"/>
        <pt x="554" y="1514" on="0"/>
        <pt x="557" y="1455" on="0"/>
        <pt x="557" y="1423" on="1"/>
        <pt x="557" y="1102" on="1"/>
        <pt x="557" y="1016" on="0"/>
        <pt x="569" y="908" on="0"/>
        <pt x="594" y="845" on="0"/>
        <pt x="632" y="817" on="0"/>
        <pt x="685" y="806" on="0"/>
        <pt x="753" y="803" on="0"/>
        <pt x="795" y="797" on="1"/>
        <pt x="795" y="606" on="1"/>
        <pt x="750" y="599" on="0"/>
        <pt x="670" y="598" on="0"/>
        <pt x="606" y="576" on="0"/>
        <pt x="564" y="519" on="0"/>
        <pt x="557" y="457" on="1"/>
        <pt x="557" y="-18" on="1"/>
        <pt x="557" y="-50" on="0"/>
        <pt x="554" y="-109" on="0"/>
        <pt x="549" y="-135" on="1"/>
        <pt x="538" y="-199" on="0"/>
        <pt x="491" y="-287" on="0"/>
        <pt x="417" y="-342" on="0"/>
        <pt x="318" y="-367" on="0"/>
        <pt x="256" y="-367" on="1"/>
        <pt x="208" y="-367" on="0"/>
        <pt x="137" y="-365" on="0"/>
        <pt x="112" y="-363" on="1"/>
        <pt x="83" y="-361" on="0"/>
      </contour>
    </TTGlyph>
    <TTGlyph name="bracketleft" xMin="82" yMin="-512" xMax="629" yMax="1612">
      <contour>
        <pt x="82" y="1612" on="1"/>
        <pt x="629" y="1612" on="1"/>
        <pt x="629" y="1366" on="1"/>
        <pt x="406" y="1366" on="1"/>
        <pt x="406" y="-264" on="1"/>
        <pt x="629" y="-264" on="1"/>
        <pt x="629" y="-512" on="1"/>
        <pt x="82" y="-512" on="1"/>
      </contour>
    </TTGlyph>
    <TTGlyph name="bracketright" xMin="43" yMin="-512" xMax="590" yMax="1612">
      <contour>
        <pt x="266" y="1366" on="1"/>
        <pt x="43" y="1366" on="1"/>
        <pt x="43" y="1612" on="1"/>
        <pt x="590" y="1612" on="1"/>
        <pt x="590" y="-512" on="1"/>
        <pt x="43" y="-512" on="1"/>
        <pt x="43" y="-264" on="1"/>
        <pt x="266" y="-264" on="1"/>
      </contour>
    </TTGlyph>
    <TTGlyph name="breve" xMin="41" yMin="1157" xMax="922" yMax="1481">
      <contour>
        <pt x="483" y="1157" on="1"/>
        <pt x="388" y="1157" on="0"/>
        <pt x="244" y="1200" on="0"/>
        <pt x="138" y="1283" on="0"/>
        <pt x="65" y="1403" on="0"/>
        <pt x="41" y="1481" on="1"/>
        <pt x="293" y="1481" on="1"/>
        <pt x="313" y="1421" on="0"/>
        <pt x="408" y="1358" on="0"/>
        <pt x="483" y="1358" on="1"/>
        <pt x="555" y="1358" on="0"/>
        <pt x="647" y="1416" on="0"/>
        <pt x="672" y="1481" on="1"/>
        <pt x="922" y="1481" on="1"/>
        <pt x="900" y="1404" on="0"/>
        <pt x="828" y="1284" on="0"/>
        <pt x="721" y="1201" on="0"/>
        <pt x="577" y="1157" on="0"/>
      </contour>
    </TTGlyph>
    <TTGlyph name="breve.i" xMin="41" yMin="1157" xMax="922" yMax="1481">
      <contour>
        <pt x="483" y="1157" on="1"/>
        <pt x="387" y="1157" on="0"/>
        <pt x="244" y="1200" on="0"/>
        <pt x="139" y="1282" on="0"/>
        <pt x="66" y="1403" on="0"/>
        <pt x="41" y="1481" on="1"/>
        <pt x="293" y="1481" on="1"/>
        <pt x="313" y="1421" on="0"/>
        <pt x="408" y="1358" on="0"/>
        <pt x="483" y="1358" on="1"/>
        <pt x="555" y="1358" on="0"/>
        <pt x="647" y="1415" on="0"/>
        <pt x="672" y="1481" on="1"/>
        <pt x="922" y="1481" on="1"/>
        <pt x="899" y="1403" on="0"/>
        <pt x="827" y="1284" on="0"/>
        <pt x="721" y="1200" on="0"/>
        <pt x="578" y="1157" on="0"/>
        <pt x="483" y="1157" on="1"/>
      </contour>
    </TTGlyph>
    <TTGlyph name="brokenbar" xMin="123" yMin="-270" xMax="375" yMax="1729">
      <contour>
        <pt x="123" y="1729" on="1"/>
        <pt x="375" y="1729" on="1"/>
        <pt x="375" y="971" on="1"/>
        <pt x="123" y="971" on="1"/>
      </contour>
      <contour>
        <pt x="123" y="487" on="1"/>
        <pt x="375" y="487" on="1"/>
        <pt x="375" y="-270" on="1"/>
        <pt x="123" y="-270" on="1"/>
      </contour>
    </TTGlyph>
    <TTGlyph name="bullet" xMin="180" yMin="446" xMax="842" yMax="1108">
      <contour>
        <pt x="180" y="778" on="1"/>
        <pt x="180" y="847" on="0"/>
        <pt x="233" y="967" on="0"/>
        <pt x="323" y="1056" on="0"/>
        <pt x="444" y="1108" on="0"/>
        <pt x="512" y="1108" on="1"/>
        <pt x="580" y="1108" on="0"/>
        <pt x="700" y="1056" on="0"/>
        <pt x="790" y="967" on="0"/>
        <pt x="842" y="847" on="0"/>
        <pt x="842" y="778" on="1"/>
        <pt x="842" y="710" on="0"/>
        <pt x="790" y="589" on="0"/>
        <pt x="700" y="499" on="0"/>
        <pt x="580" y="446" on="0"/>
        <pt x="512" y="446" on="1"/>
        <pt x="444" y="446" on="0"/>
        <pt x="323" y="499" on="0"/>
        <pt x="233" y="589" on="0"/>
        <pt x="180" y="710" on="0"/>
      </contour>
    </TTGlyph>
    <TTGlyph name="c" xMin="72" yMin="-25" xMax="1149" yMax="1071">
      <contour>
        <pt x="856" y="678" on="1"/>
        <pt x="813" y="732" on="0"/>
        <pt x="707" y="787" on="0"/>
        <pt x="635" y="783" on="1"/>
        <pt x="577" y="787" on="0"/>
        <pt x="482" y="747" on="0"/>
        <pt x="413" y="675" on="0"/>
        <pt x="375" y="576" on="0"/>
        <pt x="375" y="514" on="1"/>
        <pt x="375" y="459" on="0"/>
        <pt x="415" y="361" on="0"/>
        <pt x="484" y="290" on="0"/>
        <pt x="579" y="250" on="0"/>
        <pt x="635" y="246" on="1"/>
        <pt x="682" y="250" on="0"/>
        <pt x="759" y="281" on="0"/>
        <pt x="819" y="330" on="0"/>
        <pt x="862" y="391" on="0"/>
        <pt x="874" y="418" on="1"/>
        <pt x="1149" y="342" on="1"/>
        <pt x="1132" y="282" on="0"/>
        <pt x="1049" y="152" on="0"/>
        <pt x="916" y="45" on="0"/>
        <pt x="733" y="-25" on="0"/>
        <pt x="616" y="-25" on="1"/>
        <pt x="497" y="-25" on="0"/>
        <pt x="297" y="62" on="0"/>
        <pt x="153" y="212" on="0"/>
        <pt x="72" y="414" on="0"/>
        <pt x="72" y="530" on="1"/>
        <pt x="72" y="645" on="0"/>
        <pt x="155" y="842" on="0"/>
        <pt x="301" y="989" on="0"/>
        <pt x="502" y="1071" on="0"/>
        <pt x="620" y="1067" on="1"/>
        <pt x="704" y="1071" on="0"/>
        <pt x="862" y="1025" on="0"/>
        <pt x="933" y="979" on="1"/>
        <pt x="1132" y="979" on="1"/>
        <pt x="1132" y="678" on="1"/>
      </contour>
    </TTGlyph>
    <TTGlyph name="cacute" xMin="72" yMin="-25" xMax="2675" yMax="2447">
      <component glyphName="c" x="0" y="0" flags="0x204"/>
      <component glyphName="acute" x="471" y="0" flags="0x4"/>
    </TTGlyph>
    <TTGlyph name="caron" xMin="86" yMin="1137" xMax="872" yMax="1462">
      <contour>
        <pt x="872" y="1462" on="1"/>
        <pt x="600" y="1137" on="1"/>
        <pt x="360" y="1137" on="1"/>
        <pt x="86" y="1462" on="1"/>
        <pt x="332" y="1462" on="1"/>
        <pt x="479" y="1309" on="1"/>
        <pt x="625" y="1462" on="1"/>
      </contour>
    </TTGlyph>
    <TTGlyph name="caron.i" xMin="86" yMin="1137" xMax="872" yMax="1462">
      <contour>
        <pt x="872" y="1462" on="1"/>
        <pt x="600" y="1137" on="1"/>
        <pt x="360" y="1137" on="1"/>
        <pt x="86" y="1462" on="1"/>
        <pt x="332" y="1462" on="1"/>
        <pt x="479" y="1309" on="1"/>
        <pt x="625" y="1462" on="1"/>
      </contour>
    </TTGlyph>
    <TTGlyph name="ccaron" xMin="72" yMin="-25" xMax="1328" yMax="1941">
      <component glyphName="c" x="0" y="0" flags="0x204"/>
      <component glyphName="caron" x="139" y="0" flags="0x4"/>
    </TTGlyph>
    <TTGlyph name="ccedilla" xMin="72" yMin="-455" xMax="1149" yMax="1071">
      <component glyphName="c" x="0" y="0" flags="0x204"/>
      <component glyphName="cedilla" x="113" y="0" flags="0x4"/>
    </TTGlyph>
    <TTGlyph name="cedilla" xMin="182" yMin="-455" xMax="651" yMax="-53">
      <contour>
        <pt x="182" y="-293" on="1"/>
        <pt x="223" y="-290" on="0"/>
        <pt x="296" y="-257" on="0"/>
        <pt x="355" y="-197" on="0"/>
        <pt x="398" y="-110" on="0"/>
        <pt x="408" y="-53" on="1"/>
        <pt x="651" y="-139" on="1"/>
        <pt x="628" y="-218" on="0"/>
        <pt x="544" y="-336" on="0"/>
        <pt x="428" y="-414" on="0"/>
        <pt x="287" y="-454" on="0"/>
        <pt x="207" y="-455" on="1"/>
      </contour>
    </TTGlyph>
    <TTGlyph name="cent" xMin="72" yMin="-188" xMax="1145" yMax="1579">
      <contour>
        <pt x="461" y="-188" on="1"/>
        <pt x="461" y="160" on="1"/>
        <pt x="373" y="184" on="0"/>
        <pt x="230" y="285" on="0"/>
        <pt x="128" y="425" on="0"/>
        <pt x="72" y="598" on="0"/>
        <pt x="72" y="694" on="1"/>
        <pt x="72" y="791" on="0"/>
        <pt x="128" y="963" on="0"/>
        <pt x="231" y="1101" on="0"/>
        <pt x="374" y="1200" on="0"/>
        <pt x="461" y="1224" on="1"/>
        <pt x="461" y="1579" on="1"/>
        <pt x="793" y="1579" on="1"/>
        <pt x="793" y="1218" on="1"/>
        <pt x="828" y="1207" on="0"/>
        <pt x="897" y="1177" on="0"/>
        <pt x="929" y="1157" on="1"/>
        <pt x="1128" y="1157" on="1"/>
        <pt x="1128" y="856" on="1"/>
        <pt x="852" y="856" on="1"/>
        <pt x="809" y="906" on="0"/>
        <pt x="703" y="961" on="0"/>
        <pt x="631" y="961" on="1"/>
        <pt x="573" y="961" on="0"/>
        <pt x="478" y="921" on="0"/>
        <pt x="409" y="849" on="0"/>
        <pt x="371" y="750" on="0"/>
        <pt x="371" y="692" on="1"/>
        <pt x="371" y="633" on="0"/>
        <pt x="411" y="535" on="0"/>
        <pt x="480" y="464" on="0"/>
        <pt x="575" y="424" on="0"/>
        <pt x="631" y="424" on="1"/>
        <pt x="678" y="424" on="0"/>
        <pt x="755" y="455" on="0"/>
        <pt x="815" y="504" on="0"/>
        <pt x="858" y="565" on="0"/>
        <pt x="870" y="596" on="1"/>
        <pt x="1145" y="516" on="1"/>
        <pt x="1131" y="468" on="0"/>
        <pt x="1074" y="363" on="0"/>
        <pt x="986" y="267" on="0"/>
        <pt x="867" y="188" on="0"/>
        <pt x="793" y="165" on="1"/>
        <pt x="793" y="-188" on="1"/>
      </contour>
    </TTGlyph>
    <TTGlyph name="circumflex" xMin="86" yMin="1176" xMax="872" yMax="1501">
      <contour>
        <pt x="86" y="1176" on="1"/>
        <pt x="358" y="1501" on="1"/>
        <pt x="598" y="1501" on="1"/>
        <pt x="872" y="1176" on="1"/>
        <pt x="627" y="1176" on="1"/>
        <pt x="479" y="1329" on="1"/>
        <pt x="334" y="1176" on="1"/>
      </contour>
    </TTGlyph>
    <TTGlyph name="circumflex.i" xMin="86" yMin="1176" xMax="750" yMax="1501">
      <contour>
        <pt x="86" y="1176" on="1"/>
        <pt x="315" y="1501" on="1"/>
        <pt x="518" y="1501" on="1"/>
        <pt x="750" y="1176" on="1"/>
        <pt x="543" y="1176" on="1"/>
        <pt x="418" y="1329" on="1"/>
        <pt x="295" y="1176" on="1"/>
      </contour>
    </TTGlyph>
    <TTGlyph name="colon" xMin="72" yMin="-33" xMax="426" yMax="1085">
      <contour>
        <pt x="72" y="907" on="1"/>
        <pt x="72" y="944" on="0"/>
        <pt x="99" y="1009" on="0"/>
        <pt x="147" y="1057" on="0"/>
        <pt x="212" y="1085" on="0"/>
        <pt x="250" y="1085" on="1"/>
        <pt x="286" y="1085" on="0"/>
        <pt x="350" y="1057" on="0"/>
        <pt x="398" y="1009" on="0"/>
        <pt x="426" y="944" on="0"/>
        <pt x="426" y="907" on="1"/>
        <pt x="426" y="870" on="0"/>
        <pt x="398" y="805" on="0"/>
        <pt x="350" y="757" on="0"/>
        <pt x="286" y="729" on="0"/>
        <pt x="250" y="729" on="1"/>
        <pt x="212" y="729" on="0"/>
        <pt x="147" y="757" on="0"/>
        <pt x="99" y="805" on="0"/>
        <pt x="72" y="870" on="0"/>
      </contour>
      <contour>
        <pt x="72" y="145" on="1"/>
        <pt x="72" y="182" on="0"/>
        <pt x="99" y="247" on="0"/>
        <pt x="147" y="296" on="0"/>
        <pt x="212" y="324" on="0"/>
        <pt x="250" y="324" on="1"/>
        <pt x="286" y="324" on="0"/>
        <pt x="350" y="296" on="0"/>
        <pt x="398" y="247" on="0"/>
        <pt x="426" y="182" on="0"/>
        <pt x="426" y="145" on="1"/>
        <pt x="426" y="108" on="0"/>
        <pt x="398" y="43" on="0"/>
        <pt x="350" y="-5" on="0"/>
        <pt x="286" y="-33" on="0"/>
        <pt x="250" y="-33" on="1"/>
        <pt x="212" y="-33" on="0"/>
        <pt x="147" y="-5" on="0"/>
        <pt x="99" y="43" on="0"/>
        <pt x="72" y="108" on="0"/>
      </contour>
    </TTGlyph>
    <TTGlyph name="comma" xMin="20" yMin="-365" xMax="510" yMax="283">
      <contour>
        <pt x="205" y="283" on="1"/>
        <pt x="510" y="176" on="1"/>
        <pt x="225" y="-365" on="1"/>
        <pt x="20" y="-287" on="1"/>
      </contour>
    </TTGlyph>
    <TTGlyph name="commaaccent" xMin="-4" yMin="1112" xMax="399" yMax="1554">
      <contour>
        <pt x="285" y="1112" on="1"/>
        <pt x="-4" y="1217" on="1"/>
        <pt x="193" y="1554" on="1"/>
        <pt x="399" y="1483" on="1"/>
      </contour>
    </TTGlyph>
    <TTGlyph name="commabelow" xMin="25" yMin="-471" xMax="428" yMax="-29">
      <contour>
        <pt x="139" y="-29" on="1"/>
        <pt x="428" y="-133" on="1"/>
        <pt x="231" y="-471" on="1"/>
        <pt x="25" y="-399" on="1"/>
      </contour>
    </TTGlyph>
    <TTGlyph name="copyright" xMin="102" yMin="-25" xMax="1817" yMax="1686">
      <contour>
        <pt x="102" y="831" on="1"/>
        <pt x="102" y="949" on="0"/>
        <pt x="163" y="1168" on="0"/>
        <pt x="274" y="1358" on="0"/>
        <pt x="430" y="1514" on="0"/>
        <pt x="620" y="1625" on="0"/>
        <pt x="839" y="1686" on="0"/>
        <pt x="958" y="1686" on="1"/>
        <pt x="1076" y="1686" on="0"/>
        <pt x="1296" y="1625" on="0"/>
        <pt x="1487" y="1514" on="0"/>
        <pt x="1644" y="1358" on="0"/>
        <pt x="1756" y="1168" on="0"/>
        <pt x="1817" y="949" on="0"/>
        <pt x="1817" y="831" on="1"/>
        <pt x="1817" y="712" on="0"/>
        <pt x="1756" y="493" on="0"/>
        <pt x="1644" y="303" on="0"/>
        <pt x="1487" y="147" on="0"/>
        <pt x="1296" y="36" on="0"/>
        <pt x="1076" y="-25" on="0"/>
        <pt x="958" y="-25" on="1"/>
        <pt x="839" y="-25" on="0"/>
        <pt x="620" y="36" on="0"/>
        <pt x="430" y="147" on="0"/>
        <pt x="274" y="303" on="0"/>
        <pt x="163" y="493" on="0"/>
        <pt x="102" y="712" on="0"/>
      </contour>
      <contour>
        <pt x="330" y="831" on="1"/>
        <pt x="330" y="743" on="0"/>
        <pt x="374" y="581" on="0"/>
        <pt x="455" y="441" on="0"/>
        <pt x="569" y="326" on="0"/>
        <pt x="709" y="245" on="0"/>
        <pt x="870" y="201" on="0"/>
        <pt x="958" y="201" on="1"/>
        <pt x="1046" y="201" on="0"/>
        <pt x="1208" y="245" on="0"/>
        <pt x="1347" y="326" on="0"/>
        <pt x="1461" y="441" on="0"/>
        <pt x="1542" y="581" on="0"/>
        <pt x="1586" y="743" on="0"/>
        <pt x="1586" y="831" on="1"/>
        <pt x="1586" y="919" on="0"/>
        <pt x="1542" y="1081" on="0"/>
        <pt x="1461" y="1220" on="0"/>
        <pt x="1347" y="1335" on="0"/>
        <pt x="1208" y="1416" on="0"/>
        <pt x="1046" y="1460" on="0"/>
        <pt x="958" y="1460" on="1"/>
        <pt x="871" y="1460" on="0"/>
        <pt x="709" y="1416" on="0"/>
        <pt x="569" y="1335" on="0"/>
        <pt x="455" y="1220" on="0"/>
        <pt x="374" y="1081" on="0"/>
        <pt x="330" y="919" on="0"/>
      </contour>
      <contour>
        <pt x="1148" y="973" on="1"/>
        <pt x="1116" y="1015" on="0"/>
        <pt x="1023" y="1060" on="0"/>
        <pt x="969" y="1060" on="1"/>
        <pt x="920" y="1060" on="0"/>
        <pt x="838" y="1025" on="0"/>
        <pt x="777" y="962" on="0"/>
        <pt x="741" y="878" on="0"/>
        <pt x="741" y="831" on="1"/>
        <pt x="741" y="784" on="0"/>
        <pt x="777" y="700" on="0"/>
        <pt x="838" y="638" on="0"/>
        <pt x="920" y="603" on="0"/>
        <pt x="969" y="603" on="1"/>
        <pt x="1022" y="603" on="0"/>
        <pt x="1114" y="644" on="0"/>
        <pt x="1149" y="686" on="1"/>
        <pt x="1339" y="495" on="1"/>
        <pt x="1269" y="421" on="0"/>
        <pt x="1080" y="334" on="0"/>
        <pt x="969" y="334" on="1"/>
        <pt x="866" y="334" on="0"/>
        <pt x="685" y="412" on="0"/>
        <pt x="550" y="547" on="0"/>
        <pt x="472" y="727" on="0"/>
        <pt x="472" y="831" on="1"/>
        <pt x="472" y="935" on="0"/>
        <pt x="550" y="1116" on="0"/>
        <pt x="685" y="1250" on="0"/>
        <pt x="866" y="1328" on="0"/>
        <pt x="969" y="1328" on="1"/>
        <pt x="1081" y="1328" on="0"/>
        <pt x="1272" y="1242" on="0"/>
        <pt x="1341" y="1168" on="1"/>
      </contour>
    </TTGlyph>
    <TTGlyph name="currency" xMin="51" yMin="55" xMax="1389" yMax="1448">
      <contour>
        <pt x="182" y="741" on="1"/>
        <pt x="182" y="810" on="0"/>
        <pt x="215" y="937" on="0"/>
        <pt x="246" y="994" on="1"/>
        <pt x="51" y="1206" on="1"/>
        <pt x="315" y="1448" on="1"/>
        <pt x="509" y="1236" on="1"/>
        <pt x="558" y="1257" on="0"/>
        <pt x="664" y="1280" on="0"/>
        <pt x="721" y="1280" on="1"/>
        <pt x="777" y="1280" on="0"/>
        <pt x="883" y="1257" on="0"/>
        <pt x="931" y="1237" on="1"/>
        <pt x="1124" y="1448" on="1"/>
        <pt x="1389" y="1206" on="1"/>
        <pt x="1195" y="995" on="1"/>
        <pt x="1226" y="938" on="0"/>
        <pt x="1260" y="810" on="0"/>
        <pt x="1260" y="741" on="1"/>
        <pt x="1260" y="672" on="0"/>
        <pt x="1226" y="543" on="0"/>
        <pt x="1195" y="486" on="1"/>
        <pt x="1374" y="295" on="1"/>
        <pt x="1110" y="55" on="1"/>
        <pt x="932" y="246" on="1"/>
        <pt x="832" y="203" on="0"/>
        <pt x="721" y="203" on="1"/>
        <pt x="664" y="203" on="0"/>
        <pt x="556" y="226" on="0"/>
        <pt x="506" y="248" on="1"/>
        <pt x="330" y="55" on="1"/>
        <pt x="66" y="295" on="1"/>
        <pt x="244" y="490" on="1"/>
        <pt x="215" y="547" on="0"/>
        <pt x="182" y="672" on="0"/>
      </contour>
      <contour>
        <pt x="469" y="750" on="1"/>
        <pt x="469" y="697" on="0"/>
        <pt x="508" y="605" on="0"/>
        <pt x="576" y="537" on="0"/>
        <pt x="668" y="498" on="0"/>
        <pt x="721" y="498" on="1"/>
        <pt x="773" y="498" on="0"/>
        <pt x="865" y="537" on="0"/>
        <pt x="933" y="605" on="0"/>
        <pt x="973" y="697" on="0"/>
        <pt x="973" y="750" on="1"/>
        <pt x="973" y="803" on="0"/>
        <pt x="933" y="895" on="0"/>
        <pt x="865" y="962" on="0"/>
        <pt x="773" y="1001" on="0"/>
        <pt x="721" y="1001" on="1"/>
        <pt x="668" y="1001" on="0"/>
        <pt x="576" y="962" on="0"/>
        <pt x="508" y="894" on="0"/>
        <pt x="469" y="802" on="0"/>
      </contour>
    </TTGlyph>
    <TTGlyph name="cyr.dotlessi" xMin="1323" yMin="0" xMax="1946" yMax="1036">
      <contour>
        <pt x="1323" y="1036" on="1"/>
        <pt x="1946" y="1036" on="1"/>
        <pt x="1946" y="762" on="1"/>
        <pt x="1788" y="762" on="1"/>
        <pt x="1788" y="274" on="1"/>
        <pt x="1946" y="274" on="1"/>
        <pt x="1946" y="0" on="1"/>
        <pt x="1323" y="0" on="1"/>
        <pt x="1323" y="274" on="1"/>
        <pt x="1479" y="274" on="1"/>
        <pt x="1479" y="762" on="1"/>
        <pt x="1323" y="762" on="1"/>
      </contour>
    </TTGlyph>
    <TTGlyph name="d" xMin="72" yMin="-20" xMax="1348" yMax="1556">
      <contour>
        <pt x="693" y="1556" on="1"/>
        <pt x="1146" y="1556" on="1"/>
        <pt x="1146" y="274" on="1"/>
        <pt x="1348" y="274" on="1"/>
        <pt x="1348" y="0" on="1"/>
        <pt x="838" y="0" on="1"/>
        <pt x="838" y="40" on="1"/>
        <pt x="784" y="12" on="0"/>
        <pt x="671" y="-20" on="0"/>
        <pt x="613" y="-20" on="1"/>
        <pt x="494" y="-20" on="0"/>
        <pt x="295" y="65" on="0"/>
        <pt x="152" y="213" on="0"/>
        <pt x="72" y="412" on="0"/>
        <pt x="72" y="526" on="1"/>
        <pt x="72" y="640" on="0"/>
        <pt x="151" y="837" on="0"/>
        <pt x="292" y="983" on="0"/>
        <pt x="489" y="1067" on="0"/>
        <pt x="607" y="1067" on="1"/>
        <pt x="672" y="1067" on="0"/>
        <pt x="786" y="1042" on="0"/>
        <pt x="838" y="1019" on="1"/>
        <pt x="838" y="1282" on="1"/>
        <pt x="693" y="1282" on="1"/>
      </contour>
      <contour>
        <pt x="630" y="256" on="1"/>
        <pt x="696" y="258" on="0"/>
        <pt x="803" y="322" on="0"/>
        <pt x="838" y="374" on="1"/>
        <pt x="838" y="679" on="1"/>
        <pt x="803" y="732" on="0"/>
        <pt x="692" y="791" on="0"/>
        <pt x="630" y="790" on="1"/>
        <pt x="578" y="791" on="0"/>
        <pt x="487" y="753" on="0"/>
        <pt x="418" y="683" on="0"/>
        <pt x="378" y="585" on="0"/>
        <pt x="378" y="523" on="1"/>
        <pt x="378" y="462" on="0"/>
        <pt x="418" y="363" on="0"/>
        <pt x="487" y="294" on="0"/>
        <pt x="578" y="258" on="0"/>
      </contour>
    </TTGlyph>
    <TTGlyph name="dagger" xMin="139" yMin="-471" xMax="1163" yMax="1516">
      <contour>
        <pt x="139" y="1036" on="1"/>
        <pt x="487" y="1036" on="1"/>
        <pt x="487" y="1516" on="1"/>
        <pt x="817" y="1516" on="1"/>
        <pt x="817" y="1036" on="1"/>
        <pt x="1163" y="1036" on="1"/>
        <pt x="1163" y="762" on="1"/>
        <pt x="817" y="762" on="1"/>
        <pt x="817" y="-471" on="1"/>
        <pt x="487" y="-471" on="1"/>
        <pt x="487" y="762" on="1"/>
        <pt x="139" y="762" on="1"/>
      </contour>
    </TTGlyph>
    <TTGlyph name="daggerdbl" xMin="139" yMin="-471" xMax="1163" yMax="1516">
      <contour>
        <pt x="139" y="1036" on="1"/>
        <pt x="487" y="1036" on="1"/>
        <pt x="487" y="1516" on="1"/>
        <pt x="817" y="1516" on="1"/>
        <pt x="817" y="1036" on="1"/>
        <pt x="1163" y="1036" on="1"/>
        <pt x="1163" y="762" on="1"/>
        <pt x="817" y="762" on="1"/>
        <pt x="817" y="274" on="1"/>
        <pt x="1163" y="274" on="1"/>
        <pt x="1163" y="0" on="1"/>
        <pt x="817" y="0" on="1"/>
        <pt x="817" y="-471" on="1"/>
        <pt x="487" y="-471" on="1"/>
        <pt x="487" y="0" on="1"/>
        <pt x="139" y="0" on="1"/>
        <pt x="139" y="274" on="1"/>
        <pt x="487" y="274" on="1"/>
        <pt x="487" y="762" on="1"/>
        <pt x="139" y="762" on="1"/>
      </contour>
    </TTGlyph>
    <TTGlyph name="dcaron" xMin="72" yMin="-20" xMax="1563" yMax="1593">
      <component glyphName="d" x="0" y="0" flags="0x4"/>
      <component glyphName="quotesingle" x="1239" y="0" flags="0x4"/>
    </TTGlyph>
    <TTGlyph name="dcroat" xMin="72" yMin="-20" xMax="1348" yMax="1556">
      <contour>
        <pt x="1145" y="1174" on="1"/>
        <pt x="1145" y="274" on="1"/>
        <pt x="1348" y="274" on="1"/>
        <pt x="1348" y="0" on="1"/>
        <pt x="838" y="0" on="1"/>
        <pt x="838" y="39" on="1"/>
        <pt x="784" y="10" on="0"/>
        <pt x="672" y="-20" on="0"/>
        <pt x="612" y="-20" on="1"/>
        <pt x="494" y="-20" on="0"/>
        <pt x="295" y="66" on="0"/>
        <pt x="152" y="213" on="0"/>
        <pt x="72" y="412" on="0"/>
        <pt x="72" y="526" on="1"/>
        <pt x="72" y="639" on="0"/>
        <pt x="150" y="838" on="0"/>
        <pt x="291" y="983" on="0"/>
        <pt x="487" y="1067" on="0"/>
        <pt x="606" y="1067" on="1"/>
        <pt x="672" y="1067" on="0"/>
        <pt x="784" y="1040" on="0"/>
        <pt x="838" y="1018" on="1"/>
        <pt x="838" y="1174" on="1"/>
        <pt x="631" y="1174" on="1"/>
        <pt x="631" y="1382" on="1"/>
        <pt x="838" y="1382" on="1"/>
        <pt x="838" y="1468" on="1"/>
        <pt x="838" y="1468" on="1"/>
        <pt x="838" y="1556" on="1"/>
        <pt x="1145" y="1556" on="1"/>
        <pt x="1145" y="1382" on="1"/>
        <pt x="1348" y="1382" on="1"/>
        <pt x="1348" y="1174" on="1"/>
      </contour>
      <contour>
        <pt x="629" y="258" on="1"/>
        <pt x="694" y="258" on="0"/>
        <pt x="803" y="322" on="0"/>
        <pt x="838" y="375" on="1"/>
        <pt x="838" y="678" on="1"/>
        <pt x="803" y="731" on="0"/>
        <pt x="690" y="791" on="0"/>
        <pt x="629" y="791" on="1"/>
        <pt x="578" y="791" on="0"/>
        <pt x="485" y="754" on="0"/>
        <pt x="418" y="684" on="0"/>
        <pt x="377" y="586" on="0"/>
        <pt x="377" y="524" on="1"/>
        <pt x="377" y="463" on="0"/>
        <pt x="418" y="362" on="0"/>
        <pt x="485" y="295" on="0"/>
        <pt x="578" y="258" on="0"/>
        <pt x="629" y="258" on="1"/>
      </contour>
    </TTGlyph>
    <TTGlyph name="degree" xMin="102" yMin="1083" xMax="715" yMax="1706">
      <contour>
        <pt x="410" y="1706" on="1"/>
        <pt x="474" y="1706" on="0"/>
        <pt x="586" y="1659" on="0"/>
        <pt x="668" y="1576" on="0"/>
        <pt x="715" y="1462" on="0"/>
        <pt x="715" y="1395" on="1"/>
        <pt x="715" y="1330" on="0"/>
        <pt x="668" y="1217" on="0"/>
        <pt x="586" y="1132" on="0"/>
        <pt x="474" y="1083" on="0"/>
        <pt x="410" y="1083" on="1"/>
        <pt x="345" y="1083" on="0"/>
        <pt x="232" y="1132" on="0"/>
        <pt x="149" y="1217" on="0"/>
        <pt x="102" y="1332" on="0"/>
        <pt x="102" y="1397" on="1"/>
        <pt x="102" y="1461" on="0"/>
        <pt x="150" y="1573" on="0"/>
        <pt x="234" y="1657" on="0"/>
        <pt x="346" y="1706" on="0"/>
      </contour>
      <contour>
        <pt x="258" y="1389" on="1"/>
        <pt x="258" y="1360" on="0"/>
        <pt x="282" y="1306" on="0"/>
        <pt x="322" y="1265" on="0"/>
        <pt x="374" y="1241" on="0"/>
        <pt x="403" y="1241" on="1"/>
        <pt x="437" y="1241" on="0"/>
        <pt x="494" y="1263" on="0"/>
        <pt x="534" y="1303" on="0"/>
        <pt x="557" y="1359" on="0"/>
        <pt x="557" y="1393" on="1"/>
        <pt x="557" y="1427" on="0"/>
        <pt x="535" y="1485" on="0"/>
        <pt x="495" y="1525" on="0"/>
        <pt x="440" y="1548" on="0"/>
        <pt x="408" y="1548" on="1"/>
        <pt x="376" y="1548" on="0"/>
        <pt x="322" y="1524" on="0"/>
        <pt x="281" y="1481" on="0"/>
        <pt x="258" y="1423" on="0"/>
      </contour>
    </TTGlyph>
    <TTGlyph name="dieresis" xMin="47" yMin="1165" xMax="881" yMax="1522">
      <contour>
        <pt x="47" y="1343" on="1"/>
        <pt x="47" y="1380" on="0"/>
        <pt x="74" y="1445" on="0"/>
        <pt x="122" y="1494" on="0"/>
        <pt x="187" y="1522" on="0"/>
        <pt x="225" y="1522" on="1"/>
        <pt x="261" y="1522" on="0"/>
        <pt x="325" y="1494" on="0"/>
        <pt x="373" y="1445" on="0"/>
        <pt x="401" y="1380" on="0"/>
        <pt x="401" y="1343" on="1"/>
        <pt x="401" y="1306" on="0"/>
        <pt x="373" y="1241" on="0"/>
        <pt x="325" y="1193" on="0"/>
        <pt x="261" y="1165" on="0"/>
        <pt x="225" y="1165" on="1"/>
        <pt x="187" y="1165" on="0"/>
        <pt x="122" y="1193" on="0"/>
        <pt x="74" y="1241" on="0"/>
        <pt x="47" y="1306" on="0"/>
      </contour>
      <contour>
        <pt x="526" y="1343" on="1"/>
        <pt x="526" y="1380" on="0"/>
        <pt x="554" y="1445" on="0"/>
        <pt x="602" y="1494" on="0"/>
        <pt x="667" y="1522" on="0"/>
        <pt x="705" y="1522" on="1"/>
        <pt x="741" y="1522" on="0"/>
        <pt x="805" y="1494" on="0"/>
        <pt x="853" y="1445" on="0"/>
        <pt x="881" y="1380" on="0"/>
        <pt x="881" y="1343" on="1"/>
        <pt x="881" y="1306" on="0"/>
        <pt x="853" y="1241" on="0"/>
        <pt x="805" y="1193" on="0"/>
        <pt x="741" y="1165" on="0"/>
        <pt x="705" y="1165" on="1"/>
        <pt x="667" y="1165" on="0"/>
        <pt x="602" y="1193" on="0"/>
        <pt x="554" y="1241" on="0"/>
        <pt x="526" y="1306" on="0"/>
      </contour>
    </TTGlyph>
    <TTGlyph name="dieresis.i" xMin="115" yMin="1184" xMax="809" yMax="1503">
      <contour>
        <pt x="115" y="1343" on="1"/>
        <pt x="115" y="1409" on="0"/>
        <pt x="207" y="1503" on="0"/>
        <pt x="274" y="1503" on="1"/>
        <pt x="307" y="1503" on="0"/>
        <pt x="365" y="1479" on="0"/>
        <pt x="408" y="1436" on="0"/>
        <pt x="432" y="1376" on="0"/>
        <pt x="432" y="1343" on="1"/>
        <pt x="432" y="1311" on="0"/>
        <pt x="408" y="1251" on="0"/>
        <pt x="365" y="1208" on="0"/>
        <pt x="307" y="1184" on="0"/>
        <pt x="274" y="1184" on="1"/>
        <pt x="207" y="1184" on="0"/>
        <pt x="115" y="1278" on="0"/>
        <pt x="115" y="1343" on="1"/>
      </contour>
      <contour>
        <pt x="492" y="1343" on="1"/>
        <pt x="492" y="1409" on="0"/>
        <pt x="584" y="1503" on="0"/>
        <pt x="651" y="1503" on="1"/>
        <pt x="684" y="1503" on="0"/>
        <pt x="741" y="1479" on="0"/>
        <pt x="784" y="1436" on="0"/>
        <pt x="809" y="1376" on="0"/>
        <pt x="809" y="1343" on="1"/>
        <pt x="809" y="1311" on="0"/>
        <pt x="784" y="1251" on="0"/>
        <pt x="741" y="1208" on="0"/>
        <pt x="684" y="1184" on="0"/>
        <pt x="651" y="1184" on="1"/>
        <pt x="584" y="1184" on="0"/>
        <pt x="492" y="1278" on="0"/>
        <pt x="492" y="1343" on="1"/>
      </contour>
    </TTGlyph>
    <TTGlyph name="divide" xMin="99" yMin="-33" xMax="1224" yMax="1085">
      <contour>
        <pt x="99" y="668" on="1"/>
        <pt x="1224" y="668" on="1"/>
        <pt x="1224" y="394" on="1"/>
        <pt x="99" y="394" on="1"/>
      </contour>
      <contour>
        <pt x="445" y="907" on="1"/>
        <pt x="445" y="944" on="0"/>
        <pt x="472" y="1009" on="0"/>
        <pt x="520" y="1057" on="0"/>
        <pt x="585" y="1085" on="0"/>
        <pt x="623" y="1085" on="1"/>
        <pt x="659" y="1085" on="0"/>
        <pt x="723" y="1057" on="0"/>
        <pt x="771" y="1009" on="0"/>
        <pt x="799" y="944" on="0"/>
        <pt x="799" y="907" on="1"/>
        <pt x="799" y="870" on="0"/>
        <pt x="771" y="805" on="0"/>
        <pt x="723" y="757" on="0"/>
        <pt x="659" y="729" on="0"/>
        <pt x="623" y="729" on="1"/>
        <pt x="585" y="729" on="0"/>
        <pt x="520" y="757" on="0"/>
        <pt x="472" y="805" on="0"/>
        <pt x="445" y="870" on="0"/>
      </contour>
      <contour>
        <pt x="445" y="145" on="1"/>
        <pt x="445" y="182" on="0"/>
        <pt x="472" y="247" on="0"/>
        <pt x="520" y="296" on="0"/>
        <pt x="585" y="324" on="0"/>
        <pt x="623" y="324" on="1"/>
        <pt x="659" y="324" on="0"/>
        <pt x="723" y="296" on="0"/>
        <pt x="771" y="247" on="0"/>
        <pt x="799" y="182" on="0"/>
        <pt x="799" y="145" on="1"/>
        <pt x="799" y="108" on="0"/>
        <pt x="771" y="43" on="0"/>
        <pt x="723" y="-5" on="0"/>
        <pt x="659" y="-33" on="0"/>
        <pt x="623" y="-33" on="1"/>
        <pt x="585" y="-33" on="0"/>
        <pt x="520" y="-5" on="0"/>
        <pt x="472" y="43" on="0"/>
        <pt x="445" y="108" on="0"/>
      </contour>
    </TTGlyph>
    <TTGlyph name="divisionslash" xMin="-209" yMin="-61" xMax="1298" yMax="1577">
      <contour>
        <pt x="1042" y="1577" on="1"/>
        <pt x="1298" y="1577" on="1"/>
        <pt x="53" y="-61" on="1"/>
        <pt x="-209" y="-61" on="1"/>
      </contour>
    </TTGlyph>
    <TTGlyph name="dollar" xMin="102" yMin="-188" xMax="1112" yMax="1579">
      <contour>
        <pt x="461" y="-188" on="1"/>
        <pt x="461" y="134" on="1"/>
        <pt x="407" y="150" on="0"/>
        <pt x="314" y="202" on="0"/>
        <pt x="278" y="240" on="1"/>
        <pt x="102" y="240" on="1"/>
        <pt x="102" y="541" on="1"/>
        <pt x="444" y="541" on="1"/>
        <pt x="444" y="505" on="0"/>
        <pt x="468" y="446" on="0"/>
        <pt x="514" y="403" on="0"/>
        <pt x="581" y="379" on="0"/>
        <pt x="625" y="379" on="1"/>
        <pt x="677" y="379" on="0"/>
        <pt x="731" y="421" on="0"/>
        <pt x="731" y="455" on="1"/>
        <pt x="731" y="471" on="0"/>
        <pt x="711" y="498" on="0"/>
        <pt x="679" y="520" on="0"/>
        <pt x="638" y="537" on="0"/>
        <pt x="618" y="543" on="1"/>
        <pt x="432" y="600" on="1"/>
        <pt x="376" y="617" on="0"/>
        <pt x="277" y="670" on="0"/>
        <pt x="203" y="748" on="0"/>
        <pt x="160" y="855" on="0"/>
        <pt x="160" y="926" on="1"/>
        <pt x="160" y="996" on="0"/>
        <pt x="204" y="1107" on="0"/>
        <pt x="284" y="1189" on="0"/>
        <pt x="395" y="1242" on="0"/>
        <pt x="461" y="1255" on="1"/>
        <pt x="461" y="1579" on="1"/>
        <pt x="793" y="1579" on="1"/>
        <pt x="793" y="1238" on="1"/>
        <pt x="835" y="1224" on="0"/>
        <pt x="905" y="1188" on="0"/>
        <pt x="932" y="1167" on="1"/>
        <pt x="1112" y="1167" on="1"/>
        <pt x="1112" y="866" on="1"/>
        <pt x="770" y="866" on="1"/>
        <pt x="769" y="903" on="0"/>
        <pt x="747" y="956" on="0"/>
        <pt x="705" y="994" on="0"/>
        <pt x="645" y="1016" on="0"/>
        <pt x="606" y="1016" on="1"/>
        <pt x="557" y="1016" on="0"/>
        <pt x="504" y="980" on="0"/>
        <pt x="504" y="948" on="1"/>
        <pt x="504" y="930" on="0"/>
        <pt x="526" y="903" on="0"/>
        <pt x="564" y="880" on="0"/>
        <pt x="616" y="861" on="0"/>
        <pt x="645" y="852" on="1"/>
        <pt x="823" y="795" on="1"/>
        <pt x="957" y="753" on="0"/>
        <pt x="1085" y="602" on="0"/>
        <pt x="1085" y="481" on="1"/>
        <pt x="1085" y="417" on="0"/>
        <pt x="1044" y="307" on="0"/>
        <pt x="968" y="217" on="0"/>
        <pt x="860" y="152" on="0"/>
        <pt x="793" y="133" on="1"/>
        <pt x="793" y="-188" on="1"/>
      </contour>
    </TTGlyph>
    <TTGlyph name="dotaccent" xMin="92" yMin="1192" xMax="446" yMax="1548">
      <contour>
        <pt x="92" y="1370" on="1"/>
        <pt x="92" y="1407" on="0"/>
        <pt x="119" y="1472" on="0"/>
        <pt x="167" y="1520" on="0"/>
        <pt x="232" y="1548" on="0"/>
        <pt x="270" y="1548" on="1"/>
        <pt x="306" y="1548" on="0"/>
        <pt x="370" y="1520" on="0"/>
        <pt x="418" y="1472" on="0"/>
        <pt x="446" y="1407" on="0"/>
        <pt x="446" y="1370" on="1"/>
        <pt x="446" y="1333" on="0"/>
        <pt x="418" y="1268" on="0"/>
        <pt x="370" y="1220" on="0"/>
        <pt x="306" y="1192" on="0"/>
        <pt x="270" y="1192" on="1"/>
        <pt x="232" y="1192" on="0"/>
        <pt x="167" y="1220" on="0"/>
        <pt x="119" y="1268" on="0"/>
        <pt x="92" y="1333" on="0"/>
      </contour>
    </TTGlyph>
    <TTGlyph name="dotlessi" xMin="80" yMin="0" xMax="689" yMax="1037">
      <contour>
        <pt x="80" y="1037" on="1"/>
        <pt x="547" y="1036" on="1"/>
        <pt x="547" y="274" on="1"/>
        <pt x="689" y="274" on="1"/>
        <pt x="689" y="0" on="1"/>
        <pt x="81" y="0" on="1"/>
        <pt x="81" y="274" on="1"/>
        <pt x="237" y="274" on="1"/>
        <pt x="237" y="762" on="1"/>
        <pt x="80" y="762" on="1"/>
      </contour>
    </TTGlyph>
    <TTGlyph name="e" xMin="51" yMin="-27" xMax="1114" yMax="1081">
      <contour>
        <pt x="349" y="453" on="1"/>
        <pt x="352" y="422" on="1"/>
        <pt x="363" y="377" on="0"/>
        <pt x="416" y="309" on="0"/>
        <pt x="488" y="263" on="0"/>
        <pt x="576" y="240" on="0"/>
        <pt x="621" y="240" on="1"/>
        <pt x="666" y="240" on="0"/>
        <pt x="747" y="251" on="0"/>
        <pt x="823" y="270" on="0"/>
        <pt x="895" y="295" on="0"/>
        <pt x="932" y="309" on="1"/>
        <pt x="1042" y="104" on="1"/>
        <pt x="985" y="69" on="0"/>
        <pt x="890" y="20" on="0"/>
        <pt x="794" y="-12" on="0"/>
        <pt x="686" y="-27" on="0"/>
        <pt x="614" y="-27" on="1"/>
        <pt x="479" y="-27" on="0"/>
        <pt x="269" y="62" on="0"/>
        <pt x="126" y="214" on="0"/>
        <pt x="51" y="418" on="0"/>
        <pt x="51" y="532" on="1"/>
        <pt x="51" y="646" on="0"/>
        <pt x="130" y="846" on="0"/>
        <pt x="274" y="995" on="0"/>
        <pt x="474" y="1081" on="0"/>
        <pt x="596" y="1081" on="1"/>
        <pt x="718" y="1081" on="0"/>
        <pt x="907" y="1000" on="0"/>
        <pt x="1037" y="857" on="0"/>
        <pt x="1107" y="664" on="0"/>
        <pt x="1110" y="553" on="1"/>
        <pt x="1113" y="528" on="0"/>
        <pt x="1114" y="479" on="0"/>
        <pt x="1112" y="453" on="1"/>
      </contour>
      <contour>
        <pt x="588" y="831" on="1"/>
        <pt x="532" y="831" on="0"/>
        <pt x="453" y="804" on="0"/>
        <pt x="399" y="757" on="0"/>
        <pt x="367" y="697" on="0"/>
        <pt x="358" y="664" on="1"/>
        <pt x="791" y="664" on="1"/>
        <pt x="784" y="698" on="0"/>
        <pt x="758" y="758" on="0"/>
        <pt x="712" y="804" on="0"/>
        <pt x="641" y="831" on="0"/>
      </contour>
    </TTGlyph>
    <TTGlyph name="eacute" xMin="71" yMin="-27" xMax="3711" yMax="2926">
      <component glyphName="e" x="0" y="0" flags="0x204"/>
      <component glyphName="acute" x="438" y="0" flags="0x4"/>
    </TTGlyph>
    <TTGlyph name="ecaron" xMin="71" yMin="-27" xMax="1938" yMax="2817">
      <component glyphName="e" x="0" y="0" flags="0x204"/>
      <component glyphName="caron" x="106" y="0" flags="0x4"/>
    </TTGlyph>
    <TTGlyph name="ecircumflex" xMin="71" yMin="-27" xMax="1685" yMax="2459">
      <component glyphName="e" x="0" y="0" flags="0x204"/>
      <component glyphName="circumflex" x="139" y="0" flags="0x4"/>
    </TTGlyph>
    <TTGlyph name="edieresis" xMin="71" yMin="-27" xMax="1612" yMax="2474">
      <component glyphName="e" x="0" y="0" flags="0x204"/>
      <component glyphName="dieresis" x="119" y="-1" flags="0x4"/>
    </TTGlyph>
    <TTGlyph name="edotaccent" xMin="71" yMin="-27" xMax="1232" yMax="2027">
      <component glyphName="e" x="0" y="0" flags="0x204"/>
      <component glyphName="dotaccent" x="313" y="0" flags="0x4"/>
    </TTGlyph>
    <TTGlyph name="egrave" xMin="71" yMin="-27" xMax="1134" yMax="2447">
      <component glyphName="e" x="0" y="0" flags="0x204"/>
      <component glyphName="grave" x="39" y="0" flags="0x4"/>
    </TTGlyph>
    <TTGlyph name="eight" xMin="113" yMin="-27" xMax="1165" yMax="1544">
      <contour>
        <pt x="639" y="1544" on="1"/>
        <pt x="741" y="1544" on="0"/>
        <pt x="921" y="1472" on="0"/>
        <pt x="1055" y="1350" on="0"/>
        <pt x="1133" y="1188" on="0"/>
        <pt x="1133" y="1098" on="1"/>
        <pt x="1133" y="1010" on="0"/>
        <pt x="1052" y="854" on="0"/>
        <pt x="983" y="795" on="1"/>
        <pt x="1067" y="735" on="0"/>
        <pt x="1165" y="564" on="0"/>
        <pt x="1165" y="461" on="1"/>
        <pt x="1165" y="363" on="0"/>
        <pt x="1084" y="187" on="0"/>
        <pt x="943" y="52" on="0"/>
        <pt x="750" y="-27" on="0"/>
        <pt x="639" y="-27" on="1"/>
        <pt x="565" y="-27" on="0"/>
        <pt x="429" y="10" on="0"/>
        <pt x="312" y="76" on="0"/>
        <pt x="217" y="168" on="0"/>
        <pt x="150" y="275" on="0"/>
        <pt x="113" y="395" on="0"/>
        <pt x="113" y="457" on="1"/>
        <pt x="113" y="563" on="0"/>
        <pt x="213" y="738" on="0"/>
        <pt x="298" y="798" on="1"/>
        <pt x="229" y="856" on="0"/>
        <pt x="150" y="1008" on="0"/>
        <pt x="150" y="1092" on="1"/>
        <pt x="150" y="1185" on="0"/>
        <pt x="227" y="1349" on="0"/>
        <pt x="360" y="1472" on="0"/>
        <pt x="538" y="1544" on="0"/>
      </contour>
      <contour>
        <pt x="403" y="465" on="1"/>
        <pt x="403" y="424" on="0"/>
        <pt x="439" y="350" on="0"/>
        <pt x="503" y="295" on="0"/>
        <pt x="589" y="262" on="0"/>
        <pt x="639" y="262" on="1"/>
        <pt x="688" y="262" on="0"/>
        <pt x="773" y="295" on="0"/>
        <pt x="836" y="350" on="0"/>
        <pt x="872" y="424" on="0"/>
        <pt x="872" y="465" on="1"/>
        <pt x="872" y="505" on="0"/>
        <pt x="836" y="576" on="0"/>
        <pt x="773" y="630" on="0"/>
        <pt x="688" y="662" on="0"/>
        <pt x="639" y="662" on="1"/>
        <pt x="589" y="662" on="0"/>
        <pt x="503" y="630" on="0"/>
        <pt x="439" y="576" on="0"/>
        <pt x="403" y="505" on="0"/>
      </contour>
      <contour>
        <pt x="440" y="1081" on="1"/>
        <pt x="440" y="1047" on="0"/>
        <pt x="470" y="986" on="0"/>
        <pt x="524" y="940" on="0"/>
        <pt x="597" y="913" on="0"/>
        <pt x="639" y="913" on="1"/>
        <pt x="681" y="913" on="0"/>
        <pt x="754" y="940" on="0"/>
        <pt x="808" y="986" on="0"/>
        <pt x="840" y="1047" on="0"/>
        <pt x="840" y="1081" on="1"/>
        <pt x="840" y="1116" on="0"/>
        <pt x="808" y="1179" on="0"/>
        <pt x="754" y="1227" on="0"/>
        <pt x="681" y="1255" on="0"/>
        <pt x="639" y="1255" on="1"/>
        <pt x="597" y="1255" on="0"/>
        <pt x="524" y="1227" on="0"/>
        <pt x="470" y="1179" on="0"/>
        <pt x="440" y="1116" on="0"/>
      </contour>
    </TTGlyph>
    <TTGlyph name="ellipsis" xMin="31" yMin="-31" xMax="1284" yMax="317">
      <contour>
        <pt x="31" y="143" on="1"/>
        <pt x="31" y="180" on="0"/>
        <pt x="60" y="244" on="0"/>
        <pt x="111" y="290" on="0"/>
        <pt x="179" y="317" on="0"/>
        <pt x="217" y="317" on="1"/>
        <pt x="254" y="317" on="0"/>
        <pt x="324" y="290" on="0"/>
        <pt x="376" y="244" on="0"/>
        <pt x="408" y="180" on="0"/>
        <pt x="408" y="143" on="1"/>
        <pt x="408" y="108" on="0"/>
        <pt x="376" y="45" on="0"/>
        <pt x="324" y="-3" on="0"/>
        <pt x="254" y="-31" on="0"/>
        <pt x="217" y="-31" on="1"/>
        <pt x="179" y="-31" on="0"/>
        <pt x="111" y="-3" on="0"/>
        <pt x="60" y="45" on="0"/>
        <pt x="31" y="108" on="0"/>
      </contour>
      <contour>
        <pt x="469" y="143" on="1"/>
        <pt x="469" y="180" on="0"/>
        <pt x="498" y="244" on="0"/>
        <pt x="549" y="290" on="0"/>
        <pt x="617" y="317" on="0"/>
        <pt x="655" y="317" on="1"/>
        <pt x="693" y="317" on="0"/>
        <pt x="762" y="290" on="0"/>
        <pt x="815" y="244" on="0"/>
        <pt x="846" y="180" on="0"/>
        <pt x="846" y="143" on="1"/>
        <pt x="846" y="108" on="0"/>
        <pt x="815" y="45" on="0"/>
        <pt x="762" y="-3" on="0"/>
        <pt x="693" y="-31" on="0"/>
        <pt x="655" y="-31" on="1"/>
        <pt x="617" y="-31" on="0"/>
        <pt x="549" y="-3" on="0"/>
        <pt x="498" y="45" on="0"/>
        <pt x="469" y="108" on="0"/>
      </contour>
      <contour>
        <pt x="907" y="143" on="1"/>
        <pt x="907" y="180" on="0"/>
        <pt x="936" y="244" on="0"/>
        <pt x="987" y="290" on="0"/>
        <pt x="1055" y="317" on="0"/>
        <pt x="1094" y="317" on="1"/>
        <pt x="1131" y="317" on="0"/>
        <pt x="1200" y="290" on="0"/>
        <pt x="1253" y="244" on="0"/>
        <pt x="1284" y="180" on="0"/>
        <pt x="1284" y="143" on="1"/>
        <pt x="1284" y="108" on="0"/>
        <pt x="1253" y="45" on="0"/>
        <pt x="1200" y="-3" on="0"/>
        <pt x="1131" y="-31" on="0"/>
        <pt x="1094" y="-31" on="1"/>
        <pt x="1055" y="-31" on="0"/>
        <pt x="987" y="-3" on="0"/>
        <pt x="936" y="45" on="0"/>
        <pt x="907" y="108" on="0"/>
      </contour>
    </TTGlyph>
    <TTGlyph name="emacron" xMin="71" yMin="-27" xMax="1664" yMax="2349">
      <component glyphName="e" x="0" y="0" flags="0x204"/>
      <component glyphName="macron" x="160" y="0" flags="0x4"/>
    </TTGlyph>
    <TTGlyph name="emdash" xMin="0" yMin="459" xMax="1843" yMax="733">
      <contour>
        <pt x="0" y="733" on="1"/>
        <pt x="1843" y="733" on="1"/>
        <pt x="1843" y="459" on="1"/>
        <pt x="0" y="459" on="1"/>
      </contour>
    </TTGlyph>
    <TTGlyph name="endash" xMin="102" yMin="459" xMax="1126" yMax="733">
      <contour>
        <pt x="102" y="733" on="1"/>
        <pt x="1126" y="733" on="1"/>
        <pt x="1126" y="459" on="1"/>
        <pt x="102" y="459" on="1"/>
      </contour>
    </TTGlyph>
    <TTGlyph name="eogonek" xMin="51" yMin="-471" xMax="1120" yMax="1081">
      <contour>
        <pt x="936" y="37" on="1"/>
        <pt x="887" y="2" on="0"/>
        <pt x="809" y="-70" on="0"/>
        <pt x="764" y="-147" on="0"/>
        <pt x="764" y="-188" on="1"/>
        <pt x="764" y="-238" on="0"/>
        <pt x="831" y="-283" on="0"/>
        <pt x="872" y="-283" on="1"/>
        <pt x="901" y="-283" on="0"/>
        <pt x="952" y="-266" on="0"/>
        <pt x="973" y="-256" on="1"/>
        <pt x="985" y="-299" on="0"/>
        <pt x="1010" y="-383" on="0"/>
        <pt x="1022" y="-426" on="1"/>
        <pt x="999" y="-438" on="0"/>
        <pt x="893" y="-471" on="0"/>
        <pt x="823" y="-471" on="1"/>
        <pt x="678" y="-471" on="0"/>
        <pt x="528" y="-356" on="0"/>
        <pt x="528" y="-254" on="1"/>
        <pt x="528" y="-195" on="0"/>
        <pt x="582" y="-80" on="0"/>
        <pt x="625" y="-27" on="1"/>
        <pt x="614" y="-27" on="1"/>
        <pt x="479" y="-27" on="0"/>
        <pt x="270" y="61" on="0"/>
        <pt x="125" y="215" on="0"/>
        <pt x="51" y="418" on="0"/>
        <pt x="51" y="532" on="1"/>
        <pt x="51" y="645" on="0"/>
        <pt x="131" y="846" on="0"/>
        <pt x="274" y="995" on="0"/>
        <pt x="475" y="1081" on="0"/>
        <pt x="596" y="1081" on="1"/>
        <pt x="733" y="1081" on="0"/>
        <pt x="934" y="983" on="0"/>
        <pt x="1063" y="811" on="0"/>
        <pt x="1120" y="582" on="0"/>
        <pt x="1112" y="453" on="1"/>
        <pt x="348" y="453" on="1"/>
        <pt x="358" y="399" on="0"/>
        <pt x="406" y="322" on="0"/>
        <pt x="477" y="266" on="0"/>
        <pt x="567" y="240" on="0"/>
        <pt x="621" y="240" on="1"/>
        <pt x="713" y="240" on="0"/>
        <pt x="858" y="281" on="0"/>
        <pt x="932" y="309" on="1"/>
        <pt x="961" y="258" on="0"/>
        <pt x="1014" y="156" on="0"/>
        <pt x="1042" y="104" on="1"/>
        <pt x="1018" y="90" on="0"/>
        <pt x="996" y="77" on="1"/>
        <pt x="965" y="58" on="0"/>
      </contour>
      <contour>
        <pt x="588" y="831" on="1"/>
        <pt x="532" y="831" on="0"/>
        <pt x="453" y="803" on="0"/>
        <pt x="397" y="758" on="0"/>
        <pt x="367" y="696" on="0"/>
        <pt x="358" y="664" on="1"/>
        <pt x="791" y="664" on="1"/>
        <pt x="784" y="696" on="0"/>
        <pt x="758" y="758" on="0"/>
        <pt x="713" y="805" on="0"/>
        <pt x="641" y="831" on="0"/>
      </contour>
    </TTGlyph>
    <TTGlyph name="equal" xMin="61" yMin="281" xMax="934" yMax="997">
      <contour>
        <pt x="61" y="567" on="1"/>
        <pt x="934" y="567" on="1"/>
        <pt x="934" y="281" on="1"/>
        <pt x="61" y="281" on="1"/>
      </contour>
      <contour>
        <pt x="61" y="997" on="1"/>
        <pt x="934" y="997" on="1"/>
        <pt x="934" y="711" on="1"/>
        <pt x="61" y="711" on="1"/>
      </contour>
    </TTGlyph>
    <TTGlyph name="estimated" xMin="102" yMin="-31" xMax="1559" yMax="1300">
      <contour>
        <pt x="829" y="-31" on="1"/>
        <pt x="676" y="-31" on="0"/>
        <pt x="410" y="61" on="0"/>
        <pt x="215" y="233" on="0"/>
        <pt x="102" y="479" on="0"/>
        <pt x="102" y="633" on="1"/>
        <pt x="102" y="797" on="0"/>
        <pt x="223" y="1047" on="0"/>
        <pt x="422" y="1214" on="0"/>
        <pt x="684" y="1300" on="0"/>
        <pt x="825" y="1300" on="1"/>
        <pt x="993" y="1300" on="0"/>
        <pt x="1260" y="1202" on="0"/>
        <pt x="1448" y="1022" on="0"/>
        <pt x="1552" y="768" on="0"/>
        <pt x="1559" y="614" on="1"/>
        <pt x="399" y="614" on="1"/>
        <pt x="387" y="614" on="0"/>
        <pt x="371" y="604" on="0"/>
        <pt x="371" y="582" on="1"/>
        <pt x="371" y="244" on="1"/>
        <pt x="371" y="215" on="0"/>
        <pt x="436" y="139" on="0"/>
        <pt x="557" y="72" on="0"/>
        <pt x="725" y="23" on="0"/>
        <pt x="829" y="23" on="1"/>
        <pt x="975" y="23" on="0"/>
        <pt x="1219" y="139" on="0"/>
        <pt x="1292" y="231" on="1"/>
        <pt x="1425" y="231" on="1"/>
        <pt x="1294" y="90" on="0"/>
        <pt x="1006" y="-31" on="0"/>
        <pt x="829" y="-31" on="1"/>
      </contour>
      <contour>
        <pt x="825" y="1247" on="1"/>
        <pt x="739" y="1247" on="0"/>
        <pt x="575" y="1210" on="0"/>
        <pt x="449" y="1153" on="0"/>
        <pt x="371" y="1079" on="0"/>
        <pt x="371" y="1040" on="1"/>
        <pt x="371" y="700" on="1"/>
        <pt x="371" y="668" on="0"/>
        <pt x="401" y="668" on="1"/>
        <pt x="1253" y="668" on="1"/>
        <pt x="1276" y="668" on="0"/>
        <pt x="1288" y="684" on="0"/>
        <pt x="1288" y="700" on="1"/>
        <pt x="1288" y="1040" on="1"/>
        <pt x="1288" y="1079" on="0"/>
        <pt x="1202" y="1155" on="0"/>
        <pt x="1067" y="1212" on="0"/>
        <pt x="903" y="1247" on="0"/>
        <pt x="825" y="1247" on="1"/>
      </contour>
    </TTGlyph>
    <TTGlyph name="eth" xMin="76" yMin="4" xMax="1123" yMax="1534">
      <contour>
        <pt x="955" y="1213" on="1"/>
        <pt x="820" y="1180" on="1"/>
        <pt x="1000" y="856" on="1"/>
        <pt x="1024" y="813" on="0"/>
        <pt x="1068" y="729" on="0"/>
        <pt x="1103" y="643" on="0"/>
        <pt x="1123" y="552" on="0"/>
        <pt x="1123" y="502" on="1"/>
        <pt x="1123" y="397" on="0"/>
        <pt x="1040" y="215" on="0"/>
        <pt x="897" y="81" on="0"/>
        <pt x="707" y="4" on="0"/>
        <pt x="601" y="4" on="1"/>
        <pt x="493" y="4" on="0"/>
        <pt x="301" y="81" on="0"/>
        <pt x="159" y="217" on="0"/>
        <pt x="76" y="403" on="0"/>
        <pt x="76" y="512" on="1"/>
        <pt x="76" y="601" on="0"/>
        <pt x="139" y="759" on="0"/>
        <pt x="249" y="884" on="0"/>
        <pt x="397" y="969" on="0"/>
        <pt x="482" y="985" on="1"/>
        <pt x="505" y="990" on="0"/>
        <pt x="555" y="995" on="0"/>
        <pt x="582" y="994" on="1"/>
        <pt x="517" y="1108" on="1"/>
        <pt x="298" y="1055" on="1"/>
        <pt x="234" y="1323" on="1"/>
        <pt x="376" y="1357" on="1"/>
        <pt x="275" y="1534" on="1"/>
        <pt x="625" y="1534" on="1"/>
        <pt x="682" y="1430" on="1"/>
        <pt x="891" y="1480" on="1"/>
      </contour>
      <contour>
        <pt x="607" y="711" on="1"/>
        <pt x="559" y="711" on="0"/>
        <pt x="473" y="681" on="0"/>
        <pt x="410" y="627" on="0"/>
        <pt x="373" y="551" on="0"/>
        <pt x="373" y="504" on="1"/>
        <pt x="373" y="455" on="0"/>
        <pt x="413" y="378" on="0"/>
        <pt x="478" y="325" on="0"/>
        <pt x="559" y="297" on="0"/>
        <pt x="601" y="297" on="1"/>
        <pt x="659" y="297" on="0"/>
        <pt x="744" y="336" on="0"/>
        <pt x="799" y="398" on="0"/>
        <pt x="826" y="471" on="0"/>
        <pt x="826" y="506" on="1"/>
        <pt x="826" y="556" on="0"/>
        <pt x="792" y="633" on="0"/>
        <pt x="734" y="685" on="0"/>
        <pt x="653" y="711" on="0"/>
      </contour>
    </TTGlyph>
    <TTGlyph name="exclam" xMin="139" yMin="-33" xMax="508" yMax="1577">
      <contour>
        <pt x="139" y="145" on="1"/>
        <pt x="139" y="182" on="0"/>
        <pt x="166" y="247" on="0"/>
        <pt x="214" y="296" on="0"/>
        <pt x="279" y="324" on="0"/>
        <pt x="317" y="324" on="1"/>
        <pt x="353" y="324" on="0"/>
        <pt x="418" y="296" on="0"/>
        <pt x="466" y="247" on="0"/>
        <pt x="494" y="182" on="0"/>
        <pt x="494" y="145" on="1"/>
        <pt x="494" y="108" on="0"/>
        <pt x="466" y="43" on="0"/>
        <pt x="418" y="-5" on="0"/>
        <pt x="353" y="-33" on="0"/>
        <pt x="317" y="-33" on="1"/>
        <pt x="279" y="-33" on="0"/>
        <pt x="214" y="-5" on="0"/>
        <pt x="166" y="43" on="0"/>
        <pt x="139" y="108" on="0"/>
      </contour>
      <contour>
        <pt x="139" y="1577" on="1"/>
        <pt x="508" y="1577" on="1"/>
        <pt x="467" y="510" on="1"/>
        <pt x="180" y="510" on="1"/>
      </contour>
    </TTGlyph>
    <TTGlyph name="exclamdown" xMin="139" yMin="-471" xMax="508" yMax="1163">
      <contour>
        <pt x="139" y="985" on="1"/>
        <pt x="139" y="1022" on="0"/>
        <pt x="166" y="1087" on="0"/>
        <pt x="214" y="1135" on="0"/>
        <pt x="279" y="1163" on="0"/>
        <pt x="317" y="1163" on="1"/>
        <pt x="353" y="1163" on="0"/>
        <pt x="417" y="1135" on="0"/>
        <pt x="465" y="1087" on="0"/>
        <pt x="493" y="1022" on="0"/>
        <pt x="493" y="985" on="1"/>
        <pt x="493" y="948" on="0"/>
        <pt x="465" y="883" on="0"/>
        <pt x="417" y="835" on="0"/>
        <pt x="353" y="807" on="0"/>
        <pt x="317" y="807" on="1"/>
        <pt x="279" y="807" on="0"/>
        <pt x="214" y="835" on="0"/>
        <pt x="166" y="883" on="0"/>
        <pt x="139" y="948" on="0"/>
      </contour>
      <contour>
        <pt x="180" y="596" on="1"/>
        <pt x="467" y="596" on="1"/>
        <pt x="508" y="-471" on="1"/>
        <pt x="139" y="-471" on="1"/>
      </contour>
    </TTGlyph>
    <TTGlyph name="f" xMin="76" yMin="0" xMax="897" yMax="1579">
      <contour>
        <pt x="530" y="1036" on="1"/>
        <pt x="719" y="1036" on="1"/>
        <pt x="719" y="774" on="1"/>
        <pt x="530" y="774" on="1"/>
        <pt x="530" y="274" on="1"/>
        <pt x="721" y="274" on="1"/>
        <pt x="721" y="0" on="1"/>
        <pt x="78" y="0" on="1"/>
        <pt x="78" y="274" on="1"/>
        <pt x="233" y="274" on="1"/>
        <pt x="233" y="774" on="1"/>
        <pt x="76" y="774" on="1"/>
        <pt x="76" y="1036" on="1"/>
        <pt x="233" y="1036" on="1"/>
        <pt x="233" y="1208" on="1"/>
        <pt x="233" y="1299" on="0"/>
        <pt x="297" y="1437" on="0"/>
        <pt x="404" y="1531" on="0"/>
        <pt x="544" y="1579" on="0"/>
        <pt x="621" y="1579" on="1"/>
        <pt x="678" y="1579" on="0"/>
        <pt x="768" y="1562" on="0"/>
        <pt x="836" y="1536" on="0"/>
        <pt x="883" y="1506" on="0"/>
        <pt x="897" y="1493" on="1"/>
        <pt x="782" y="1282" on="1"/>
        <pt x="759" y="1299" on="0"/>
        <pt x="701" y="1319" on="0"/>
        <pt x="659" y="1319" on="1"/>
        <pt x="632" y="1319" on="0"/>
        <pt x="585" y="1301" on="0"/>
        <pt x="550" y="1267" on="0"/>
        <pt x="530" y="1216" on="0"/>
        <pt x="530" y="1182" on="1"/>
      </contour>
    </TTGlyph>
    <TTGlyph name="fi" xMin="76" yMin="0" xMax="1485" yMax="1579">
      <contour>
        <pt x="76" y="1036" on="1"/>
        <pt x="233" y="1036" on="1"/>
        <pt x="233" y="1208" on="1"/>
        <pt x="233" y="1298" on="0"/>
        <pt x="297" y="1438" on="0"/>
        <pt x="403" y="1532" on="0"/>
        <pt x="543" y="1579" on="0"/>
        <pt x="621" y="1579" on="1"/>
        <pt x="735" y="1579" on="0"/>
        <pt x="868" y="1520" on="0"/>
        <pt x="897" y="1493" on="1"/>
        <pt x="782" y="1282" on="1"/>
        <pt x="760" y="1298" on="0"/>
        <pt x="700" y="1319" on="0"/>
        <pt x="659" y="1319" on="1"/>
        <pt x="606" y="1319" on="0"/>
        <pt x="530" y="1249" on="0"/>
        <pt x="530" y="1182" on="1"/>
        <pt x="530" y="1036" on="1"/>
        <pt x="719" y="1036" on="1"/>
        <pt x="719" y="774" on="1"/>
        <pt x="530" y="774" on="1"/>
        <pt x="530" y="274" on="1"/>
        <pt x="721" y="274" on="1"/>
        <pt x="721" y="0" on="1"/>
        <pt x="78" y="0" on="1"/>
        <pt x="78" y="274" on="1"/>
        <pt x="233" y="274" on="1"/>
        <pt x="233" y="774" on="1"/>
        <pt x="76" y="774" on="1"/>
      </contour>
      <contour>
        <pt x="877" y="1036" on="1"/>
        <pt x="1341" y="1036" on="1"/>
        <pt x="1341" y="274" on="1"/>
        <pt x="1485" y="274" on="1"/>
        <pt x="1485" y="0" on="1"/>
        <pt x="877" y="0" on="1"/>
        <pt x="877" y="274" on="1"/>
        <pt x="1032" y="274" on="1"/>
        <pt x="1032" y="762" on="1"/>
        <pt x="877" y="762" on="1"/>
      </contour>
      <contour>
        <pt x="1016" y="1370" on="1"/>
        <pt x="1016" y="1444" on="0"/>
        <pt x="1118" y="1548" on="0"/>
        <pt x="1194" y="1548" on="1"/>
        <pt x="1231" y="1548" on="0"/>
        <pt x="1294" y="1520" on="0"/>
        <pt x="1341" y="1473" on="0"/>
        <pt x="1370" y="1407" on="0"/>
        <pt x="1370" y="1370" on="1"/>
        <pt x="1370" y="1333" on="0"/>
        <pt x="1341" y="1268" on="0"/>
        <pt x="1294" y="1221" on="0"/>
        <pt x="1231" y="1192" on="0"/>
        <pt x="1194" y="1192" on="1"/>
        <pt x="1118" y="1192" on="0"/>
        <pt x="1016" y="1296" on="0"/>
        <pt x="1016" y="1370" on="1"/>
      </contour>
    </TTGlyph>
    <TTGlyph name="five" xMin="111" yMin="-31" xMax="1165" yMax="1516">
      <contour>
        <pt x="436" y="926" on="1"/>
        <pt x="484" y="944" on="0"/>
        <pt x="595" y="969" on="0"/>
        <pt x="659" y="969" on="1"/>
        <pt x="761" y="969" on="0"/>
        <pt x="944" y="906" on="0"/>
        <pt x="1083" y="783" on="0"/>
        <pt x="1165" y="603" on="0"/>
        <pt x="1165" y="485" on="1"/>
        <pt x="1165" y="358" on="0"/>
        <pt x="1075" y="165" on="0"/>
        <pt x="927" y="35" on="0"/>
        <pt x="738" y="-31" on="0"/>
        <pt x="639" y="-31" on="1"/>
        <pt x="541" y="-31" on="0"/>
        <pt x="366" y="20" on="0"/>
        <pt x="226" y="122" on="0"/>
        <pt x="129" y="275" on="0"/>
        <pt x="111" y="377" on="1"/>
        <pt x="420" y="461" on="1"/>
        <pt x="426" y="414" on="0"/>
        <pt x="464" y="340" on="0"/>
        <pt x="521" y="288" on="0"/>
        <pt x="596" y="260" on="0"/>
        <pt x="639" y="260" on="1"/>
        <pt x="687" y="260" on="0"/>
        <pt x="767" y="296" on="0"/>
        <pt x="823" y="359" on="0"/>
        <pt x="854" y="443" on="0"/>
        <pt x="854" y="492" on="1"/>
        <pt x="854" y="533" on="0"/>
        <pt x="822" y="611" on="0"/>
        <pt x="762" y="671" on="0"/>
        <pt x="678" y="707" on="0"/>
        <pt x="627" y="707" on="1"/>
        <pt x="562" y="707" on="0"/>
        <pt x="467" y="682" on="0"/>
        <pt x="418" y="659" on="1"/>
        <pt x="147" y="709" on="1"/>
        <pt x="147" y="1516" on="1"/>
        <pt x="1110" y="1516" on="1"/>
        <pt x="1110" y="1210" on="1"/>
        <pt x="436" y="1210" on="1"/>
      </contour>
    </TTGlyph>
    <TTGlyph name="fl" xMin="76" yMin="0" xMax="1249" yMax="1579">
      <contour>
        <pt x="530" y="1036" on="1"/>
        <pt x="719" y="1036" on="1"/>
        <pt x="719" y="774" on="1"/>
        <pt x="530" y="774" on="1"/>
        <pt x="530" y="274" on="1"/>
        <pt x="721" y="274" on="1"/>
        <pt x="721" y="0" on="1"/>
        <pt x="78" y="0" on="1"/>
        <pt x="78" y="274" on="1"/>
        <pt x="233" y="274" on="1"/>
        <pt x="233" y="774" on="1"/>
        <pt x="76" y="774" on="1"/>
        <pt x="76" y="1036" on="1"/>
        <pt x="233" y="1036" on="1"/>
        <pt x="233" y="1208" on="1"/>
        <pt x="233" y="1298" on="0"/>
        <pt x="297" y="1438" on="0"/>
        <pt x="403" y="1532" on="0"/>
        <pt x="543" y="1579" on="0"/>
        <pt x="621" y="1579" on="1"/>
        <pt x="670" y="1579" on="0"/>
        <pt x="750" y="1565" on="0"/>
        <pt x="782" y="1554" on="1"/>
        <pt x="782" y="1556" on="1"/>
        <pt x="1090" y="1556" on="1"/>
        <pt x="1090" y="274" on="1"/>
        <pt x="1249" y="274" on="1"/>
        <pt x="1249" y="0" on="1"/>
        <pt x="782" y="0" on="1"/>
        <pt x="782" y="1282" on="1"/>
        <pt x="760" y="1298" on="0"/>
        <pt x="700" y="1319" on="0"/>
        <pt x="659" y="1319" on="1"/>
        <pt x="606" y="1319" on="0"/>
        <pt x="530" y="1249" on="0"/>
        <pt x="530" y="1182" on="1"/>
      </contour>
    </TTGlyph>
    <TTGlyph name="florin" xMin="-201" yMin="-471" xMax="1161" yMax="1579">
      <contour>
        <pt x="258" y="1036" on="1"/>
        <pt x="416" y="1036" on="1"/>
        <pt x="446" y="1208" on="1"/>
        <pt x="463" y="1298" on="0"/>
        <pt x="551" y="1438" on="0"/>
        <pt x="674" y="1532" on="0"/>
        <pt x="821" y="1579" on="0"/>
        <pt x="899" y="1579" on="1"/>
        <pt x="1014" y="1579" on="0"/>
        <pt x="1139" y="1520" on="0"/>
        <pt x="1161" y="1493" on="1"/>
        <pt x="1008" y="1282" on="1"/>
        <pt x="987" y="1298" on="0"/>
        <pt x="934" y="1319" on="0"/>
        <pt x="893" y="1319" on="1"/>
        <pt x="840" y="1319" on="0"/>
        <pt x="750" y="1249" on="0"/>
        <pt x="739" y="1182" on="1"/>
        <pt x="713" y="1036" on="1"/>
        <pt x="901" y="1036" on="1"/>
        <pt x="856" y="774" on="1"/>
        <pt x="666" y="774" on="1"/>
        <pt x="512" y="-100" on="1"/>
        <pt x="496" y="-190" on="0"/>
        <pt x="410" y="-330" on="0"/>
        <pt x="285" y="-424" on="0"/>
        <pt x="135" y="-471" on="0"/>
        <pt x="59" y="-471" on="1"/>
        <pt x="-55" y="-471" on="0"/>
        <pt x="-178" y="-412" on="0"/>
        <pt x="-201" y="-385" on="1"/>
        <pt x="-49" y="-174" on="1"/>
        <pt x="-29" y="-190" on="0"/>
        <pt x="27" y="-211" on="0"/>
        <pt x="68" y="-211" on="1"/>
        <pt x="121" y="-211" on="0"/>
        <pt x="209" y="-141" on="0"/>
        <pt x="221" y="-74" on="1"/>
        <pt x="369" y="774" on="1"/>
        <pt x="213" y="774" on="1"/>
      </contour>
    </TTGlyph>
    <TTGlyph name="four" xMin="10" yMin="0" xMax="1196" yMax="1516">
      <contour>
        <pt x="10" y="670" on="1"/>
        <pt x="549" y="1516" on="1"/>
        <pt x="883" y="1516" on="1"/>
        <pt x="352" y="668" on="1"/>
        <pt x="672" y="668" on="1"/>
        <pt x="672" y="961" on="1"/>
        <pt x="985" y="965" on="1"/>
        <pt x="985" y="668" on="1"/>
        <pt x="1196" y="668" on="1"/>
        <pt x="1196" y="414" on="1"/>
        <pt x="985" y="414" on="1"/>
        <pt x="985" y="274" on="1"/>
        <pt x="1178" y="274" on="1"/>
        <pt x="1178" y="0" on="1"/>
        <pt x="528" y="0" on="1"/>
        <pt x="528" y="274" on="1"/>
        <pt x="672" y="274" on="1"/>
        <pt x="672" y="414" on="1"/>
        <pt x="10" y="414" on="1"/>
      </contour>
    </TTGlyph>
    <TTGlyph name="four.fract" xMin="909" yMin="0" xMax="1597" yMax="764">
      <contour>
        <pt x="909" y="348" on="1"/>
        <pt x="1189" y="764" on="1"/>
        <pt x="1404" y="764" on="1"/>
        <pt x="1122" y="342" on="1"/>
        <pt x="1290" y="342" on="1"/>
        <pt x="1290" y="508" on="1"/>
        <pt x="1492" y="508" on="1"/>
        <pt x="1492" y="342" on="1"/>
        <pt x="1597" y="342" on="1"/>
        <pt x="1597" y="182" on="1"/>
        <pt x="1492" y="182" on="1"/>
        <pt x="1492" y="0" on="1"/>
        <pt x="1290" y="0" on="1"/>
        <pt x="1290" y="182" on="1"/>
        <pt x="911" y="182" on="1"/>
      </contour>
    </TTGlyph>
    <TTGlyph name="foursuperior" xMin="238" yMin="840" xMax="905" yMax="1575">
      <contour>
        <pt x="238" y="1178" on="1"/>
        <pt x="498" y="1575" on="1"/>
        <pt x="713" y="1575" on="1"/>
        <pt x="449" y="1171" on="1"/>
        <pt x="618" y="1171" on="1"/>
        <pt x="618" y="1319" on="1"/>
        <pt x="801" y="1319" on="1"/>
        <pt x="801" y="1171" on="1"/>
        <pt x="905" y="1171" on="1"/>
        <pt x="905" y="1012" on="1"/>
        <pt x="801" y="1012" on="1"/>
        <pt x="801" y="840" on="1"/>
        <pt x="618" y="840" on="1"/>
        <pt x="618" y="1012" on="1"/>
        <pt x="240" y="1012" on="1"/>
      </contour>
    </TTGlyph>
    <TTGlyph name="fraction" xMin="71" yMin="-61" xMax="1578" yMax="1577">
      <contour>
        <pt x="1322" y="1577" on="1"/>
        <pt x="1578" y="1577" on="1"/>
        <pt x="333" y="-61" on="1"/>
        <pt x="71" y="-61" on="1"/>
      </contour>
    </TTGlyph>
    <TTGlyph name="g" xMin="72" yMin="-465" xMax="1152" yMax="1067">
      <contour>
        <pt x="849" y="54" on="1"/>
        <pt x="793" y="22" on="0"/>
        <pt x="681" y="-6" on="0"/>
        <pt x="623" y="-6" on="1"/>
        <pt x="503" y="-6" on="0"/>
        <pt x="301" y="76" on="0"/>
        <pt x="154" y="221" on="0"/>
        <pt x="72" y="419" on="0"/>
        <pt x="72" y="535" on="1"/>
        <pt x="72" y="644" on="0"/>
        <pt x="151" y="837" on="0"/>
        <pt x="293" y="982" on="0"/>
        <pt x="491" y="1066" on="0"/>
        <pt x="607" y="1067" on="1"/>
        <pt x="678" y="1066" on="0"/>
        <pt x="797" y="1038" on="0"/>
        <pt x="849" y="1014" on="1"/>
        <pt x="849" y="1036" on="1"/>
        <pt x="1152" y="1036" on="1"/>
        <pt x="1152" y="43" on="1"/>
        <pt x="1152" y="-88" on="0"/>
        <pt x="1062" y="-279" on="0"/>
        <pt x="911" y="-404" on="0"/>
        <pt x="711" y="-465" on="0"/>
        <pt x="601" y="-465" on="1"/>
        <pt x="465" y="-465" on="0"/>
        <pt x="234" y="-391" on="0"/>
        <pt x="144" y="-328" on="1"/>
        <pt x="269" y="-106" on="1"/>
        <pt x="338" y="-150" on="0"/>
        <pt x="500" y="-201" on="0"/>
        <pt x="599" y="-201" on="1"/>
        <pt x="653" y="-201" on="0"/>
        <pt x="744" y="-177" on="0"/>
        <pt x="811" y="-120" on="0"/>
        <pt x="849" y="-24" on="0"/>
        <pt x="849" y="49" on="1"/>
      </contour>
      <contour>
        <pt x="633" y="271" on="1"/>
        <pt x="703" y="271" on="0"/>
        <pt x="816" y="342" on="0"/>
        <pt x="849" y="400" on="1"/>
        <pt x="851" y="652" on="1"/>
        <pt x="817" y="715" on="0"/>
        <pt x="699" y="789" on="0"/>
        <pt x="630" y="790" on="1"/>
        <pt x="581" y="789" on="0"/>
        <pt x="487" y="752" on="0"/>
        <pt x="418" y="684" on="0"/>
        <pt x="378" y="591" on="0"/>
        <pt x="378" y="534" on="1"/>
        <pt x="378" y="474" on="0"/>
        <pt x="418" y="376" on="0"/>
        <pt x="486" y="308" on="0"/>
        <pt x="579" y="271" on="0"/>
      </contour>
    </TTGlyph>
    <TTGlyph name="gbreve" xMin="72" yMin="-465" xMax="1719" yMax="2439">
      <component glyphName="g" x="0" y="0" flags="0x4"/>
      <component glyphName="breve" x="160" y="0" flags="0x4"/>
    </TTGlyph>
    <TTGlyph name="gcommaaccent" xMin="72" yMin="-465" xMax="1152" yMax="1551">
      <component glyphName="g" x="0" y="0" flags="0x4"/>
      <component glyphName="commaaccent" x="485" y="-3" flags="0x4"/>
    </TTGlyph>
    <TTGlyph name="germandbls" xMin="37" yMin="-12" xMax="1288" yMax="1579">
      <contour>
        <pt x="682" y="979" on="1"/>
        <pt x="754" y="979" on="1"/>
        <pt x="791" y="980" on="0"/>
        <pt x="835" y="1011" on="0"/>
        <pt x="866" y="1055" on="0"/>
        <pt x="883" y="1106" on="0"/>
        <pt x="883" y="1128" on="1"/>
        <pt x="883" y="1207" on="0"/>
        <pt x="790" y="1305" on="0"/>
        <pt x="707" y="1305" on="1"/>
        <pt x="671" y="1305" on="0"/>
        <pt x="612" y="1280" on="0"/>
        <pt x="570" y="1233" on="0"/>
        <pt x="547" y="1167" on="0"/>
        <pt x="547" y="1126" on="1"/>
        <pt x="547" y="2" on="1"/>
        <pt x="510" y="2" on="1"/>
        <pt x="510" y="0" on="1"/>
        <pt x="37" y="0" on="1"/>
        <pt x="37" y="274" on="1"/>
        <pt x="244" y="274" on="1"/>
        <pt x="244" y="1182" on="1"/>
        <pt x="244" y="1252" on="0"/>
        <pt x="306" y="1394" on="0"/>
        <pt x="424" y="1508" on="0"/>
        <pt x="596" y="1579" on="0"/>
        <pt x="707" y="1579" on="1"/>
        <pt x="814" y="1579" on="0"/>
        <pt x="987" y="1514" on="0"/>
        <pt x="1108" y="1402" on="0"/>
        <pt x="1174" y="1253" on="0"/>
        <pt x="1174" y="1169" on="1"/>
        <pt x="1174" y="1119" on="0"/>
        <pt x="1157" y="1037" on="0"/>
        <pt x="1127" y="970" on="0"/>
        <pt x="1088" y="918" on="0"/>
        <pt x="1066" y="898" on="1"/>
        <pt x="1171" y="834" on="0"/>
        <pt x="1288" y="626" on="0"/>
        <pt x="1288" y="494" on="1"/>
        <pt x="1288" y="366" on="0"/>
        <pt x="1206" y="176" on="0"/>
        <pt x="1063" y="50" on="0"/>
        <pt x="868" y="-12" on="0"/>
        <pt x="754" y="-12" on="1"/>
        <pt x="734" y="-12" on="0"/>
        <pt x="700" y="-9" on="0"/>
        <pt x="680" y="-6" on="1"/>
        <pt x="694" y="270" on="1"/>
        <pt x="710" y="267" on="0"/>
        <pt x="734" y="266" on="0"/>
        <pt x="750" y="266" on="1"/>
        <pt x="795" y="266" on="0"/>
        <pt x="873" y="299" on="0"/>
        <pt x="930" y="357" on="0"/>
        <pt x="963" y="436" on="0"/>
        <pt x="963" y="483" on="1"/>
        <pt x="963" y="527" on="0"/>
        <pt x="930" y="604" on="0"/>
        <pt x="873" y="661" on="0"/>
        <pt x="796" y="694" on="0"/>
        <pt x="752" y="694" on="1"/>
        <pt x="684" y="694" on="1"/>
      </contour>
    </TTGlyph>
    <TTGlyph name="grave" xMin="168" yMin="1178" xMax="690" yMax="1489">
      <contour>
        <pt x="461" y="1178" on="1"/>
        <pt x="168" y="1464" on="1"/>
        <pt x="168" y="1489" on="1"/>
        <pt x="494" y="1489" on="1"/>
        <pt x="690" y="1178" on="1"/>
      </contour>
    </TTGlyph>
    <TTGlyph name="greater" xMin="41" yMin="164" xMax="797" yMax="948">
      <contour>
        <pt x="797" y="451" on="1"/>
        <pt x="41" y="164" on="1"/>
        <pt x="41" y="414" on="1"/>
        <pt x="489" y="558" on="1"/>
        <pt x="41" y="692" on="1"/>
        <pt x="41" y="948" on="1"/>
        <pt x="797" y="674" on="1"/>
      </contour>
    </TTGlyph>
    <TTGlyph name="greaterequal" xMin="129" yMin="155" xMax="909" yMax="1309">
      <contour>
        <pt x="899" y="811" on="1"/>
        <pt x="143" y="524" on="1"/>
        <pt x="143" y="774" on="1"/>
        <pt x="592" y="918" on="1"/>
        <pt x="143" y="1053" on="1"/>
        <pt x="143" y="1309" on="1"/>
        <pt x="899" y="1034" on="1"/>
      </contour>
      <contour>
        <pt x="129" y="422" on="1"/>
        <pt x="909" y="422" on="1"/>
        <pt x="909" y="155" on="1"/>
        <pt x="129" y="155" on="1"/>
      </contour>
    </TTGlyph>
    <TTGlyph name="guillemotleft" xMin="82" yMin="223" xMax="1008" yMax="1036">
      <contour>
        <pt x="567" y="223" on="1"/>
        <pt x="338" y="223" on="1"/>
        <pt x="82" y="593" on="1"/>
        <pt x="82" y="667" on="1"/>
        <pt x="342" y="1036" on="1"/>
        <pt x="565" y="1036" on="1"/>
        <pt x="354" y="630" on="1"/>
      </contour>
      <contour>
        <pt x="1008" y="223" on="1"/>
        <pt x="778" y="223" on="1"/>
        <pt x="522" y="593" on="1"/>
        <pt x="522" y="667" on="1"/>
        <pt x="782" y="1036" on="1"/>
        <pt x="1006" y="1036" on="1"/>
        <pt x="795" y="630" on="1"/>
      </contour>
    </TTGlyph>
    <TTGlyph name="guillemotright" xMin="31" yMin="223" xMax="956" yMax="1036">
      <contour>
        <pt x="244" y="630" on="1"/>
        <pt x="33" y="1036" on="1"/>
        <pt x="256" y="1036" on="1"/>
        <pt x="516" y="667" on="1"/>
        <pt x="516" y="593" on="1"/>
        <pt x="260" y="223" on="1"/>
        <pt x="31" y="223" on="1"/>
      </contour>
      <contour>
        <pt x="684" y="630" on="1"/>
        <pt x="473" y="1036" on="1"/>
        <pt x="696" y="1036" on="1"/>
        <pt x="956" y="667" on="1"/>
        <pt x="956" y="593" on="1"/>
        <pt x="700" y="223" on="1"/>
        <pt x="471" y="223" on="1"/>
      </contour>
    </TTGlyph>
    <TTGlyph name="guilsinglleft" xMin="82" yMin="223" xMax="567" yMax="1036">
      <contour>
        <pt x="567" y="223" on="1"/>
        <pt x="338" y="223" on="1"/>
        <pt x="82" y="593" on="1"/>
        <pt x="82" y="667" on="1"/>
        <pt x="342" y="1036" on="1"/>
        <pt x="565" y="1036" on="1"/>
        <pt x="354" y="630" on="1"/>
      </contour>
    </TTGlyph>
    <TTGlyph name="guilsinglright" xMin="31" yMin="223" xMax="516" yMax="1036">
      <contour>
        <pt x="244" y="630" on="1"/>
        <pt x="33" y="1036" on="1"/>
        <pt x="256" y="1036" on="1"/>
        <pt x="516" y="667" on="1"/>
        <pt x="516" y="593" on="1"/>
        <pt x="260" y="223" on="1"/>
        <pt x="31" y="223" on="1"/>
      </contour>
    </TTGlyph>
    <TTGlyph name="h" xMin="57" yMin="0" xMax="1346" yMax="1556">
      <contour>
        <pt x="57" y="1556" on="1"/>
        <pt x="524" y="1556" on="1"/>
        <pt x="524" y="940" on="1"/>
        <pt x="583" y="994" on="0"/>
        <pt x="724" y="1055" on="0"/>
        <pt x="809" y="1055" on="1"/>
        <pt x="996" y="1055" on="0"/>
        <pt x="1194" y="846" on="0"/>
        <pt x="1194" y="645" on="1"/>
        <pt x="1194" y="274" on="1"/>
        <pt x="1346" y="274" on="1"/>
        <pt x="1346" y="0" on="1"/>
        <pt x="883" y="0" on="1"/>
        <pt x="883" y="575" on="1"/>
        <pt x="883" y="662" on="0"/>
        <pt x="797" y="762" on="0"/>
        <pt x="729" y="762" on="1"/>
        <pt x="684" y="762" on="0"/>
        <pt x="578" y="712" on="0"/>
        <pt x="524" y="664" on="1"/>
        <pt x="524" y="274" on="1"/>
        <pt x="676" y="274" on="1"/>
        <pt x="676" y="0" on="1"/>
        <pt x="57" y="0" on="1"/>
        <pt x="57" y="274" on="1"/>
        <pt x="217" y="274" on="1"/>
        <pt x="217" y="1282" on="1"/>
        <pt x="57" y="1282" on="1"/>
      </contour>
    </TTGlyph>
    <TTGlyph name="hungarumlaut" xMin="328" yMin="1192" xMax="1167" yMax="1511">
      <contour>
        <pt x="1167" y="1511" on="1"/>
        <pt x="887" y="1192" on="1"/>
        <pt x="698" y="1192" on="1"/>
        <pt x="907" y="1511" on="1"/>
      </contour>
      <contour>
        <pt x="770" y="1511" on="1"/>
        <pt x="514" y="1192" on="1"/>
        <pt x="328" y="1192" on="1"/>
        <pt x="512" y="1511" on="1"/>
      </contour>
    </TTGlyph>
    <TTGlyph name="hyphen" xMin="61" yMin="449" xMax="688" yMax="723">
      <contour>
        <pt x="61" y="449" on="1"/>
        <pt x="61" y="723" on="1"/>
        <pt x="688" y="723" on="1"/>
        <pt x="688" y="449" on="1"/>
      </contour>
    </TTGlyph>
    <TTGlyph name="i" xMin="80" yMin="0" xMax="689" yMax="1548">
      <contour>
        <pt x="80" y="1036" on="1"/>
        <pt x="545" y="1036" on="1"/>
        <pt x="545" y="274" on="1"/>
        <pt x="689" y="274" on="1"/>
        <pt x="689" y="0" on="1"/>
        <pt x="80" y="0" on="1"/>
        <pt x="80" y="274" on="1"/>
        <pt x="236" y="274" on="1"/>
        <pt x="236" y="762" on="1"/>
        <pt x="80" y="762" on="1"/>
      </contour>
      <contour>
        <pt x="220" y="1370" on="1"/>
        <pt x="220" y="1407" on="0"/>
        <pt x="247" y="1472" on="0"/>
        <pt x="295" y="1520" on="0"/>
        <pt x="360" y="1548" on="0"/>
        <pt x="398" y="1548" on="1"/>
        <pt x="434" y="1548" on="0"/>
        <pt x="498" y="1520" on="0"/>
        <pt x="546" y="1472" on="0"/>
        <pt x="574" y="1407" on="0"/>
        <pt x="574" y="1370" on="1"/>
        <pt x="574" y="1333" on="0"/>
        <pt x="546" y="1268" on="0"/>
        <pt x="498" y="1220" on="0"/>
        <pt x="434" y="1192" on="0"/>
        <pt x="398" y="1192" on="1"/>
        <pt x="360" y="1192" on="0"/>
        <pt x="295" y="1220" on="0"/>
        <pt x="247" y="1268" on="0"/>
        <pt x="220" y="1333" on="0"/>
      </contour>
    </TTGlyph>
    <TTGlyph name="iacute" xMin="80" yMin="0" xMax="4270" yMax="3405">
      <component glyphName="dotlessi" x="0" y="0" flags="0x4"/>
      <component glyphName="acute" x="272" y="0" flags="0x4"/>
    </TTGlyph>
    <TTGlyph name="icircumflex" xMin="40" yMin="0" xMax="704" yMax="1501">
      <component glyphName="dotlessi" x="0" y="0" flags="0x4"/>
      <component glyphName="circumflex.i" x="-46" y="0" flags="0x4"/>
    </TTGlyph>
    <TTGlyph name="idieresis" xMin="-4" yMin="0" xMax="690" yMax="1979">
      <component glyphName="dotlessi" x="0" y="0" flags="0x4"/>
      <component glyphName="dieresis.i" x="-87" y="-1" flags="0x4"/>
    </TTGlyph>
    <TTGlyph name="igrave" xMin="80" yMin="0" xMax="865" yMax="2926">
      <component glyphName="dotlessi" x="0" y="0" flags="0x4"/>
      <component glyphName="grave" x="-126" y="0" flags="0x4"/>
    </TTGlyph>
    <TTGlyph name="imacron" xMin="80" yMin="0" xMax="1626" yMax="2828">
      <component glyphName="dotlessi" x="0" y="0" flags="0x4"/>
      <component glyphName="macron" x="-46" y="0" flags="0x4"/>
    </TTGlyph>
    <TTGlyph name="infinity" xMin="61" yMin="352" xMax="1636" yMax="1239">
      <contour>
        <pt x="498" y="352" on="1"/>
        <pt x="406" y="352" on="0"/>
        <pt x="246" y="420" on="0"/>
        <pt x="129" y="539" on="0"/>
        <pt x="61" y="700" on="0"/>
        <pt x="61" y="795" on="1"/>
        <pt x="61" y="887" on="0"/>
        <pt x="129" y="1049" on="0"/>
        <pt x="246" y="1169" on="0"/>
        <pt x="406" y="1239" on="0"/>
        <pt x="498" y="1239" on="1"/>
        <pt x="618" y="1239" on="0"/>
        <pt x="786" y="1120" on="0"/>
        <pt x="852" y="1026" on="1"/>
        <pt x="924" y="1124" on="0"/>
        <pt x="1100" y="1239" on="0"/>
        <pt x="1214" y="1239" on="1"/>
        <pt x="1303" y="1239" on="0"/>
        <pt x="1456" y="1167" on="0"/>
        <pt x="1571" y="1047" on="0"/>
        <pt x="1636" y="885" on="0"/>
        <pt x="1636" y="795" on="1"/>
        <pt x="1636" y="705" on="0"/>
        <pt x="1571" y="545" on="0"/>
        <pt x="1456" y="424" on="0"/>
        <pt x="1303" y="352" on="0"/>
        <pt x="1214" y="352" on="1"/>
        <pt x="1090" y="352" on="0"/>
        <pt x="915" y="467" on="0"/>
        <pt x="846" y="567" on="1"/>
        <pt x="780" y="469" on="0"/>
        <pt x="614" y="352" on="0"/>
        <pt x="498" y="352" on="1"/>
      </contour>
      <contour>
        <pt x="1192" y="969" on="1"/>
        <pt x="1114" y="969" on="0"/>
        <pt x="1016" y="879" on="0"/>
        <pt x="977" y="801" on="1"/>
        <pt x="977" y="799" on="0"/>
        <pt x="981" y="795" on="1"/>
        <pt x="1026" y="702" on="0"/>
        <pt x="1124" y="623" on="0"/>
        <pt x="1192" y="623" on="1"/>
        <pt x="1227" y="623" on="0"/>
        <pt x="1288" y="649" on="0"/>
        <pt x="1335" y="696" on="0"/>
        <pt x="1364" y="760" on="0"/>
        <pt x="1364" y="795" on="1"/>
        <pt x="1364" y="831" on="0"/>
        <pt x="1335" y="895" on="0"/>
        <pt x="1288" y="942" on="0"/>
        <pt x="1227" y="969" on="0"/>
        <pt x="1192" y="969" on="1"/>
      </contour>
      <contour>
        <pt x="502" y="623" on="1"/>
        <pt x="573" y="623" on="0"/>
        <pt x="668" y="705" on="0"/>
        <pt x="713" y="795" on="1"/>
        <pt x="717" y="803" on="1"/>
        <pt x="700" y="834" on="0"/>
        <pt x="655" y="895" on="0"/>
        <pt x="598" y="940" on="0"/>
        <pt x="535" y="969" on="0"/>
        <pt x="502" y="969" on="1"/>
        <pt x="465" y="969" on="0"/>
        <pt x="403" y="942" on="0"/>
        <pt x="358" y="895" on="0"/>
        <pt x="334" y="831" on="0"/>
        <pt x="334" y="795" on="1"/>
        <pt x="334" y="760" on="0"/>
        <pt x="358" y="696" on="0"/>
        <pt x="403" y="649" on="0"/>
        <pt x="465" y="623" on="0"/>
        <pt x="502" y="623" on="1"/>
      </contour>
    </TTGlyph>
    <TTGlyph name="integral" xMin="-133" yMin="-471" xMax="897" yMax="1579">
      <contour>
        <pt x="530" y="-100" on="1"/>
        <pt x="530" y="-190" on="0"/>
        <pt x="467" y="-330" on="0"/>
        <pt x="360" y="-424" on="0"/>
        <pt x="219" y="-471" on="0"/>
        <pt x="143" y="-471" on="1"/>
        <pt x="29" y="-471" on="0"/>
        <pt x="-104" y="-412" on="0"/>
        <pt x="-133" y="-385" on="1"/>
        <pt x="-18" y="-174" on="1"/>
        <pt x="4" y="-190" on="0"/>
        <pt x="63" y="-211" on="0"/>
        <pt x="104" y="-211" on="1"/>
        <pt x="158" y="-211" on="0"/>
        <pt x="233" y="-141" on="0"/>
        <pt x="233" y="-74" on="1"/>
        <pt x="233" y="1208" on="1"/>
        <pt x="233" y="1298" on="0"/>
        <pt x="297" y="1438" on="0"/>
        <pt x="403" y="1532" on="0"/>
        <pt x="543" y="1579" on="0"/>
        <pt x="621" y="1579" on="1"/>
        <pt x="735" y="1579" on="0"/>
        <pt x="868" y="1520" on="0"/>
        <pt x="897" y="1493" on="1"/>
        <pt x="782" y="1282" on="1"/>
        <pt x="760" y="1298" on="0"/>
        <pt x="700" y="1319" on="0"/>
        <pt x="659" y="1319" on="1"/>
        <pt x="606" y="1319" on="0"/>
        <pt x="530" y="1249" on="0"/>
        <pt x="530" y="1182" on="1"/>
      </contour>
    </TTGlyph>
    <TTGlyph name="iogonek" xMin="82" yMin="-471" xMax="691" yMax="1036">
      <contour>
        <pt x="82" y="1036" on="1"/>
        <pt x="547" y="1036" on="1"/>
        <pt x="547" y="274" on="1"/>
        <pt x="691" y="274" on="1"/>
        <pt x="691" y="0" on="1"/>
        <pt x="605" y="0" on="1"/>
        <pt x="566" y="-2" on="0"/>
        <pt x="482" y="-31" on="0"/>
        <pt x="410" y="-84" on="0"/>
        <pt x="365" y="-156" on="0"/>
        <pt x="365" y="-199" on="1"/>
        <pt x="365" y="-246" on="0"/>
        <pt x="424" y="-283" on="0"/>
        <pt x="453" y="-283" on="1"/>
        <pt x="484" y="-283" on="0"/>
        <pt x="535" y="-270" on="0"/>
        <pt x="556" y="-260" on="1"/>
        <pt x="605" y="-430" on="1"/>
        <pt x="582" y="-442" on="0"/>
        <pt x="480" y="-471" on="0"/>
        <pt x="427" y="-471" on="1"/>
        <pt x="295" y="-471" on="0"/>
        <pt x="136" y="-362" on="0"/>
        <pt x="136" y="-260" on="1"/>
        <pt x="136" y="-174" on="0"/>
        <pt x="220" y="-45" on="0"/>
        <pt x="283" y="0" on="1"/>
        <pt x="82" y="0" on="1"/>
        <pt x="82" y="274" on="1"/>
        <pt x="238" y="274" on="1"/>
        <pt x="238" y="762" on="1"/>
        <pt x="82" y="762" on="1"/>
      </contour>
    </TTGlyph>
    <TTGlyph name="j" xMin="51" yMin="-469" xMax="539" yMax="1548">
      <contour>
        <pt x="51" y="1036" on="1"/>
        <pt x="506" y="1036" on="1"/>
        <pt x="506" y="-18" on="1"/>
        <pt x="506" y="-137" on="0"/>
        <pt x="447" y="-307" on="0"/>
        <pt x="334" y="-417" on="0"/>
        <pt x="168" y="-469" on="0"/>
        <pt x="61" y="-469" on="1"/>
        <pt x="57" y="-242" on="1"/>
        <pt x="129" y="-239" on="0"/>
        <pt x="199" y="-130" on="0"/>
        <pt x="199" y="-39" on="1"/>
        <pt x="199" y="762" on="1"/>
        <pt x="51" y="762" on="1"/>
      </contour>
      <contour>
        <pt x="182" y="1370" on="1"/>
        <pt x="182" y="1407" on="0"/>
        <pt x="209" y="1472" on="0"/>
        <pt x="257" y="1520" on="0"/>
        <pt x="322" y="1548" on="0"/>
        <pt x="360" y="1548" on="1"/>
        <pt x="396" y="1548" on="0"/>
        <pt x="461" y="1520" on="0"/>
        <pt x="510" y="1472" on="0"/>
        <pt x="539" y="1407" on="0"/>
        <pt x="539" y="1370" on="1"/>
        <pt x="539" y="1333" on="0"/>
        <pt x="510" y="1268" on="0"/>
        <pt x="461" y="1220" on="0"/>
        <pt x="396" y="1192" on="0"/>
        <pt x="360" y="1192" on="1"/>
        <pt x="322" y="1192" on="0"/>
        <pt x="257" y="1220" on="0"/>
        <pt x="209" y="1268" on="0"/>
        <pt x="182" y="1333" on="0"/>
      </contour>
    </TTGlyph>
    <TTGlyph name="k" xMin="57" yMin="0" xMax="1307" yMax="1556">
      <contour>
        <pt x="57" y="1556" on="1"/>
        <pt x="524" y="1556" on="1"/>
        <pt x="524" y="659" on="1"/>
        <pt x="699" y="659" on="1"/>
        <pt x="771" y="762" on="1"/>
        <pt x="771" y="1036" on="1"/>
        <pt x="1307" y="1036" on="1"/>
        <pt x="1307" y="762" on="1"/>
        <pt x="1121" y="762" on="1"/>
        <pt x="928" y="539" on="1"/>
        <pt x="1125" y="301" on="1"/>
        <pt x="1297" y="301" on="1"/>
        <pt x="1297" y="0" on="1"/>
        <pt x="1016" y="0" on="1"/>
        <pt x="680" y="444" on="1"/>
        <pt x="524" y="444" on="1"/>
        <pt x="524" y="274" on="1"/>
        <pt x="630" y="274" on="1"/>
        <pt x="630" y="0" on="1"/>
        <pt x="57" y="0" on="1"/>
        <pt x="57" y="274" on="1"/>
        <pt x="217" y="274" on="1"/>
        <pt x="217" y="1282" on="1"/>
        <pt x="57" y="1282" on="1"/>
      </contour>
    </TTGlyph>
    <TTGlyph name="kcommaaccent" xMin="57" yMin="-471" xMax="2118" yMax="1556">
      <component glyphName="k" x="0" y="0" flags="0x204"/>
      <component glyphName="commabelow" x="498" y="0" flags="0x4"/>
    </TTGlyph>
    <TTGlyph name="l" xMin="59" yMin="0" xMax="686" yMax="1556">
      <contour>
        <pt x="59" y="1556" on="1"/>
        <pt x="526" y="1556" on="1"/>
        <pt x="526" y="274" on="1"/>
        <pt x="686" y="274" on="1"/>
        <pt x="686" y="0" on="1"/>
        <pt x="59" y="0" on="1"/>
        <pt x="59" y="274" on="1"/>
        <pt x="219" y="274" on="1"/>
        <pt x="219" y="1282" on="1"/>
        <pt x="59" y="1282" on="1"/>
      </contour>
    </TTGlyph>
    <TTGlyph name="lacute" xMin="59" yMin="0" xMax="4709" yMax="4253">
      <component glyphName="l" x="0" y="0" flags="0x204"/>
      <component glyphName="acute" x="158" y="451" flags="0x4"/>
    </TTGlyph>
    <TTGlyph name="lcaron" xMin="59" yMin="0" xMax="3171" yMax="1556">
      <component glyphName="l" x="0" y="0" flags="0x4"/>
      <component glyphName="quotesingle" x="631" y="0" flags="0x4"/>
    </TTGlyph>
    <TTGlyph name="lcommaaccent" xMin="59" yMin="-471" xMax="2728" yMax="1556">
      <component glyphName="l" x="0" y="0" flags="0x204"/>
      <component glyphName="commabelow" x="164" y="0" flags="0x4"/>
    </TTGlyph>
    <TTGlyph name="less" xMin="31" yMin="164" xMax="786" yMax="948">
      <contour>
        <pt x="31" y="674" on="1"/>
        <pt x="786" y="948" on="1"/>
        <pt x="786" y="692" on="1"/>
        <pt x="338" y="558" on="1"/>
        <pt x="786" y="414" on="1"/>
        <pt x="786" y="164" on="1"/>
        <pt x="31" y="451" on="1"/>
      </contour>
    </TTGlyph>
    <TTGlyph name="lessequal" xMin="29" yMin="155" xMax="801" yMax="1309">
      <contour>
        <pt x="31" y="1034" on="1"/>
        <pt x="786" y="1309" on="1"/>
        <pt x="786" y="1053" on="1"/>
        <pt x="338" y="918" on="1"/>
        <pt x="786" y="774" on="1"/>
        <pt x="786" y="524" on="1"/>
        <pt x="31" y="811" on="1"/>
      </contour>
      <contour>
        <pt x="29" y="422" on="1"/>
        <pt x="801" y="422" on="1"/>
        <pt x="801" y="155" on="1"/>
        <pt x="29" y="155" on="1"/>
      </contour>
    </TTGlyph>
    <TTGlyph name="logicalnot" xMin="51" yMin="248" xMax="1526" yMax="1036">
      <contour>
        <pt x="1526" y="1036" on="1"/>
        <pt x="1526" y="248" on="1"/>
        <pt x="1239" y="248" on="1"/>
        <pt x="1239" y="782" on="1"/>
        <pt x="51" y="782" on="1"/>
        <pt x="51" y="1036" on="1"/>
      </contour>
    </TTGlyph>
    <TTGlyph name="lozenge" xMin="80" yMin="0" xMax="1204" yMax="1518">
      <contour>
        <pt x="80" y="774" on="1"/>
        <pt x="522" y="1518" on="1"/>
        <pt x="750" y="1518" on="1"/>
        <pt x="1204" y="774" on="1"/>
        <pt x="743" y="0" on="1"/>
        <pt x="524" y="0" on="1"/>
      </contour>
      <contour>
        <pt x="627" y="406" on="1"/>
        <pt x="850" y="764" on="1"/>
        <pt x="627" y="1108" on="1"/>
        <pt x="432" y="764" on="1"/>
      </contour>
    </TTGlyph>
    <TTGlyph name="lslash" xMin="61" yMin="0" xMax="686" yMax="1556">
      <contour>
        <pt x="61" y="1556" on="1"/>
        <pt x="528" y="1556" on="1"/>
        <pt x="528" y="1282" on="1"/>
        <pt x="526" y="1282" on="1"/>
        <pt x="526" y="1075" on="1"/>
        <pt x="684" y="1188" on="1"/>
        <pt x="684" y="852" on="1"/>
        <pt x="526" y="739" on="1"/>
        <pt x="526" y="274" on="1"/>
        <pt x="686" y="274" on="1"/>
        <pt x="686" y="0" on="1"/>
        <pt x="63" y="0" on="1"/>
        <pt x="63" y="274" on="1"/>
        <pt x="219" y="274" on="1"/>
        <pt x="219" y="518" on="1"/>
        <pt x="66" y="410" on="1"/>
        <pt x="66" y="745" on="1"/>
        <pt x="219" y="854" on="1"/>
        <pt x="219" y="1282" on="1"/>
        <pt x="61" y="1282" on="1"/>
      </contour>
    </TTGlyph>
    <TTGlyph name="m" xMin="80" yMin="0" xMax="2108" yMax="1057">
      <contour>
        <pt x="82" y="1036" on="1"/>
        <pt x="556" y="1036" on="1"/>
        <pt x="556" y="946" on="1"/>
        <pt x="620" y="997" on="0"/>
        <pt x="780" y="1057" on="0"/>
        <pt x="865" y="1057" on="1"/>
        <pt x="983" y="1057" on="0"/>
        <pt x="1152" y="974" on="0"/>
        <pt x="1200" y="889" on="1"/>
        <pt x="1233" y="926" on="0"/>
        <pt x="1316" y="987" on="0"/>
        <pt x="1410" y="1032" on="0"/>
        <pt x="1513" y="1057" on="0"/>
        <pt x="1567" y="1057" on="1"/>
        <pt x="1757" y="1057" on="0"/>
        <pt x="1961" y="847" on="0"/>
        <pt x="1961" y="645" on="1"/>
        <pt x="1961" y="274" on="1"/>
        <pt x="2108" y="274" on="1"/>
        <pt x="2108" y="0" on="1"/>
        <pt x="1635" y="0" on="1"/>
        <pt x="1635" y="594" on="1"/>
        <pt x="1635" y="682" on="0"/>
        <pt x="1544" y="782" on="0"/>
        <pt x="1463" y="782" on="1"/>
        <pt x="1407" y="782" on="0"/>
        <pt x="1308" y="729" on="0"/>
        <pt x="1259" y="664" on="1"/>
        <pt x="1260" y="653" on="0"/>
        <pt x="1260" y="630" on="0"/>
        <pt x="1260" y="618" on="1"/>
        <pt x="1260" y="274" on="1"/>
        <pt x="1410" y="274" on="1"/>
        <pt x="1410" y="0" on="1"/>
        <pt x="937" y="0" on="1"/>
        <pt x="937" y="596" on="1"/>
        <pt x="937" y="638" on="0"/>
        <pt x="911" y="706" on="0"/>
        <pt x="865" y="754" on="0"/>
        <pt x="802" y="781" on="0"/>
        <pt x="764" y="782" on="1"/>
        <pt x="714" y="783" on="0"/>
        <pt x="607" y="737" on="0"/>
        <pt x="558" y="675" on="1"/>
        <pt x="558" y="274" on="1"/>
        <pt x="724" y="274" on="1"/>
        <pt x="724" y="0" on="1"/>
        <pt x="80" y="0" on="1"/>
        <pt x="80" y="274" on="1"/>
        <pt x="234" y="274" on="1"/>
        <pt x="234" y="762" on="1"/>
        <pt x="82" y="762" on="1"/>
      </contour>
    </TTGlyph>
    <TTGlyph name="macron" xMin="82" yMin="1176" xMax="770" yMax="1391">
      <contour>
        <pt x="770" y="1176" on="1"/>
        <pt x="82" y="1176" on="1"/>
        <pt x="82" y="1391" on="1"/>
        <pt x="770" y="1391" on="1"/>
      </contour>
    </TTGlyph>
    <TTGlyph name="macron#1" xMin="82" yMin="1176" xMax="770" yMax="1391">
      <component glyphName="macron" x="0" y="0" flags="0x204"/>
    </TTGlyph>
    <TTGlyph name="minus" xMin="102" yMin="459" xMax="1126" yMax="733">
      <contour>
        <pt x="102" y="733" on="1"/>
        <pt x="1126" y="733" on="1"/>
        <pt x="1126" y="459" on="1"/>
        <pt x="102" y="459" on="1"/>
      </contour>
    </TTGlyph>
    <TTGlyph name="mu" xMin="154" yMin="-471" xMax="1308" yMax="1036">
      <contour>
        <pt x="1183" y="274" on="1"/>
        <pt x="1308" y="274" on="1"/>
        <pt x="1308" y="0" on="1"/>
        <pt x="870" y="0" on="1"/>
        <pt x="870" y="88" on="1"/>
        <pt x="817" y="40" on="0"/>
        <pt x="674" y="-12" on="0"/>
        <pt x="581" y="-12" on="1"/>
        <pt x="531" y="-12" on="0"/>
        <pt x="486" y="-3" on="1"/>
        <pt x="486" y="-471" on="1"/>
        <pt x="154" y="-471" on="1"/>
        <pt x="154" y="1036" on="1"/>
        <pt x="489" y="1036" on="1"/>
        <pt x="489" y="426" on="1"/>
        <pt x="489" y="322" on="0"/>
        <pt x="595" y="219" on="0"/>
        <pt x="679" y="219" on="1"/>
        <pt x="739" y="219" on="0"/>
        <pt x="838" y="294" on="0"/>
        <pt x="860" y="356" on="1"/>
        <pt x="860" y="1036" on="1"/>
        <pt x="1183" y="1036" on="1"/>
      </contour>
    </TTGlyph>
    <TTGlyph name="multiply" xMin="61" yMin="94" xMax="1178" yMax="1253">
      <contour>
        <pt x="417" y="666" on="1"/>
        <pt x="61" y="1053" on="1"/>
        <pt x="283" y="1253" on="1"/>
        <pt x="619" y="887" on="1"/>
        <pt x="956" y="1253" on="1"/>
        <pt x="1178" y="1053" on="1"/>
        <pt x="822" y="666" on="1"/>
        <pt x="1165" y="293" on="1"/>
        <pt x="944" y="94" on="1"/>
        <pt x="619" y="446" on="1"/>
        <pt x="295" y="94" on="1"/>
        <pt x="74" y="293" on="1"/>
      </contour>
    </TTGlyph>
    <TTGlyph name="n" xMin="80" yMin="0" xMax="1405" yMax="1055">
      <contour>
        <pt x="932" y="596" on="1"/>
        <pt x="932" y="683" on="0"/>
        <pt x="840" y="782" on="0"/>
        <pt x="764" y="782" on="1"/>
        <pt x="712" y="782" on="0"/>
        <pt x="606" y="736" on="0"/>
        <pt x="556" y="673" on="1"/>
        <pt x="556" y="274" on="1"/>
        <pt x="724" y="274" on="1"/>
        <pt x="724" y="0" on="1"/>
        <pt x="80" y="0" on="1"/>
        <pt x="80" y="274" on="1"/>
        <pt x="232" y="274" on="1"/>
        <pt x="232" y="762" on="1"/>
        <pt x="82" y="762" on="1"/>
        <pt x="82" y="1036" on="1"/>
        <pt x="554" y="1036" on="1"/>
        <pt x="554" y="945" on="1"/>
        <pt x="619" y="996" on="0"/>
        <pt x="780" y="1055" on="0"/>
        <pt x="869" y="1055" on="1"/>
        <pt x="1056" y="1055" on="0"/>
        <pt x="1258" y="846" on="0"/>
        <pt x="1258" y="645" on="1"/>
        <pt x="1258" y="274" on="1"/>
        <pt x="1405" y="274" on="1"/>
        <pt x="1405" y="0" on="1"/>
        <pt x="932" y="0" on="1"/>
      </contour>
    </TTGlyph>
    <TTGlyph name="nacute" xMin="80" yMin="0" xMax="6010" yMax="4732">
      <component glyphName="n" x="0" y="0" flags="0x204"/>
      <component glyphName="acute" x="590" y="0" flags="0x4"/>
    </TTGlyph>
    <TTGlyph name="napostrophe" xMin="80" yMin="0" xMax="1405" yMax="1561">
      <component glyphName="n" x="0" y="0" flags="0x204"/>
      <component glyphName="apostrophe" x="274" y="68" flags="0x4"/>
    </TTGlyph>
    <TTGlyph name="ncaron" xMin="80" yMin="0" xMax="2596" yMax="3296">
      <component glyphName="n" x="0" y="0" flags="0x204"/>
      <component glyphName="caron" x="279" y="0" flags="0x4"/>
    </TTGlyph>
    <TTGlyph name="ncommaaccent" xMin="80" yMin="-471" xMax="3855" yMax="1055">
      <component glyphName="n" x="0" y="0" flags="0x204"/>
      <component glyphName="commabelow" x="504" y="0" flags="0x4"/>
    </TTGlyph>
    <TTGlyph name="nine" xMin="106" yMin="-2" xMax="1153" yMax="1528">
      <contour>
        <pt x="305" y="-2" on="1"/>
        <pt x="612" y="538" on="1"/>
        <pt x="585" y="536" on="0"/>
        <pt x="535" y="542" on="0"/>
        <pt x="512" y="547" on="1"/>
        <pt x="427" y="563" on="0"/>
        <pt x="279" y="648" on="0"/>
        <pt x="169" y="773" on="0"/>
        <pt x="106" y="931" on="0"/>
        <pt x="106" y="1020" on="1"/>
        <pt x="106" y="1129" on="0"/>
        <pt x="189" y="1315" on="0"/>
        <pt x="331" y="1451" on="0"/>
        <pt x="523" y="1528" on="0"/>
        <pt x="631" y="1528" on="1"/>
        <pt x="737" y="1528" on="0"/>
        <pt x="927" y="1451" on="0"/>
        <pt x="1070" y="1317" on="0"/>
        <pt x="1153" y="1135" on="0"/>
        <pt x="1153" y="1030" on="1"/>
        <pt x="1153" y="980" on="0"/>
        <pt x="1133" y="889" on="0"/>
        <pt x="1098" y="803" on="0"/>
        <pt x="1054" y="719" on="0"/>
        <pt x="1030" y="676" on="1"/>
        <pt x="655" y="-2" on="1"/>
      </contour>
      <contour>
        <pt x="637" y="821" on="1"/>
        <pt x="695" y="821" on="0"/>
        <pt x="791" y="862" on="0"/>
        <pt x="823" y="903" on="1"/>
        <pt x="837" y="929" on="0"/>
        <pt x="856" y="990" on="0"/>
        <pt x="856" y="1026" on="1"/>
        <pt x="856" y="1060" on="0"/>
        <pt x="829" y="1134" on="0"/>
        <pt x="774" y="1196" on="0"/>
        <pt x="689" y="1235" on="0"/>
        <pt x="631" y="1235" on="1"/>
        <pt x="589" y="1235" on="0"/>
        <pt x="508" y="1207" on="0"/>
        <pt x="443" y="1154" on="0"/>
        <pt x="403" y="1077" on="0"/>
        <pt x="403" y="1028" on="1"/>
        <pt x="403" y="981" on="0"/>
        <pt x="440" y="905" on="0"/>
        <pt x="503" y="851" on="0"/>
        <pt x="589" y="821" on="0"/>
      </contour>
    </TTGlyph>
    <TTGlyph name="notequal" xMin="61" yMin="66" xMax="934" yMax="1296">
      <contour>
        <pt x="61" y="997" on="1"/>
        <pt x="475" y="997" on="1"/>
        <pt x="584" y="1296" on="1"/>
        <pt x="862" y="1296" on="1"/>
        <pt x="754" y="997" on="1"/>
        <pt x="934" y="997" on="1"/>
        <pt x="934" y="711" on="1"/>
        <pt x="651" y="711" on="1"/>
        <pt x="600" y="567" on="1"/>
        <pt x="934" y="567" on="1"/>
        <pt x="934" y="281" on="1"/>
        <pt x="498" y="281" on="1"/>
        <pt x="422" y="66" on="1"/>
        <pt x="139" y="66" on="1"/>
        <pt x="217" y="281" on="1"/>
        <pt x="61" y="281" on="1"/>
        <pt x="61" y="567" on="1"/>
        <pt x="319" y="567" on="1"/>
        <pt x="373" y="711" on="1"/>
        <pt x="61" y="711" on="1"/>
      </contour>
    </TTGlyph>
    <TTGlyph name="ntilde" xMin="80" yMin="0" xMax="1982" yMax="2437">
      <component glyphName="n" x="0" y="0" flags="0x204"/>
      <component glyphName="tilde" x="371" y="0" flags="0x4"/>
    </TTGlyph>
</ttFont>
